<svg width="453" height="128" viewBox="0 0 453 128" fill="none" xmlns="http://www.w3.org/2000/svg">
<g filter="url(#filter0_d_181_1126)">
<path d="M239.82 109.916C231.314 109.552 225.611 103.574 222.213 96.0902C217.443 85.5816 216.134 71.057 216.071 58.1973C216.021 47.1532 216.97 32.1684 218.774 21.8313C219.565 17.2882 220.008 15.8491 221.439 13.8996C223.36 11.285 225.242 11.9795 227.23 11.8874C231.406 11.6908 233.527 13.2136 233.883 17.284C233.92 17.7316 233.724 18.8946 233.674 19.8275C231.619 31.0389 230.305 47.3331 230.259 57.5991C230.213 68.4089 230.975 78.0808 233.414 85.4645C238.423 100.638 249.9 96.7679 258.678 87.2592C263.222 82.3395 268.306 72.8014 271.419 65.9742C271.507 65.7776 271.791 65.1333 271.862 64.9576C271.62 64.7694 271.168 64.5518 270.942 64.4012C266.477 61.3976 262.904 58.1806 260.356 53.3613C257.808 48.5421 256.799 42.744 256.711 37.4687C256.624 32.1935 257.619 26.4748 259.49 22.1869C261.36 17.8989 263.615 15.2216 266.988 13.0002C270.36 10.7788 273.716 9.8585 277.494 10.0175C282.114 10.2099 285.453 11.0173 288.519 15.0668C291.586 19.1163 292.62 23.0528 292.582 29.1229C292.528 38.1213 289.779 48.4793 287.277 57.574C287.193 57.8752 287.03 58.6491 286.925 58.9587C287.398 58.9754 287.988 59.0842 288.457 59.0591C293.888 58.7872 299.331 57.1975 304.34 55.612C305.708 55.1811 306.712 55.0598 307.708 55.4907C308.704 55.9216 308.997 56.503 309.26 57.3774C309.771 59.0842 309.896 60.494 309.168 62.2677C308.44 64.0457 306.637 65.0162 304.712 65.6855C304.047 65.9156 303.022 66.2545 302.185 66.4971C296.394 68.1705 290.683 69.1075 284.611 68.7938C284.26 68.777 283.871 68.6766 283.507 68.6725C283.423 68.8105 283.143 69.4255 283.047 69.6137C278.021 79.5199 270.833 91.2585 263.134 98.3953C257.067 104.018 249.536 109.828 240.874 109.933C240.515 109.937 240.163 109.933 239.816 109.916H239.82ZM274.846 20.9863C271.427 21.1285 270.138 22.2538 268.381 25.4499C266.774 28.3741 266.084 32.5114 266.193 36.586C266.377 43.5221 268.402 49.9142 274.172 54.5285C274.54 54.8213 275.118 55.2355 275.515 55.499C275.649 55.1769 275.925 54.2147 276.026 53.9219C278.352 47.308 280.339 38.1841 280.678 31.9885C280.883 28.2319 280.235 25.9477 279.402 24.0694C278.243 21.459 276.62 20.9068 274.85 20.9821L274.846 20.9863Z" fill="white"/>
<path d="M309.653 109.531C304.837 109.531 301.452 107.9 299.31 104.536C297.08 101.047 295.95 96.2994 295.95 90.4343C295.95 86.8826 296.41 82.2433 297.323 76.6417C298.231 71.036 299.419 65.7273 300.846 60.8621C301.498 58.5319 302.331 56.9548 303.323 56.16C304.293 55.3777 305.98 54.9803 308.327 54.9803C313.222 54.9803 313.222 56.9841 313.222 57.8417C313.222 59.7577 312.461 64.4012 310.959 71.6426C308.992 80.6912 308.038 86.686 308.038 89.9574C308.038 92.6096 308.398 94.6177 309.134 96.0986C309.992 97.8221 311.507 98.7341 313.515 98.7341C315.306 98.7341 317.361 97.6339 319.796 95.3707C321.992 93.3292 324.951 90.0703 328.591 85.6778C329.302 84.8453 330.055 84.4353 330.884 84.4353C331.495 84.4353 331.917 84.6947 332.294 85.2971C332.767 86.0585 333.009 87.1796 333.009 88.6271C333.009 91.5303 332.34 93.781 331.022 95.3163C323.327 104.762 316.147 109.544 309.658 109.544L309.653 109.531ZM310.62 44.7687C307.586 44.7687 305.314 44.091 303.875 42.7523C302.44 41.422 301.741 39.5729 301.741 37.1005C301.741 34.6282 302.683 32.6536 304.62 31.0012C306.616 29.2944 309.051 28.4661 312.068 28.4661C314.741 28.4661 316.917 29.1061 318.532 30.3695C320.076 31.5785 320.825 33.2644 320.825 35.5318C320.825 38.4016 319.934 40.602 318.101 42.2586C316.231 43.9487 313.783 44.7687 310.62 44.7687Z" fill="white"/>
<path d="M367.068 109.531C363.311 109.531 360.578 108.506 358.721 106.398C356.846 104.277 355.896 101.085 355.896 96.9144C355.896 94.7474 356.457 90.7732 357.562 85.0922C358.633 79.9048 359.152 76.3866 359.152 74.3619C359.152 71.4084 357.177 71.1783 356.57 71.1783C355.034 71.1783 353.356 72.5881 351.139 75.7549C349.21 78.5034 347.222 82.1638 345.231 86.64C343.243 91.1037 341.616 95.8811 340.394 100.843C339.352 105.285 338.298 107.172 337.595 107.971C336.683 109.008 335.155 109.536 333.051 109.536C330.507 109.536 328.829 108.255 327.766 105.515C326.582 102.462 325.979 97.4206 325.979 90.5306C325.979 80.252 327.461 70.3584 330.385 61.1215C331.03 59.0507 332.026 57.5949 333.436 56.6662C334.867 55.725 336.967 55.2439 339.683 55.2439C341.532 55.2439 342.197 55.5325 342.398 55.658C342.708 55.8505 342.771 56.4319 342.771 56.8837C342.771 57.687 342.465 59.7912 341.005 65.2421C340.197 68.4759 339.54 71.3331 339.055 73.7636C338.565 76.2151 338.151 79.2648 337.829 82.8206C343.31 74.2238 349.273 63.1295 358.348 57.8459C361.315 56.1182 364.047 55.2439 366.461 55.2439C371.014 55.2439 373.047 57.2728 373.047 61.8285C373.047 64.8531 372.164 70.4881 370.419 78.5703C368.859 85.7155 368.101 90.3381 368.101 92.7059C368.101 97.9937 371.081 98.7843 372.855 98.7843C374.8 98.7843 376.947 97.7134 379.42 95.513C381.667 93.5133 384.692 90.2419 388.411 85.795C389.123 84.9667 389.876 84.5567 390.704 84.5567C391.315 84.5567 391.738 84.8119 392.114 85.4143C392.587 86.1715 392.83 87.2885 392.83 88.7275C392.83 91.6182 392.16 93.8563 390.842 95.3833C387.449 99.5625 383.784 103.01 379.926 105.662C376.177 108.235 371.85 109.54 367.064 109.54L367.068 109.531Z" fill="white"/>
<path d="M406.876 109.531C399.554 109.531 393.817 107.335 389.826 103.001C385.805 98.6421 383.763 92.6181 383.763 85.0964C383.763 79.7626 384.897 74.7342 387.135 70.1492C389.361 65.5893 392.482 61.9163 396.424 59.239C400.336 56.5825 404.826 55.2355 409.771 55.2355C414.131 55.2355 417.512 56.4779 420.111 59.034C422.701 61.5858 423.96 64.9827 423.96 69.4171C423.96 74.6672 422.127 79.0514 418.357 82.8206C414.558 86.6191 407.918 89.6897 398.621 91.9571L397.064 92.3378L397.805 93.7601C399.96 97.8891 403.621 99.9808 408.688 99.9808C412.24 99.9808 415.223 99.1316 417.562 97.454C418.972 96.4416 420.236 95.241 421.429 93.9818C422.198 93.1661 422.935 92.3252 423.654 91.4634C424.738 90.1624 425.755 88.1084 427.751 88.3552C430.328 88.6731 430.998 91.5848 430.42 93.7141C428.885 99.3449 424.483 104.093 419.387 106.779C415.926 108.603 411.721 109.527 406.884 109.527L406.876 109.531ZM407.717 64.5477C404.282 64.5477 401.382 66.5013 399.098 70.35C396.939 73.9895 395.847 78.4239 395.847 83.5318V85.3599L397.39 84.9918C402.299 83.8288 406.244 82.0383 409.119 79.6747C412.144 77.1856 413.679 74.2196 413.679 70.8687C413.679 69.028 413.144 67.5053 412.085 66.3465C410.993 65.1543 409.525 64.5518 407.721 64.5518L407.717 64.5477Z" fill="white"/>
<path d="M85.5823 54.5453H72.7871V108.908H85.5823V54.5453Z" fill="white"/>
<path d="M79.1855 28.8217C77.0013 28.8217 75.1059 29.6249 73.5452 31.2062C71.9971 32.7792 71.2104 34.6784 71.2104 36.8454C71.2104 39.0124 72.0013 40.9158 73.5578 42.472C75.1143 44.0282 77.0055 44.8147 79.1855 44.8147C81.3654 44.8147 83.2525 44.0282 84.8257 42.4804C86.4073 40.9242 87.2065 39.0249 87.2065 36.8454C87.2065 34.6659 86.4073 32.7666 84.8341 31.1937C83.2608 29.6207 81.357 28.8217 79.1813 28.8217H79.1855Z" fill="white"/>
<path d="M150.056 54.5453H134.37L122.294 71.4461L109.834 54.5453H94.298L114.328 80.6746L92.6118 108.908H108.102L121.918 90.1165L136.031 108.908H151.625L129.796 80.6788L150.056 54.5453Z" fill="white"/>
<path d="M177.773 110C169.727 110 163.204 107.318 158.388 102.035C153.601 96.7847 151.174 89.7776 151.174 81.2101C151.174 73.1989 153.743 66.4386 158.806 61.1174C163.886 55.7752 170.233 53.0686 177.664 53.0686C185.095 53.0686 191.556 55.5577 196.351 60.4648C201.137 65.3635 203.568 71.8602 203.568 79.771V84.1008H162.547L162.685 85.0713C163.258 89.1585 164.71 92.4299 166.999 94.8018C169.719 97.6172 173.275 98.9852 177.882 98.9852C181.388 98.9852 184.392 98.2949 186.807 96.9312C187.589 96.4877 188.162 96.0652 188.522 95.7807C190.556 94.2036 192.125 92.1579 193.2 89.6897L202.778 94.7223C201.305 97.8599 198.167 102.951 192.246 106.432C186.175 110 180.288 110 177.773 110ZM177.668 63.9746C173.622 63.9746 170.304 65.1125 167.518 67.4468C165.363 69.254 163.94 71.4796 163.166 74.2448L162.865 75.3283H192.129L191.878 74.2782C191.183 71.375 189.853 69.1034 187.802 67.3255C185.2 65.0706 181.882 63.9746 177.668 63.9746Z" fill="white"/>
<path d="M46.9964 22.9609C41.444 20.4844 34.741 19.2461 26.8832 19.2461H6V108.908H18.8119V81.754H26.8832C34.741 81.754 41.444 80.4948 46.9964 77.9764C52.5488 75.458 56.8166 71.8729 59.8083 67.2168C62.7958 62.5649 64.2937 56.9926 64.2937 50.5C64.2937 44.0075 62.8 38.4185 59.8083 33.7206C56.8166 29.0268 52.5488 25.4375 46.9964 22.9609ZM45.1386 65.3552C40.9126 68.8567 34.6992 70.6053 26.4982 70.6053H18.8119V30.3864H26.4982C34.6992 30.3864 40.9126 32.1392 45.1386 35.6365C49.3647 39.138 51.4818 44.0911 51.4818 50.4959C51.4818 56.9006 49.3688 61.8537 45.1386 65.3552Z" fill="white"/>
</g>
<defs>
<filter id="filter0_d_181_1126" x="0.2" y="0.2" width="452.213" height="127.6" filterUnits="userSpaceOnUse" color-interpolation-filters="sRGB">
<feFlood flood-opacity="0" result="BackgroundImageFix"/>
<feColorMatrix in="SourceAlpha" type="matrix" values="0 0 0 0 0 0 0 0 0 0 0 0 0 0 0 0 0 0 127 0" result="hardAlpha"/>
<feOffset dx="8" dy="4"/>
<feGaussianBlur stdDeviation="6.9"/>
<feComposite in2="hardAlpha" operator="out"/>
<feColorMatrix type="matrix" values="0 0 0 0 0 0 0 0 0 0 0 0 0 0 0 0 0 0 0.78 0"/>
<feBlend mode="normal" in2="BackgroundImageFix" result="effect1_dropShadow_181_1126"/>
<feBlend mode="normal" in="SourceGraphic" in2="effect1_dropShadow_181_1126" result="shape"/>
</filter>
</defs>
</svg>
