<svg width="71" height="70" viewBox="0 0 71 70" fill="none" xmlns="http://www.w3.org/2000/svg">
<path d="M62.2097 70.0055C61.9473 69.6717 61.6389 69.3648 61.4334 68.9987C60.3 66.9987 59.1856 64.9853 58.0765 62.9691C57.8899 62.6327 57.687 62.4631 57.2596 62.3877C56.7511 62.2989 56.1912 62.0539 55.826 61.7013C55.0714 60.9745 54.103 60.3769 53.8974 59.2033C53.8812 59.1145 53.5593 59.031 53.378 59.031C52.2582 59.0256 51.1357 59.0418 50.0158 59.0606C49.1016 59.0741 48.3334 58.7645 47.6463 58.1562C47.4272 57.9624 47.0458 57.8628 46.7374 57.8628C37.0105 57.8466 27.2862 57.8493 17.5592 57.8493C13.0501 57.8493 8.54367 57.8493 4.03454 57.8493C1.85435 57.8493 0.683125 56.6811 0.68042 54.5223C0.68042 52.3823 0.68042 50.2396 0.68042 48.0997C0.68042 47.2518 1.06452 46.7672 1.71371 46.7726C2.36289 46.778 2.73617 47.2571 2.73617 48.1131C2.73887 50.2773 2.73617 52.4388 2.73617 54.603C2.73617 55.4913 3.03913 55.7982 3.92364 55.7982C17.9515 55.7982 31.9793 55.7982 46.0098 55.7982C46.1234 55.7982 46.237 55.7874 46.4507 55.774C46.3668 55.5129 46.3046 55.2868 46.2208 55.0687C44.9062 51.6259 43.5808 48.1885 42.2797 44.7403C41.6413 43.0472 42.5529 41.4483 44.284 41.2329C44.6952 41.1818 45.1578 41.2679 45.5527 41.416C49.7021 42.9637 53.846 44.525 57.9846 46.1051C59.3262 46.6165 59.9889 47.6394 59.9971 49.0633C60.0025 50.1562 59.9889 51.2491 59.9592 52.3419C59.9484 52.7484 60.1107 52.8749 60.465 53.1172C61.4063 53.7632 62.2557 54.5654 63.0509 55.3917C63.3187 55.669 63.5135 55.809 63.8814 55.8036C65.1392 55.7901 66.3996 55.8009 67.6574 55.7982C68.6691 55.7955 68.9396 55.5182 68.9396 54.49C68.9396 45.1522 68.9396 35.817 68.9396 26.4792C68.9396 26.2289 68.8693 25.9274 68.9829 25.7417C69.1722 25.4375 69.4427 25.0983 69.7565 24.9745C70.3137 24.7565 70.6734 25.1898 70.998 25.5855V55.5182C70.3678 57.2921 69.0856 58.0108 67.2382 57.8601C66.6728 57.8143 66.1021 57.852 65.5341 57.852C67.011 58.8291 68.5095 59.6421 69.9918 60.4873C70.357 60.6946 70.6653 60.9987 71.0007 61.2598V61.9436C70.4029 62.7565 70.0405 62.8426 69.1587 62.3608C67.8793 61.6609 66.6052 60.953 65.3258 60.2477C64.2952 59.6798 63.2619 59.1118 62.3503 58.6111C61.3712 59.5748 60.465 60.4658 59.5345 61.3783C60.7788 63.6125 62.0528 65.8951 63.3187 68.1804C63.8056 69.058 63.7163 69.424 62.8968 70.0082H62.2097V70.0055ZM44.9008 45.4536C44.8629 45.4833 44.825 45.5102 44.7872 45.5398C46.164 49.1468 47.5246 52.7619 48.9501 56.3527C49.0691 56.6569 49.583 56.9099 49.9563 56.9826C50.4838 57.0876 51.0491 57.0095 51.5982 56.996C52.7397 56.9664 54.0083 57.2275 54.9875 56.813C55.9667 56.3985 56.6754 55.3244 57.4598 54.4981C57.6843 54.2612 57.8547 53.8816 57.8682 53.5586C57.9305 52.1481 57.8953 50.7349 57.9575 49.3244C57.99 48.5627 57.6816 48.1562 56.9783 47.8978C54.6873 47.0553 52.4097 46.1724 50.124 45.311C48.8825 44.8426 47.6409 44.3823 46.3019 43.8816C46.3939 44.0297 46.4101 44.0754 46.4426 44.1077C47.7031 45.3648 48.9717 46.6138 50.2187 47.8843C50.5379 48.2127 50.8002 48.3177 51.2817 48.1697C52.4989 47.7928 53.5998 48.1158 54.4871 49.0122C55.3662 49.8978 55.5988 50.988 55.2634 52.1697C54.7846 53.8574 53.0156 54.8265 51.3223 54.3769C49.5749 53.9112 48.5849 52.1562 49.0285 50.3742C49.0934 50.1104 49.1042 49.7013 48.9501 49.5398C47.6273 48.1562 46.2614 46.813 44.9062 45.4563L44.9008 45.4536ZM59.9646 55.1979C58.6987 56.4523 57.4003 57.7363 56.1912 58.9341C56.578 59.3325 57.0379 59.809 57.3868 60.1724C58.6392 58.9341 59.9213 57.6636 61.1845 56.4146C60.8085 56.0405 60.3757 55.6098 59.9646 55.2006V55.1979ZM52.1771 50.0674C51.5522 50.0512 50.9923 50.5788 50.9626 51.2033C50.9355 51.8332 51.444 52.3796 52.0878 52.4092C52.783 52.4415 53.3158 51.9409 53.3185 51.2545C53.324 50.6057 52.8154 50.0808 52.1744 50.0647L52.1771 50.0674Z" fill="white"/>
<path d="M71.0007 21.4859C70.6788 21.9785 70.2731 22.3419 69.6428 22.1239C69.018 21.9085 68.9341 21.3782 68.9368 20.7887C68.9504 17.782 68.9423 14.7753 68.9423 11.7685V10.9772H2.74156V11.7874C2.74156 22.0135 2.74156 32.2423 2.74156 42.4684C2.74156 43.5236 2.42778 44.0135 1.73802 44.0323C1.02392 44.0512 0.683105 43.5424 0.683105 42.4523C0.683105 29.4455 0.683105 16.4415 0.683105 3.43476C0.683105 1.17635 1.83541 0.0269552 4.09674 0.0269552C8.60587 0.0269552 13.115 0.0269552 17.6241 0.0269552C17.8297 0.0269552 18.0407 0.00542091 18.2408 0.043106C18.771 0.145394 19.1038 0.460333 19.1173 1.02023C19.1308 1.61242 18.7981 1.95159 18.2328 2.05926C18.011 2.09963 17.7756 2.07541 17.5484 2.07541C13.0609 2.07541 8.57611 2.07541 4.08862 2.07541C3.01205 2.07541 2.74427 2.3392 2.74427 3.39169C2.74427 5.18712 2.74427 6.98523 2.74427 8.82642H68.9314C68.9314 6.82103 68.9639 4.84526 68.8936 2.87218C68.8827 2.60031 68.4067 2.29883 68.0929 2.09694C67.9306 1.99196 67.6466 2.07272 67.4194 2.07272C52.7694 2.07272 38.1222 2.07272 23.4722 2.07272C22.4038 2.07272 21.9169 1.76585 21.8952 1.07675C21.8736 0.360737 22.3794 0.0215716 23.4776 0.0215716C38.0573 0.0215716 52.6369 0.0404142 67.2192 3.7325e-05C69.0667 -0.00534626 70.3624 0.570697 71.0034 2.34459V21.4805L71.0007 21.4859Z" fill="white"/>
<path d="M19.1957 27.3137C20.2425 28.2343 20.6564 29.3433 20.4319 30.6542C20.1776 32.1589 18.8116 33.3325 17.2644 33.3837C16.2365 33.4187 15.2086 33.4106 14.1808 33.4025C13.418 33.3971 13.0366 33.0284 13.0339 32.2747C13.0231 29.4106 13.0231 26.5438 13.0339 23.6798C13.0339 22.9207 13.4044 22.5654 14.1781 22.5519C14.9787 22.5358 15.7767 22.5358 16.5773 22.5519C18.9901 22.5977 20.3697 24.8426 19.3364 27.0284C19.2985 27.1091 19.2579 27.1899 19.1957 27.3164V27.3137ZM15.1194 31.3352C15.8416 31.3352 16.5205 31.3648 17.1968 31.3271C17.8919 31.2895 18.3788 30.7646 18.4167 30.097C18.4573 29.3837 18.0353 28.778 17.3104 28.7026C16.5963 28.63 15.8687 28.6865 15.1194 28.6865V31.3352ZM15.1248 26.5654C15.7009 26.5654 16.2446 26.6057 16.7802 26.5546C17.3401 26.5008 17.6242 26.1158 17.616 25.5694C17.6106 25.0553 17.3347 24.6784 16.8073 24.6273C16.2528 24.5734 15.6901 24.6165 15.1221 24.6165V26.5654H15.1248Z" fill="white"/>
<path d="M46.9944 28.8641C46.9944 27.2517 46.9917 25.6394 46.9971 24.027C46.9971 23.7578 47.0079 23.4725 47.089 23.2194C47.2486 22.7188 47.6382 22.5088 48.1548 22.56C48.6471 22.6111 48.9446 22.8991 49.0285 23.381C49.0637 23.5801 49.0528 23.7901 49.0528 23.9947C49.0528 26.6138 49.0528 29.2329 49.0555 31.852C49.0555 32.455 49.1015 33.0902 48.382 33.3379C47.6409 33.5909 47.2595 33.0902 46.8889 32.5573C45.5986 30.7053 44.2922 28.8668 42.9099 26.9072C42.8775 27.1898 42.845 27.3487 42.845 27.5102C42.8423 29.0579 42.845 30.6084 42.8396 32.1562C42.8369 32.9557 42.4474 33.4025 41.7928 33.3944C41.1625 33.3863 40.7838 32.953 40.7838 32.1912C40.7784 29.389 40.7838 26.5869 40.7757 23.7847C40.7757 23.2248 40.9461 22.7807 41.5033 22.6057C42.0606 22.4308 42.4636 22.6999 42.7828 23.1575C43.9973 24.8964 45.2226 26.6273 46.448 28.3581C46.5778 28.5411 46.7158 28.7161 46.851 28.8964C46.8997 28.8857 46.9457 28.8722 46.9944 28.8614V28.8641Z" fill="white"/>
<path d="M53.094 22.5195C53.7107 22.5518 54.3356 22.5195 54.9388 22.6272C56.3048 22.8722 57.3353 23.6447 57.9385 24.8829C58.9258 26.9045 58.9556 28.9771 57.925 30.9852C57.1244 32.5438 55.8017 33.3809 54.0029 33.3917C53.2022 33.3971 52.4043 33.4159 51.6036 33.3997C50.9192 33.3863 50.5324 33.0229 50.5297 32.3446C50.5135 29.4347 50.5081 26.5222 50.5162 23.6124C50.5162 22.926 50.8868 22.5788 51.5846 22.5518C52.0878 22.533 52.5909 22.5491 53.0913 22.5491V22.5195H53.094ZM52.618 24.6218V31.3163C53.9244 31.3863 55.2445 31.5505 56.0072 30.2261C56.8809 28.708 56.8404 27.1144 55.9694 25.6178C55.2066 24.3069 53.873 24.603 52.618 24.6218Z" fill="white"/>
<path d="M26.2313 29.0875C26.9832 29.9354 27.7 30.6998 28.3546 31.5128C28.5792 31.7927 28.7874 32.2046 28.7577 32.5303C28.7306 32.8183 28.3898 33.257 28.1301 33.3028C27.7677 33.3647 27.2375 33.2409 26.9805 32.9906C26.1961 32.2315 25.5118 31.3728 24.7868 30.5545C24.5786 30.3203 24.3676 30.0861 24.0159 29.6931C24.0159 30.7025 24.0295 31.5289 24.0105 32.3526C23.9997 32.856 23.7508 33.2301 23.2477 33.362C22.7825 33.4805 22.3713 33.3486 22.1252 32.9206C22.017 32.7348 21.9656 32.4926 21.9656 32.2745C21.9548 29.4078 21.9548 26.5437 21.9656 23.677C21.9656 22.9179 22.3362 22.5599 23.1071 22.5464C23.8618 22.5303 24.6164 22.5303 25.3684 22.5464C27.1293 22.5868 28.452 23.6824 28.7631 25.3378C29.0444 26.8344 28.1761 28.2772 26.5856 28.9502C26.5018 28.9852 26.4152 29.0148 26.2313 29.0848V29.0875ZM24.0538 27.0902C24.611 27.0902 25.1141 27.1332 25.6064 27.0794C26.2556 27.0094 26.7614 26.4199 26.7479 25.8331C26.7371 25.2678 26.2529 24.7025 25.6335 24.6352C25.1223 24.5814 24.6029 24.6245 24.0511 24.6245V27.0902H24.0538Z" fill="white"/>
<path d="M39.3773 32.5654C39.142 32.8022 38.8985 33.2518 38.5712 33.3217C38.2331 33.3944 37.7895 33.1414 37.4433 32.9422C37.2837 32.8507 37.2431 32.5492 37.1538 32.3419C36.5885 31.031 37.0132 31.2868 35.5092 31.2545C35.236 31.2491 34.9547 31.2868 34.6869 31.2491C33.4318 31.0633 32.4959 31.2841 32.2038 32.7565C32.0848 33.3567 31.4004 33.5559 30.8648 33.3325C30.3671 33.1252 30.1102 32.5842 30.3266 32.027C31.4735 29.0849 32.623 26.1427 33.8322 23.2248C33.9593 22.918 34.4624 22.6542 34.8303 22.5869C35.3496 22.49 35.631 22.9207 35.8095 23.3729C36.9212 26.1831 38.0329 28.9934 39.142 31.8036C39.215 31.992 39.261 32.1912 39.3719 32.568L39.3773 32.5654ZM34.7789 26.3554C34.3813 27.3594 34.0377 28.2289 33.6726 29.1522H35.8825C35.5174 28.2235 35.1765 27.3648 34.7789 26.3554Z" fill="white"/>
<path d="M8.88181 42.6703C8.28672 42.6703 7.69433 42.6811 7.09925 42.6703C5.94694 42.6461 5.17063 41.9651 5.12735 40.8345C5.07596 39.5398 5.07596 38.2423 5.12735 36.9476C5.17063 35.809 5.92259 35.1495 7.09383 35.1145C7.52121 35.101 7.88909 35.1387 8.18664 34.6488C8.51935 34.0943 9.30918 34.2127 9.77984 34.7161C9.96107 34.9126 10.2775 35.0849 10.5399 35.0956C12.0763 35.1602 12.6958 35.7847 12.7607 37.3406C12.7715 37.5802 12.9338 37.8736 13.1177 38.0378C13.6939 38.5546 13.6885 39.2168 13.1069 39.7363C12.923 39.9005 12.7688 40.1966 12.7607 40.4415C12.6958 42.0055 12.0331 42.6703 10.4642 42.673C9.93943 42.673 9.41197 42.673 8.88721 42.673L8.88181 42.6703ZM7.21556 37.2006V40.5842H10.64V37.2006H7.21556Z" fill="white"/>
<path d="M62.7669 42.6702C62.1718 42.6702 61.5794 42.6783 60.9843 42.6702C59.7265 42.6514 58.98 41.9327 58.9448 40.6837C58.9313 40.2503 58.9448 39.8923 58.4715 39.5989C57.9575 39.2786 57.9927 38.4872 58.5012 38.1292C58.8448 37.8869 58.9502 37.6447 58.9502 37.2436C58.9502 35.8116 59.6535 35.1305 61.1034 35.1144C61.4631 35.1117 61.7147 35.0686 61.9473 34.7133C62.3368 34.1211 63.1781 34.1211 63.5622 34.7133C63.7948 35.0713 64.0518 35.1063 64.4061 35.1117C65.8614 35.1278 66.5511 35.8089 66.5673 37.2436C66.5782 38.3365 66.5782 39.4266 66.5673 40.5195C66.5538 41.9461 65.8316 42.6595 64.4115 42.6702C63.8624 42.6756 63.3133 42.6702 62.7669 42.6702ZM61.0439 37.2059V40.5653H64.4737V37.2059H61.0439Z" fill="white"/>
<path d="M8.94673 13.2867C9.51747 13.2867 10.0882 13.2813 10.6589 13.2867C11.9573 13.2975 12.7066 14.0135 12.7309 15.3028C12.739 15.7228 12.7607 16.0458 13.1827 16.3284C13.7182 16.6837 13.6966 17.4913 13.1475 17.8439C12.7634 18.0915 12.7363 18.3688 12.7309 18.7456C12.712 20.1319 12.0141 20.8237 10.6049 20.8426C10.2235 20.8479 9.94755 20.8829 9.7014 21.2679C9.33894 21.8304 8.5004 21.8224 8.12712 21.2625C7.8972 20.9179 7.65916 20.8479 7.294 20.8426C5.79816 20.8237 5.11653 20.14 5.10571 18.6676C5.09759 17.5774 5.09489 16.4845 5.10571 15.3944C5.12194 14.0108 5.84956 13.2948 7.22908 13.2867C7.79982 13.284 8.37057 13.2867 8.94131 13.2867H8.94673ZM7.22097 15.3674V18.751H10.6373V15.3674H7.22097Z" fill="white"/>
<path d="M62.7669 13.2868C63.3836 13.2868 64.0004 13.276 64.6171 13.2868C65.7288 13.3083 66.5024 13.9812 66.5484 15.0876C66.6052 16.4039 66.6025 17.7255 66.5484 19.0418C66.4997 20.1535 65.7613 20.8076 64.6198 20.8372C64.1518 20.848 63.784 20.8642 63.4729 21.3352C63.1321 21.8494 62.372 21.7309 61.923 21.2625C61.7363 21.066 61.4307 20.8776 61.171 20.8668C59.6211 20.7942 58.9881 20.167 58.9232 18.6434C58.9124 18.385 58.7284 18.0808 58.5337 17.8951C58.0035 17.3971 58.0143 16.735 58.5526 16.2343C58.7474 16.0512 58.9151 15.7363 58.9259 15.4752C58.9881 13.9651 59.6643 13.2922 61.1926 13.2895C61.7174 13.2895 62.2449 13.2895 62.7696 13.2895L62.7669 13.2868ZM64.4683 18.7511V15.3864H61.052V18.7511H64.4683Z" fill="white"/>
<path d="M17.827 37.8762C18.0786 37.8762 18.3301 37.8654 18.579 37.8762C19.1713 37.9031 19.5203 38.2423 19.569 38.8049C19.6177 39.3782 19.2958 39.8035 18.7332 39.8708C18.084 39.9489 17.4105 39.9462 16.7586 39.8762C16.1986 39.8143 15.874 39.4159 15.9092 38.8264C15.9444 38.2423 16.2906 37.9219 16.8722 37.8789C17.1886 37.8573 17.5105 37.8735 17.8297 37.8735L17.827 37.8762Z" fill="white"/>
<path d="M53.9163 37.8762C54.2139 37.8762 54.5114 37.8573 54.8036 37.8789C55.3851 37.9219 55.7314 38.2422 55.7665 38.8264C55.8044 39.4159 55.4798 39.8142 54.9172 39.8762C54.2653 39.9488 53.5918 39.9488 52.9426 39.8735C52.3799 39.8062 52.0554 39.3809 52.104 38.8102C52.1527 38.2503 52.499 37.9058 53.0941 37.8789C53.3673 37.8654 53.6404 37.8789 53.9136 37.8789L53.9163 37.8762Z" fill="white"/>
<path d="M17.7756 18.0754C17.4564 18.0754 17.1346 18.1023 16.8181 18.07C16.2717 18.0108 15.9471 17.6932 15.9065 17.1414C15.8659 16.5519 16.1797 16.1454 16.7396 16.0781C17.3915 16.0027 18.065 16.0027 18.7169 16.0754C19.2796 16.1373 19.6096 16.5572 19.569 17.1306C19.5311 17.6959 19.1849 18.0377 18.5952 18.0781C18.322 18.097 18.0488 18.0808 17.7756 18.0808C17.7756 18.0808 17.7756 18.0781 17.7756 18.0754Z" fill="white"/>
<path d="M53.9001 18.0782C53.6269 18.0782 53.351 18.0943 53.0805 18.0755C52.4908 18.0378 52.1473 17.6905 52.1094 17.128C52.0716 16.5546 52.3989 16.1374 52.9642 16.0755C53.6161 16.0028 54.2896 16.0028 54.9415 16.0808C55.5041 16.1481 55.8152 16.5546 55.7719 17.1441C55.7313 17.6959 55.4041 18.0135 54.8577 18.0701C54.5412 18.1024 54.2193 18.0755 53.9001 18.0755C53.9001 18.0755 53.9001 18.0755 53.9001 18.0782Z" fill="white"/>
<path d="M47.9114 18.0781C47.6165 18.0781 47.3163 18.097 47.0241 18.0754C46.4345 18.027 46.0991 17.677 46.0747 17.1091C46.0504 16.533 46.3831 16.1319 46.9484 16.0727C47.5786 16.0054 48.2278 16.0027 48.8581 16.0727C49.4153 16.1319 49.7561 16.5088 49.7345 17.101C49.7129 17.6851 49.3775 18.0189 48.7986 18.0754C48.5065 18.105 48.2062 18.0808 47.9114 18.0808V18.0781Z" fill="white"/>
<path d="M23.7211 18.0781C23.4479 18.0781 23.172 18.0997 22.9015 18.0755C22.3226 18.0243 21.9791 17.704 21.9466 17.1199C21.9142 16.5277 22.2415 16.1347 22.8014 16.0755C23.4533 16.0055 24.1268 16.0028 24.776 16.0835C25.3386 16.1535 25.6497 16.5788 25.6037 17.1549C25.5604 17.6905 25.2331 18.027 24.6786 18.0755C24.3621 18.1024 24.0402 18.0808 23.7211 18.0808V18.0781Z" fill="white"/>
<path d="M23.7914 37.8762C24.0646 37.8762 24.3378 37.8654 24.611 37.8762C25.2034 37.9031 25.5496 38.2342 25.5983 38.8048C25.647 39.3809 25.3278 39.8035 24.7652 39.8708C24.116 39.9489 23.4425 39.9489 22.7906 39.8762C22.2307 39.8143 21.9034 39.4186 21.9412 38.8264C21.9764 38.2423 22.3172 37.9192 22.9015 37.8789C23.1963 37.8573 23.4939 37.8762 23.7887 37.8735L23.7914 37.8762Z" fill="white"/>
<path d="M47.8897 39.895C47.5705 39.895 47.2432 39.9408 46.9376 39.8843C46.375 39.782 46.0422 39.4078 46.0774 38.8318C46.1099 38.2665 46.448 37.9085 47.0404 37.8816C47.6084 37.8573 48.1791 37.8573 48.7499 37.8816C49.3314 37.9031 49.6804 38.2207 49.7372 38.8022C49.7913 39.3621 49.4315 39.8143 48.8473 39.895C48.5335 39.9381 48.2116 39.9031 47.8924 39.9031C47.8924 39.9031 47.8924 39.8977 47.8924 39.895H47.8897Z" fill="white"/>
<path d="M41.8658 39.9085C41.571 39.9085 41.2707 39.9381 40.9786 39.9032C40.3916 39.8305 40.0129 39.389 40.0346 38.8453C40.0562 38.2935 40.4511 37.9032 41.0598 37.8789C41.5818 37.8574 42.1066 37.8601 42.6313 37.8789C43.2967 37.8978 43.6916 38.2692 43.7052 38.8587C43.7187 39.4402 43.3265 39.8574 42.6854 39.9139C42.4149 39.9381 42.139 39.9193 41.8658 39.9193C41.8658 39.9193 41.8658 39.9139 41.8658 39.9112V39.9085Z" fill="white"/>
<path d="M29.791 18.0755C29.4961 18.0755 29.1959 18.0997 28.9038 18.0701C28.3574 18.0162 28.0246 17.704 27.9787 17.1549C27.93 16.5681 28.2356 16.1508 28.7955 16.0808C29.4447 16.0001 30.1183 16.0028 30.7702 16.0701C31.3328 16.1293 31.6628 16.5304 31.633 17.1118C31.6033 17.6878 31.2625 18.0243 30.6782 18.0728C30.3834 18.097 30.0858 18.0781 29.791 18.0781V18.0755Z" fill="white"/>
<path d="M41.8794 18.0781C41.5845 18.0781 41.2843 18.0996 40.9922 18.0754C40.4079 18.027 40.0698 17.6851 40.0427 17.1117C40.0157 16.5303 40.3484 16.1346 40.911 16.0727C41.5413 16.0054 42.1905 16.0027 42.8207 16.07C43.3806 16.1292 43.7215 16.5061 43.6998 17.0983C43.6809 17.6824 43.3482 18.0162 42.7666 18.0754C42.4745 18.105 42.1742 18.0808 41.8794 18.0808V18.0781Z" fill="white"/>
<path d="M29.8153 37.8762C30.1102 37.8762 30.4104 37.8574 30.7025 37.8816C31.2571 37.9274 31.5816 38.2504 31.6303 38.7941C31.679 39.3379 31.4085 39.782 30.8784 39.8466C30.1643 39.9301 29.4231 39.9301 28.709 39.8386C28.1761 39.7713 27.9219 39.319 27.9814 38.7726C28.0409 38.2235 28.3763 37.922 28.9254 37.8816C29.2202 37.8601 29.5178 37.8789 29.8126 37.8789L29.8153 37.8762Z" fill="white"/>
<path d="M35.8311 37.8735C36.1043 37.8735 36.3775 37.8601 36.6507 37.8735C37.2701 37.9085 37.6515 38.2746 37.6732 38.8372C37.6948 39.3863 37.3269 39.8493 36.7372 39.8924C36.1259 39.9381 35.5065 39.9408 34.8952 39.8843C34.3109 39.8278 33.9512 39.3406 34.0134 38.7887C34.081 38.21 34.4272 37.9005 35.0115 37.8735C35.2847 37.8601 35.5579 37.8735 35.8311 37.8735Z" fill="white"/>
<path d="M35.8149 18.078C35.5417 18.078 35.2685 18.0942 34.9953 18.0754C34.3948 18.0323 33.9998 17.6339 34.0052 17.0767C34.0134 16.4899 34.3434 16.1184 34.906 16.0619C35.5146 16 36.1367 16.0107 36.7481 16.0565C37.3296 16.0996 37.711 16.5733 37.665 17.1251C37.6163 17.7039 37.2836 18.0323 36.7021 18.0754C36.4072 18.0969 36.1097 18.078 35.8149 18.0807V18.078Z" fill="white"/>
<path d="M63.7975 25.2894C63.7785 25.607 63.7921 25.9273 63.7353 26.2369C63.6433 26.7564 63.27 27.0256 62.7723 27.0337C62.2719 27.0444 61.8472 26.786 61.7904 26.2692C61.7228 25.6232 61.7201 24.9556 61.7904 24.3096C61.8472 23.8008 62.2557 23.537 62.7696 23.5478C63.2808 23.5559 63.6352 23.8331 63.7325 24.3419C63.7921 24.6514 63.7785 24.9718 63.7975 25.2894Z" fill="white"/>
<path d="M9.96919 25.3541C9.95567 25.6259 9.96378 25.9005 9.9205 26.167C9.82583 26.7457 9.44173 27.0553 8.8764 27.031C8.34623 27.0095 7.96754 26.6973 7.92696 26.1401C7.8891 25.5775 7.88098 25.0068 7.92696 24.4442C7.97565 23.8655 8.35705 23.5452 8.9359 23.5479C9.4823 23.5506 9.83124 23.8628 9.9178 24.4039C9.96649 24.7161 9.95296 25.0364 9.96919 25.3514V25.3541Z" fill="white"/>
<path d="M63.7948 30.7026C63.7785 30.996 63.7894 31.2948 63.738 31.5828C63.6514 32.0969 63.3025 32.3849 62.7967 32.4065C62.2557 32.428 61.8445 32.1481 61.7769 31.6043C61.7066 31.0256 61.712 30.428 61.7498 29.8439C61.7877 29.2625 62.1745 28.9502 62.7425 28.9125C63.2727 28.8775 63.7055 29.3028 63.7623 29.8897C63.7894 30.1588 63.7677 30.4334 63.7677 30.7053C63.7758 30.7053 63.7866 30.7053 63.7948 30.7053V30.7026Z" fill="white"/>
<path d="M9.97189 30.7538C9.95296 31.0095 9.96378 31.311 9.90698 31.5963C9.79878 32.1374 9.4282 32.4227 8.88721 32.4065C8.37868 32.3904 7.99729 32.1051 7.9459 31.5909C7.88909 30.9853 7.88909 30.3689 7.94048 29.7605C7.98646 29.206 8.39762 28.9153 8.92779 28.918C9.46066 28.918 9.83394 29.2195 9.91779 29.7686C9.96648 30.0808 9.95566 30.4012 9.97189 30.7538Z" fill="white"/>
<path d="M17.1589 5.4724C17.1589 6.02153 16.7261 6.46029 16.1689 6.47375C15.5846 6.4899 15.1085 6.03499 15.1112 5.46433C15.114 4.92866 15.5684 4.46298 16.1067 4.44683C16.672 4.42799 17.1589 4.90174 17.1589 5.4724Z" fill="white"/>
<path d="M11.3433 6.47376C10.7861 6.43608 10.3885 5.98924 10.4128 5.42665C10.4344 4.85061 10.9349 4.40377 11.5002 4.45492C12.0385 4.50068 12.474 4.99058 12.4496 5.51548C12.4226 6.08614 11.9303 6.51414 11.346 6.47376H11.3433Z" fill="white"/>
<path d="M7.71056 5.49661C7.69703 6.06189 7.27776 6.47104 6.70972 6.47643C6.12816 6.47912 5.66021 6.01344 5.67644 5.44547C5.69266 4.9125 6.15792 4.45489 6.6935 4.44951C7.26424 4.44412 7.72138 4.91788 7.71056 5.49661Z" fill="white"/>
</svg>
