<?xml version="1.0" encoding="UTF-8"?>
<svg id="Layer_1" xmlns="http://www.w3.org/2000/svg" viewBox="0 0 128 128">
  <defs>
    <style>
      .cls-1 {
        fill: #fff;
      }

      .cls-2 {
        fill: #50c878;
      }
    </style>
  </defs>
  <path class="cls-2" d="M68.75,107.15c-4.53,1.07-9.35,1.6-14.45,1.6-7.75,0-14.93-1.28-21.56-3.85-1.27-.49-2.5-1.02-3.7-1.59-.28-2.53-.31-5.06-.35-7.71-.06-4.7-.12-9.81-1.63-15.8.69.83,1.42,1.62,2.19,2.38,3.24,3.19,7.06,5.66,11.47,7.4,4.41,1.74,9.27,2.61,14.59,2.61,1.4,0,2.76-.07,4.11-.2l9.33,15.16Z"/>
  <path class="cls-1" d="M83.59,84.86c-3.17,6.49-5.34,13.27-6.95,19.78-.59.24-1.19.47-1.78.69-3.01-4.85-6.02-9.71-9.02-14.57-3.49-5.64-6.98-11.27-10.47-16.91,6.73-.36,12.45-4.55,15.03-10.43l10.99,17.86,2.2,3.57Z"/>
  <path class="cls-1" d="M76.64,104.64c-.22.87-.42,1.72-.62,2.58l-.63-1.02c-.18-.29-.36-.58-.54-.87.6-.22,1.19-.45,1.78-.69Z"/>
  <path class="cls-2" d="M128,51.41l-31.46,54.49-10.32,17.88-7.2-11.71c.63-3.14,1.36-6.35,2.24-9.59h0c1.58-5.79,3.65-11.65,6.54-17.24,1.07-2.07,2.24-4.1,3.55-6.07,7.83-11.86,20.12-21.15,36.65-27.75Z"/>
  <path class="cls-1" d="M24.89,101.13c-3.44-2-6.58-4.38-9.43-7.11-4.89-4.7-8.69-10.24-11.4-16.62-.51-1.21-.98-2.44-1.39-3.69-.9-2.7-1.57-5.5-2.01-8.39-.44-2.85-.66-5.79-.66-8.83,0-3.58.31-7.03.91-10.35,1.74,3.18,4.21,5.81,6.86,8.66,3.04,3.25,6.39,6.84,9.53,12.03.89,1.48,1.77,3.1,2.62,4.87.32.68.63,1.35.9,2,3.76,8.75,3.84,15.45,3.91,21.94.02,1.84.04,3.66.15,5.48Z"/>
  <path class="cls-2" d="M87.69,18.05l-5.33,9.24c-.96,1.67-3.19,2.13-4.71.95-2.36-1.84-4.87-3.33-7.53-4.49-4.55-1.98-9.49-2.97-14.81-2.97-1.38,0-2.72.06-4.04.17-3.61.32-7,1.08-10.14,2.28-.14.05-.27.1-.41.15-4.4,1.74-8.23,4.21-11.47,7.4-1.02,1-1.96,2.06-2.84,3.18-1.91,2.44-3.48,5.16-4.71,8.14-1.79,4.36-2.69,9.15-2.69,14.37,0,2.23.16,4.38.49,6.45-3.02-4.6-6.16-7.96-8.84-10.83-3.98-4.26-7.04-7.55-8.04-12.71.43-1.29.9-2.56,1.43-3.81,2.71-6.39,6.53-11.93,11.47-16.62.35-.33.69-.65,1.05-.97,4.49-4.04,9.63-7.24,15.42-9.6.27-.11.54-.22.81-.33,4.28-1.67,8.83-2.79,13.64-3.38,2.59-.31,5.25-.47,8-.47,8.32,0,15.92,1.43,22.79,4.28,3.47,1.44,6.67,3.24,9.6,5.38,1.31.96,1.67,2.76.85,4.16Z"/>
  <circle class="cls-1" cx="54.41" cy="56.43" r="13.47"/>
</svg>