<?xml version="1.0" encoding="UTF-8"?>
<svg id="Layer_3" data-name="Layer 3" xmlns="http://www.w3.org/2000/svg" xmlns:xlink="http://www.w3.org/1999/xlink" viewBox="0 0 128 128">
  <defs>
    <style>
      .cls-1 {
        fill: url(#linear-gradient);
      }

      .cls-1, .cls-2, .cls-3, .cls-4 {
        stroke-width: 0px;
      }

      .cls-2 {
        fill: #50c878;
      }

      .cls-3 {
        fill: url(#linear-gradient-2);
      }

      .cls-4 {
        fill: #fff;
      }
    </style>
    <linearGradient id="linear-gradient" x1="53.94" y1="60.9" x2="31.02" y2="61.18" gradientUnits="userSpaceOnUse">
      <stop offset="0" stop-color="#fff"/>
      <stop offset=".09" stop-color="#f5f5f5"/>
      <stop offset=".23" stop-color="#dadada"/>
      <stop offset=".42" stop-color="#afafaf"/>
      <stop offset=".64" stop-color="#727272"/>
      <stop offset=".88" stop-color="#272727"/>
      <stop offset="1" stop-color="#000"/>
    </linearGradient>
    <linearGradient id="linear-gradient-2" x1="36.27" y1="35.78" x2="40.57" y2="17.73" gradientUnits="userSpaceOnUse">
      <stop offset="0" stop-color="#50c878"/>
      <stop offset=".28" stop-color="#45ad67"/>
      <stop offset=".89" stop-color="#29683d"/>
      <stop offset="1" stop-color="#245b35"/>
    </linearGradient>
  </defs>
  <path class="cls-2" d="M127.55,64.47c-.29-.95-.6-1.58-1.68-2.04-1.08-.46-2.16-.34-3.64.14-5.42,1.71-11.31,3.43-17.19,3.73-.51.03-1.15-.09-1.66-.11.11-.33.29-1.17.38-1.49,2.71-9.85,5.68-21.06,5.74-30.8.04-6.56-1.08-10.83-4.4-15.21-3.32-4.39-6.93-5.26-11.93-5.46-4.09-.17-7.72.82-11.37,3.23-3.65,2.4-6.09,5.3-8.11,9.94-2.02,4.64-3.1,10.83-3.01,16.54.1,5.71,1.19,11.98,3.94,17.2,2.76,5.22,6.62,8.7,11.45,11.95.24.16.73.39,1,.6-.08.19-.38.89-.48,1.1-3.37,7.39-8.87,17.71-13.79,23.04-9.5,10.29-21.92,14.47-27.34-1.94-1.57-4.76-2.5-10.4-2.98-16.65-.02-.28-.04-.57-.06-.85-.28-4-.39-8.24-.37-12.65v-.07c0-.35,0-.72,0-1.08.13-10.78,1.44-26.89,3.47-38.54.06-.34.12-.67.18-1-3.61-2.71-8.33-4.5-14.05-5.32-.16.28-.3.56-.43.85-.65,1.44-1.05,3.21-1.61,6.44-1.95,11.19-2.98,27.4-2.92,39.36,0,.61,0,1.23.02,1.84,0,.32,0,.63.01.96.07,3.78.24,7.67.58,11.54.02.29.05.57.07.86.86,9.31,2.63,18.47,5.96,25.81,3.68,8.1,9.85,14.57,19.05,14.96.38.02.76.02,1.15.02,9.38-.11,17.53-6.4,24.09-12.49,8.34-7.72,16.11-20.43,21.55-31.15.1-.21.41-.87.5-1.02.39,0,.82.12,1.2.14,6.57.34,12.75-.67,19.02-2.49.91-.26,2.01-.63,2.73-.88,2.08-.73,4.03-1.77,4.82-3.7.79-1.92.65-3.45.1-5.3ZM96.61,37c-.36,6.7-2.51,16.58-5.03,23.74-.11.32-.41,1.35-.55,1.71-.43-.29-1.05-.73-1.45-1.05-6.24-4.99-8.43-11.91-8.63-19.42-.12-4.41.63-8.89,2.37-12.06,1.91-3.46,3.3-4.68,7-4.83,1.92-.08,3.67.52,4.93,3.34.9,2.03,1.6,4.5,1.38,8.57Z"/>
  <path class="cls-4" d="M68.02,43.18c0,7.56-1.76,14.13-5.23,19.54-3.47,5.4-8.5,9.63-14.95,12.55-1.28.58-3.77,1.53-5.41,2.09-.28-4-.39-8.24-.37-12.65v-.07c1.39-.81,3.55-2.18,4.5-2.96,5.26-4.36,7.92-10.58,7.92-18.5s-2.66-14.14-7.92-18.5c-.15-.13-.31-.25-.48-.38-.12-.1-.24-.19-.37-.28-3.61-2.71-8.33-4.5-14.05-5.32-.1-.02-.2-.03-.31-.05-2.37-.32-4.96-.49-7.71-.49h-10.11v50h10.11c.64,0,2.21,0,3.08-.02.07,3.78.24,7.67.58,11.54-.97.01-2.57.02-3.2.02h-10.58v32.53H0V6.64h24.11c9.24,0,17.22,1.47,23.73,4.37,6.45,2.88,11.48,7.1,14.95,12.55,3.47,5.46,5.23,12.06,5.23,19.62Z"/>
  <path class="cls-1" d="M67.72,48.4c-.63,5.4-2.28,10.2-4.93,14.33-3.47,5.4-8.5,9.63-14.95,12.55-1.28.58-3.77,1.53-5.41,2.09-.28-4-.39-8.24-.37-12.65v-.07c1.39-.81,3.55-2.18,4.5-2.96,4.95-4.1,7.6-9.85,7.9-17.12l13.27,3.83Z"/>
  <path class="cls-3" d="M31.67,18.72c-.16.28-.3.56-.43.85-.65,1.44-1.05,3.21-1.61,6.44-1,5.74-1.76,12.8-2.25,19.92h15.6c.6-7.25,1.48-14.71,2.56-20.9.06-.33.12-.67.18-1-3.61-2.71-8.33-4.5-14.05-5.31Z"/>
</svg>