<svg width="71" height="70" viewBox="0 0 71 70" fill="none" xmlns="http://www.w3.org/2000/svg">
<path d="M3.30082 70.0053C3.11418 69.93 2.93295 69.8465 2.7436 69.7792C0.952935 69.1467 -0.164206 67.4239 0.0197301 65.5746C0.200961 63.7604 1.60212 62.2961 3.44959 61.9838C5.22133 61.685 7.04446 62.7052 7.78832 64.4064C7.86135 64.5733 7.92357 64.7429 7.9993 64.9259H23.5852C23.358 64.8021 23.2389 64.7267 23.1091 64.6702C11.9675 59.8169 5.2051 51.4481 3.39009 39.4885C1.91319 29.7388 4.74256 21.074 11.2723 13.6339C11.7889 13.0444 12.4219 12.9528 12.8871 13.3593C13.3497 13.7658 13.3389 14.3956 12.8114 14.9851C9.02989 19.2193 6.46831 24.0915 5.59461 29.6904C3.72279 41.6931 7.63143 51.537 17.2502 59.0148C21.405 62.2449 26.1089 64.0107 31.1157 64.6541C31.1157 64.358 31.1049 64.0753 31.1157 63.7954C31.1644 62.5921 31.8136 61.9515 33.0173 61.9434C34.413 61.9327 35.8088 61.938 37.2045 61.9434C38.5381 61.9488 39.1764 62.5733 39.2116 63.9004C39.217 64.1238 39.2116 64.3499 39.2116 64.5787C50.4452 63.5208 63.5344 53.8035 65.079 37.9488C66.7398 20.8748 54.1131 7.24894 39.2549 5.40237C39.2387 5.73885 39.2278 6.06994 39.2008 6.40103C39.1169 7.43737 38.4596 8.07263 37.4128 8.08609C35.9495 8.10493 34.4834 8.09955 33.0173 8.08878C31.8109 8.0807 31.1617 7.44275 31.1103 6.23952C31.0995 5.97303 31.1103 5.70655 31.1103 5.37276C29.0005 5.6231 27.0421 6.11839 25.127 6.79134C22.0623 7.86805 19.2491 9.41045 16.6849 11.397C16.5767 11.4804 16.4712 11.572 16.3603 11.6473C15.7814 12.0403 15.208 11.9784 14.8455 11.4858C14.5128 11.0336 14.5858 10.4253 15.1052 10.0403C16.152 9.26778 17.1799 8.45486 18.3051 7.81153C19.8469 6.92862 21.4672 6.18299 23.055 5.38353C23.1902 5.31624 23.3309 5.25971 23.4526 5.08474C23.3093 5.08474 23.1632 5.08474 23.0198 5.08474C18.2132 5.08474 13.4065 5.09013 8.5998 5.07397C8.14267 5.07397 7.9425 5.19511 7.76127 5.63118C7.02282 7.40506 5.12125 8.39026 3.29541 8.01341C1.34515 7.60695 -0.00461439 5.97572 0.00620537 4.03225C0.0170251 2.12108 1.36409 0.508698 3.2873 0.107622C5.14289 -0.279996 7.03634 0.72135 7.79102 2.53562C7.9452 2.90708 8.1075 3.04706 8.52136 3.04436C15.868 3.03091 23.2146 3.0336 30.5612 3.0336C30.7181 3.0336 30.875 3.01475 31.113 2.9986C31.113 2.59484 31.0995 2.21529 31.1157 1.83575C31.1698 0.678281 31.8298 0.0403269 32.9957 0.0295597C34.4374 0.0187926 35.8791 0.0187926 37.3209 0.0295597C38.4894 0.0376351 39.1521 0.672898 39.2089 1.82498C39.2278 2.20453 39.2116 2.58945 39.2116 3.0013C39.4902 3.01475 39.6904 3.03091 39.8933 3.03091C47.1722 3.03091 54.4485 3.03091 61.7275 3.0336C62.0765 3.0336 62.3361 3.04436 62.5147 2.6056C63.2071 0.899008 64.7219 -0.0485022 66.4882 0.0322515C68.2086 0.110313 69.6314 1.25971 70.1832 3.00937C70.2156 3.11166 70.2751 3.20856 70.3238 3.30547V4.81018C70.2751 4.90978 70.2156 5.00399 70.1832 5.10628C69.6314 6.85594 68.2086 8.00264 66.4882 8.0834C64.73 8.16415 63.2098 7.21395 62.5147 5.50735C62.3361 5.0659 62.0738 5.08205 61.7248 5.08205C56.9641 5.08474 52.2034 5.08205 47.4427 5.08205C47.2534 5.08205 47.0613 5.08205 46.8693 5.08205C59.734 11.0067 67.1942 20.7752 67.1942 35.0121C67.1942 49.2516 59.7367 59.0336 46.8612 64.9448C48.3787 64.9448 49.8664 64.9313 51.3541 64.9502C52.2386 64.9609 52.7552 65.7119 52.3901 66.4199C52.1358 66.9125 51.6841 67.0013 51.1701 66.9986C47.44 66.9905 43.7072 66.9932 39.9771 66.9932C39.7364 66.9932 39.4956 66.9932 39.2035 66.9932C39.2684 68.2772 39.3036 69.4697 37.9078 70H32.4141C30.9859 69.4697 31.0724 68.2314 31.1049 67.0228H7.97225C7.51512 68.6164 6.34929 69.5074 4.81018 70H3.29812L3.30082 70.0053ZM37.099 6.01879V2.11839H33.231V6.01879H37.099ZM33.2093 67.9111H37.1045V64.0296H33.2093V67.9111ZM6.04634 4.05109C6.04093 2.98515 5.15371 2.09685 4.08255 2.0834C2.98434 2.06994 2.06466 2.97707 2.07007 4.06994C2.07548 5.13589 2.9627 6.02687 4.03386 6.04033C5.12666 6.05379 6.05445 5.13858 6.04904 4.05109H6.04634ZM68.2627 4.04033C68.2518 2.97438 67.3619 2.09147 66.2881 2.0807C65.1899 2.07263 64.2729 2.98515 64.2837 4.07801C64.2945 5.14396 65.1844 6.02956 66.2556 6.04033C67.3484 6.0484 68.2708 5.1305 68.26 4.04033H68.2627ZM6.04634 65.9596C6.03822 64.8936 5.1483 64.008 4.07444 63.9973C2.97352 63.9865 2.05925 64.8963 2.06737 65.9919C2.07548 67.0578 2.96541 67.9461 4.03657 67.9569C5.13207 67.9677 6.05445 67.0498 6.04363 65.9623L6.04634 65.9596Z" fill="white"/>
<path d="M65.5172 70.0053C63.4398 69.1224 63.2964 68.9932 62.2848 66.9986C60.3345 66.9986 58.368 67.0282 56.4042 66.9716C56.0472 66.9609 55.5954 66.6594 55.3899 66.3552C55.2438 66.1372 55.3249 65.5934 55.5143 65.3754C55.7307 65.1278 56.1743 64.977 56.5259 64.969C58.2869 64.9286 60.0478 64.942 61.8087 64.9582C62.163 64.9609 62.3632 64.8963 62.5174 64.5167C63.2125 62.8236 64.7327 61.868 66.4963 61.9515C68.214 62.0322 69.6368 63.1816 70.1859 64.9286C70.2183 65.0309 70.2778 65.1251 70.3265 65.2247V66.7294C70.1588 67.1197 70.0155 67.5235 69.8207 67.8976C69.231 69.0389 68.2005 69.6177 67.0292 70.008H65.5172V70.0053ZM66.2745 67.9541C67.3403 67.9541 68.2437 67.0712 68.2627 66.008C68.2816 64.9178 67.3727 63.9945 66.2745 63.9945C65.2007 63.9945 64.3053 64.872 64.2891 65.938C64.2702 67.0309 65.179 67.9515 66.2772 67.9515L66.2745 67.9541Z" fill="white"/>
<path d="M10.0443 35.0282C10.0334 21.2732 21.3239 10.0296 35.1542 10.0161C48.9738 10.0054 60.2777 21.2409 60.2885 35.004C60.2993 48.7564 49.0062 60.0054 35.1786 60.0161C21.3617 60.0269 10.0551 48.786 10.0443 35.0255V35.0282ZM35.1813 12.0673C22.4951 12.0511 12.1162 22.3634 12.1027 34.9986C12.0865 47.6204 22.4518 57.9515 35.1461 57.9677C47.8269 57.9838 58.2111 47.6662 58.2247 35.0336C58.2382 22.4091 47.8783 12.0807 35.1813 12.0673Z" fill="white"/>
<path d="M20.3122 34.9744C20.3284 31.9542 22.798 29.5316 25.8384 29.5504C28.8571 29.5692 31.3267 32.0618 31.2996 35.0578C31.2726 38.0645 28.7895 40.4952 25.7545 40.4845C22.7331 40.4737 20.2932 38.0026 20.3122 34.9744ZM22.3706 35.0282C22.3761 36.9313 23.9125 38.4495 25.8221 38.4333C27.6886 38.4198 29.2223 36.8936 29.2385 35.039C29.2547 33.1601 27.6967 31.6042 25.8005 31.5989C23.8908 31.5935 22.3652 33.1197 22.3706 35.0255V35.0282Z" fill="white"/>
<path d="M54.811 35.0444C54.8002 38.0565 52.3305 40.4926 49.2902 40.4818C46.2688 40.471 43.8073 37.9973 43.8208 34.9852C43.8343 31.9757 46.312 29.5397 49.347 29.5477C52.3738 29.5558 54.8191 32.0161 54.8083 35.0417L54.811 35.0444ZM52.7525 35.0094C52.7525 33.109 51.2107 31.5908 49.2983 31.5989C47.4265 31.6097 45.8982 33.1251 45.8847 34.9879C45.8711 36.8775 47.413 38.428 49.3118 38.4333C51.2215 38.4387 52.7552 36.9098 52.7525 35.0094Z" fill="white"/>
<path d="M40.51 36.0457C40.0177 36.0457 39.5876 36.0645 39.1575 36.0403C38.4326 35.9999 38.0349 35.6231 38.0376 35.012C38.0376 34.3956 38.438 34.0214 39.1656 34.0053C39.9879 33.9865 40.8129 33.9838 41.6352 34.0053C42.398 34.0268 42.7307 34.4037 42.7361 35.1789C42.7551 38.1426 40.7561 40.4091 38.0593 40.4791C35.0784 40.5571 32.5493 38.296 32.3978 35.405C32.2788 33.1493 33.2012 31.3996 35.1488 30.2799C36.9962 29.2139 38.9059 29.2785 40.7507 30.366C41.3809 30.7375 41.5541 31.335 41.2268 31.8626C40.9184 32.3606 40.3531 32.4629 39.7201 32.1372C39.6173 32.0861 39.5227 32.0241 39.4199 31.973C37.4858 31.004 35.192 31.9891 34.5726 34.0538C33.8801 36.3633 35.8034 38.6729 38.2108 38.4225C39.409 38.2987 40.2936 37.4212 40.5127 36.0457H40.51Z" fill="white"/>
<path d="M17.5748 38.4334C18.2646 38.4334 18.8786 38.4253 19.4926 38.4334C20.231 38.4441 20.7017 38.8506 20.699 39.4562C20.699 40.0619 20.2256 40.4711 19.4872 40.4791C18.5729 40.4899 17.6559 40.4899 16.7417 40.4791C15.8896 40.4684 15.519 40.1104 15.519 39.2759C15.5109 36.4307 15.5136 33.5828 15.519 30.7375C15.519 30 15.9302 29.5451 16.5469 29.5505C17.1636 29.5558 17.5694 30.0081 17.5721 30.751C17.5802 33.0283 17.5748 35.3055 17.5748 37.5828C17.5748 37.8331 17.5748 38.0807 17.5748 38.4334Z" fill="white"/>
</svg>
