<svg width="258" height="81" viewBox="0 0 258 81" fill="none" xmlns="http://www.w3.org/2000/svg">
<g filter="url(#filter0_d_173_523)">
<path d="M132.212 63.3605C127.584 63.1625 124.481 59.9101 122.633 55.8383C120.038 50.121 119.325 42.2187 119.291 35.2223C119.264 29.2136 119.78 21.061 120.761 15.4369C121.192 12.9652 121.433 12.1823 122.212 11.1216C123.256 9.69914 124.281 10.077 125.362 10.0269C127.634 9.91991 128.788 10.7484 128.982 12.9629C129.002 13.2065 128.895 13.8392 128.868 14.3467C127.75 20.4464 127.035 29.3115 127.01 34.8968C126.985 40.778 127.4 46.0401 128.727 50.0573C131.452 58.3123 137.696 56.207 142.472 51.0337C144.944 48.3571 147.71 43.1678 149.404 39.4534C149.451 39.3464 149.606 38.9959 149.645 38.9003C149.513 38.7979 149.267 38.6795 149.144 38.5976C146.715 36.9634 144.771 35.2132 143.385 32.5912C141.998 29.9692 141.45 26.8147 141.402 23.9447C141.354 21.0746 141.896 17.9633 142.913 15.6304C143.931 13.2975 145.158 11.8409 146.993 10.6323C148.828 9.42374 150.653 8.92302 152.709 9.00951C155.222 9.1142 157.039 9.55347 158.707 11.7566C160.376 13.9598 160.938 16.1015 160.918 19.404C160.888 24.2997 159.393 29.9351 158.031 34.8831C157.986 35.047 157.897 35.4681 157.84 35.6365C158.097 35.6456 158.418 35.7048 158.673 35.6911C161.628 35.5432 164.59 34.6783 167.315 33.8157C168.059 33.5813 168.605 33.5153 169.147 33.7497C169.689 33.9841 169.848 34.3005 169.992 34.7762C170.269 35.7048 170.338 36.4718 169.942 37.4368C169.545 38.4041 168.564 38.9321 167.517 39.2963C167.155 39.4215 166.597 39.6058 166.142 39.7379C162.992 40.6483 159.884 41.1581 156.581 40.9874C156.39 40.9783 156.178 40.9237 155.98 40.9214C155.935 40.9965 155.782 41.3311 155.73 41.4335C152.996 46.8231 149.085 53.2095 144.896 57.0924C141.595 60.1513 137.498 63.3127 132.786 63.3696C132.59 63.3719 132.399 63.3696 132.21 63.3605H132.212ZM151.268 14.9772C149.408 15.0546 148.707 15.6668 147.751 17.4057C146.877 18.9966 146.501 21.2476 146.56 23.4644C146.66 27.238 147.762 30.7158 150.901 33.2262C151.102 33.3855 151.416 33.6108 151.632 33.7542C151.705 33.579 151.855 33.0555 151.91 32.8962C153.176 29.2978 154.257 24.3339 154.441 20.9631C154.553 18.9192 154.2 17.6765 153.747 16.6546C153.116 15.2344 152.233 14.9339 151.27 14.9749L151.268 14.9772Z" fill="#50C878"/>
<path d="M170.206 63.1511C167.585 63.1511 165.744 62.2635 164.578 60.4336C163.365 58.5354 162.75 55.9521 162.75 52.7612C162.75 50.8288 163.001 48.3047 163.497 45.2572C163.991 42.2073 164.637 39.3191 165.414 36.6721C165.769 35.4043 166.222 34.5463 166.761 34.1138C167.29 33.6882 168.207 33.472 169.484 33.472C172.147 33.472 172.147 34.5622 172.147 35.0288C172.147 36.0712 171.733 38.5976 170.916 42.5373C169.846 47.4603 169.327 50.7219 169.327 52.5017C169.327 53.9447 169.523 55.0372 169.923 55.8429C170.39 56.7806 171.214 57.2768 172.307 57.2768C173.281 57.2768 174.399 56.6782 175.724 55.4468C176.919 54.3362 178.528 52.5631 180.509 50.1733C180.896 49.7204 181.306 49.4974 181.756 49.4974C182.089 49.4974 182.319 49.6385 182.523 49.9662C182.781 50.3805 182.913 50.9904 182.913 51.7779C182.913 53.3575 182.549 54.582 181.831 55.4173C177.645 60.5565 173.739 63.158 170.208 63.158L170.206 63.1511ZM170.732 27.9163C169.081 27.9163 167.845 27.5476 167.062 26.8193C166.281 26.0955 165.901 25.0895 165.901 23.7444C165.901 22.3992 166.413 21.325 167.467 20.426C168.553 19.4973 169.878 19.0467 171.519 19.0467C172.974 19.0467 174.158 19.3949 175.036 20.0823C175.876 20.74 176.284 21.6573 176.284 22.8909C176.284 24.4522 175.799 25.6494 174.802 26.5507C173.784 27.4702 172.453 27.9163 170.732 27.9163Z" fill="#50C878"/>
<path d="M201.443 63.1511C199.399 63.1511 197.912 62.5935 196.901 61.4464C195.882 60.2925 195.365 58.5559 195.365 56.2867C195.365 55.1077 195.67 52.9455 196.271 49.8547C196.854 47.0325 197.136 45.1183 197.136 44.0168C197.136 42.4099 196.061 42.2847 195.731 42.2847C194.896 42.2847 193.983 43.0517 192.777 44.7747C191.727 46.27 190.646 48.2615 189.562 50.6968C188.481 53.1253 187.595 55.7245 186.931 58.4239C186.364 60.841 185.79 61.8675 185.408 62.3022C184.911 62.8666 184.081 63.1534 182.936 63.1534C181.551 63.1534 180.639 62.457 180.06 60.9662C179.416 59.3047 179.088 56.5621 179.088 52.8135C179.088 47.2214 179.894 41.8386 181.485 36.8132C181.836 35.6866 182.378 34.8945 183.145 34.3893C183.923 33.8772 185.066 33.6154 186.544 33.6154C187.55 33.6154 187.912 33.7725 188.021 33.8407C188.19 33.9454 188.224 34.2618 188.224 34.5076C188.224 34.9446 188.057 36.0894 187.263 39.0551C186.824 40.8144 186.466 42.3689 186.202 43.6913C185.936 45.025 185.71 46.6842 185.535 48.6188C188.517 43.9417 191.761 37.9057 196.699 35.0311C198.313 34.0911 199.799 33.6154 201.113 33.6154C203.59 33.6154 204.696 34.7193 204.696 37.1978C204.696 38.8434 204.216 41.9092 203.266 46.3064C202.417 50.1938 202.005 52.7088 202.005 53.997C202.005 56.8739 203.626 57.3041 204.591 57.3041C205.65 57.3041 206.818 56.7214 208.163 55.5242C209.385 54.4363 211.031 52.6565 213.055 50.2371C213.442 49.7864 213.852 49.5634 214.303 49.5634C214.635 49.5634 214.865 49.7022 215.07 50.03C215.327 50.4419 215.459 51.0496 215.459 51.8326C215.459 53.4053 215.095 54.6229 214.378 55.4537C212.531 57.7274 210.537 59.6028 208.438 61.0458C206.399 62.4456 204.045 63.1557 201.441 63.1557L201.443 63.1511Z" fill="#50C878"/>
<path d="M223.101 63.1511C219.117 63.1511 215.996 61.9562 213.824 59.5983C211.637 57.2267 210.526 53.9492 210.526 49.857C210.526 46.9551 211.143 44.2193 212.361 41.7248C213.572 39.244 215.27 37.2456 217.414 35.789C219.543 34.3437 221.985 33.6108 224.676 33.6108C227.048 33.6108 228.888 34.2868 230.301 35.6775C231.71 37.0658 232.396 38.9139 232.396 41.3265C232.396 44.1829 231.399 46.5681 229.347 48.6188C227.28 50.6854 223.668 52.356 218.61 53.5896L217.763 53.7967L218.166 54.5706C219.338 56.817 221.33 57.955 224.087 57.955C226.019 57.955 227.642 57.493 228.915 56.5803C229.682 56.0295 230.37 55.3763 231.018 54.6912C231.437 54.2474 231.838 53.7899 232.229 53.321C232.819 52.6132 233.372 51.4957 234.458 51.63C235.86 51.8029 236.225 53.387 235.91 54.5455C235.075 57.609 232.68 60.1923 229.907 61.6535C228.025 62.6458 225.737 63.1488 223.105 63.1488L223.101 63.1511ZM223.559 38.6772C221.69 38.6772 220.112 39.7401 218.869 41.834C217.694 43.8142 217.1 46.2267 217.1 49.0057V50.0004L217.94 49.8001C220.611 49.1673 222.757 48.1932 224.321 46.9073C225.967 45.553 226.802 43.9394 226.802 42.1163C226.802 41.1148 226.511 40.2864 225.935 39.6559C225.341 39.0072 224.542 38.6795 223.561 38.6795L223.559 38.6772Z" fill="#50C878"/>
<path d="M48.2978 33.2354H41.3365V62.812H48.2978V33.2354Z" fill="white"/>
<path d="M44.8172 19.2402C43.6289 19.2402 42.5976 19.6772 41.7485 20.5375C40.9063 21.3933 40.4783 22.4266 40.4783 23.6056C40.4783 24.7845 40.9085 25.8201 41.7554 26.6668C42.6022 27.5135 43.6312 27.9413 44.8172 27.9413C46.0032 27.9413 47.0299 27.5135 47.8858 26.6713C48.7463 25.8247 49.1811 24.7914 49.1811 23.6056C49.1811 22.4198 48.7463 21.3864 47.8904 20.5307C47.0344 19.6749 45.9986 19.2402 44.8149 19.2402H44.8172Z" fill="white"/>
<path d="M83.3755 33.2354H74.8411L68.2713 42.4304L61.4921 33.2354H53.0397L63.937 47.4513L52.1223 62.812H60.5496L68.0664 52.5882L75.7449 62.812H84.2291L72.353 47.4536L83.3755 33.2354Z" fill="white"/>
<path d="M98.4546 63.4061C94.077 63.4061 90.5281 61.9472 87.9079 59.0726C85.3036 56.2162 83.9833 52.4039 83.9833 47.7426C83.9833 43.3841 85.381 39.7061 88.1355 36.811C90.8991 33.9045 94.3525 32.4319 98.3954 32.4319C102.438 32.4319 105.953 33.7862 108.562 36.4559C111.166 39.1211 112.489 42.6558 112.489 46.9597V49.3154H90.1707L90.2458 49.8434C90.5576 52.067 91.3476 53.8469 92.5928 55.1374C94.0725 56.6691 96.0074 57.4134 98.5138 57.4134C100.421 57.4134 102.056 57.0378 103.369 56.2959C103.795 56.0546 104.107 55.8247 104.303 55.67C105.409 54.8119 106.263 53.6989 106.848 52.3561L112.059 55.0941C111.257 56.8011 109.55 59.571 106.329 61.4647C103.026 63.4061 99.8227 63.4061 98.4546 63.4061ZM98.3977 38.3655C96.1964 38.3655 94.3912 38.9846 92.8751 40.2546C91.7027 41.2378 90.9287 42.4486 90.5076 43.9531L90.3437 44.5426H106.265L106.128 43.9713C105.751 42.3917 105.027 41.1559 103.911 40.1886C102.495 38.9618 100.69 38.3655 98.3977 38.3655Z" fill="white"/>
<path d="M27.3045 16.0515C24.2837 14.7042 20.6369 14.0305 16.3617 14.0305H5V62.8121H11.9705V48.0385H16.3617C20.6369 48.0385 24.2837 47.3535 27.3045 45.9833C30.3254 44.6131 32.6473 42.6626 34.275 40.1294C35.9004 37.5985 36.7153 34.5669 36.7153 31.0345C36.7153 27.5021 35.9026 24.4614 34.275 21.9054C32.6473 19.3518 30.3254 17.3989 27.3045 16.0515ZM26.2938 39.1166C23.9946 41.0216 20.6141 41.973 16.1523 41.973H11.9705V20.0915H16.1523C20.6141 20.0915 23.9946 21.0451 26.2938 22.9478C28.593 24.8529 29.7449 27.5477 29.7449 31.0322C29.7449 34.5168 28.5953 37.2116 26.2938 39.1166Z" fill="white"/>
</g>
<defs>
<filter id="filter0_d_173_523" x="0" y="0" width="257.015" height="80.4061" filterUnits="userSpaceOnUse" color-interpolation-filters="sRGB">
<feFlood flood-opacity="0" result="BackgroundImageFix"/>
<feColorMatrix in="SourceAlpha" type="matrix" values="0 0 0 0 0 0 0 0 0 0 0 0 0 0 0 0 0 0 127 0" result="hardAlpha"/>
<feOffset dx="8" dy="4"/>
<feGaussianBlur stdDeviation="6.5"/>
<feComposite in2="hardAlpha" operator="out"/>
<feColorMatrix type="matrix" values="0 0 0 0 0 0 0 0 0 0 0 0 0 0 0 0 0 0 0.78 0"/>
<feBlend mode="normal" in2="BackgroundImageFix" result="effect1_dropShadow_173_523"/>
<feBlend mode="normal" in="SourceGraphic" in2="effect1_dropShadow_173_523" result="shape"/>
</filter>
</defs>
</svg>
