<svg width="232" height="55" viewBox="0 0 232 55" fill="none" xmlns="http://www.w3.org/2000/svg">
<path d="M127.212 54.3605C122.584 54.1625 119.481 50.9101 117.633 46.8383C115.037 41.121 114.325 33.2187 114.291 26.2223C114.264 20.2136 114.78 12.061 115.761 6.43695C116.192 3.9652 116.433 3.18226 117.211 2.12164C118.256 0.699136 119.281 1.07695 120.362 1.02688C122.634 0.919908 123.788 1.74837 123.982 3.96293C124.002 4.20646 123.895 4.83919 123.868 5.34674C122.75 11.4464 122.035 20.3115 122.01 25.8968C121.985 31.778 122.399 37.0401 123.727 41.0573C126.452 49.3123 132.696 47.207 137.472 42.0337C139.944 39.3571 142.71 34.1678 144.404 30.4534C144.451 30.3464 144.606 29.9959 144.645 29.9003C144.513 29.7979 144.267 29.6795 144.144 29.5976C141.715 27.9634 139.771 26.2132 138.385 23.5912C136.998 20.9692 136.45 17.8147 136.402 14.9447C136.354 12.0746 136.896 8.96331 137.913 6.63041C138.931 4.2975 140.158 2.84086 141.993 1.6323C143.828 0.423739 145.653 -0.0769819 147.709 0.00950629C150.222 0.114203 152.039 0.553472 153.707 2.75664C155.376 4.95982 155.938 7.10154 155.918 10.404C155.888 15.2997 154.393 20.9351 153.031 25.8831C152.986 26.047 152.897 26.4681 152.84 26.6365C153.097 26.6456 153.418 26.7048 153.673 26.6911C156.628 26.5432 159.59 25.6783 162.315 24.8157C163.059 24.5813 163.605 24.5153 164.147 24.7497C164.689 24.9841 164.848 25.3005 164.992 25.7762C165.269 26.7048 165.338 27.4718 164.942 28.4368C164.545 29.4041 163.564 29.9321 162.517 30.2963C162.155 30.4215 161.597 30.6058 161.142 30.7379C157.992 31.6483 154.884 32.1581 151.581 31.9874C151.39 31.9783 151.178 31.9237 150.98 31.9214C150.935 31.9965 150.782 32.3311 150.73 32.4335C147.996 37.8231 144.085 44.2095 139.896 48.0924C136.595 51.1513 132.498 54.3127 127.786 54.3696C127.59 54.3719 127.399 54.3696 127.21 54.3605H127.212ZM146.268 5.97719C144.408 6.05458 143.707 6.66682 142.751 8.40569C141.877 9.99662 141.501 12.2476 141.56 14.4644C141.66 18.238 142.762 21.7158 145.901 24.2262C146.102 24.3855 146.416 24.6108 146.632 24.7542C146.705 24.579 146.855 24.0555 146.91 23.8962C148.176 20.2978 149.257 15.3339 149.441 11.9631C149.553 9.91923 149.2 8.67653 148.747 7.65461C148.116 6.23438 147.233 5.93395 146.27 5.97492L146.268 5.97719Z" fill="white"/>
<path d="M165.206 54.1511C162.585 54.1511 160.744 53.2634 159.578 51.4335C158.365 49.5354 157.75 46.9521 157.75 43.7611C157.75 41.8288 158.001 39.3047 158.497 36.2571C158.991 33.2073 159.637 30.319 160.414 27.672C160.769 26.4043 161.222 25.5463 161.761 25.1138C162.29 24.6882 163.207 24.472 164.484 24.472C167.147 24.472 167.147 25.5622 167.147 26.0288C167.147 27.0712 166.733 29.5975 165.916 33.5373C164.846 38.4603 164.327 41.7218 164.327 43.5017C164.327 44.9446 164.523 46.0371 164.923 46.8428C165.39 47.7806 166.214 48.2767 167.307 48.2767C168.281 48.2767 169.399 47.6781 170.724 46.4468C171.919 45.3361 173.528 43.5631 175.509 41.1733C175.896 40.7204 176.306 40.4973 176.756 40.4973C177.089 40.4973 177.319 40.6384 177.523 40.9662C177.781 41.3804 177.913 41.9904 177.913 42.7779C177.913 44.3574 177.548 45.5819 176.831 46.4172C172.645 51.5564 168.739 54.1579 165.208 54.1579L165.206 54.1511ZM165.732 18.9163C164.081 18.9163 162.845 18.5475 162.062 17.8192C161.281 17.0954 160.901 16.0895 160.901 14.7443C160.901 13.3992 161.413 12.3249 162.467 11.4259C163.553 10.4973 164.878 10.0467 166.519 10.0467C167.974 10.0467 169.158 10.3949 170.036 11.0822C170.876 11.74 171.284 12.6572 171.284 13.8908C171.284 15.4522 170.799 16.6494 169.802 17.5507C168.784 18.4702 167.452 18.9163 165.732 18.9163Z" fill="white"/>
<path d="M196.443 54.1511C194.399 54.1511 192.912 53.5935 191.901 52.4464C190.882 51.2925 190.365 49.5559 190.365 47.2867C190.365 46.1077 190.67 43.9455 191.271 40.8547C191.854 38.0325 192.136 36.1183 192.136 35.0168C192.136 33.4099 191.061 33.2847 190.731 33.2847C189.896 33.2847 188.983 34.0517 187.777 35.7747C186.727 37.27 185.646 39.2615 184.562 41.6968C183.481 44.1253 182.595 46.7245 181.931 49.4239C181.364 51.841 180.79 52.8675 180.408 53.3022C179.911 53.8666 179.081 54.1534 177.936 54.1534C176.551 54.1534 175.639 53.457 175.06 51.9662C174.416 50.3047 174.088 47.5621 174.088 43.8135C174.088 38.2214 174.894 32.8386 176.485 27.8132C176.836 26.6866 177.378 25.8945 178.145 25.3893C178.923 24.8772 180.066 24.6154 181.544 24.6154C182.55 24.6154 182.912 24.7725 183.021 24.8407C183.19 24.9454 183.224 25.2618 183.224 25.5076C183.224 25.9446 183.057 27.0894 182.263 30.0551C181.824 31.8144 181.466 33.3689 181.202 34.6913C180.936 36.025 180.71 37.6842 180.535 39.6188C183.517 34.9417 186.761 28.9057 191.699 26.0311C193.313 25.0911 194.799 24.6154 196.113 24.6154C198.59 24.6154 199.696 25.7193 199.696 28.1978C199.696 29.8434 199.216 32.9092 198.266 37.3064C197.417 41.1938 197.005 43.7088 197.005 44.997C197.005 47.8739 198.626 48.3041 199.591 48.3041C200.65 48.3041 201.818 47.7214 203.163 46.5242C204.385 45.4363 206.031 43.6565 208.055 41.2371C208.442 40.7864 208.852 40.5634 209.303 40.5634C209.635 40.5634 209.865 40.7022 210.07 41.03C210.327 41.4419 210.459 42.0496 210.459 42.8326C210.459 44.4053 210.095 45.6229 209.378 46.4537C207.531 48.7274 205.537 50.6028 203.438 52.0458C201.399 53.4456 199.045 54.1557 196.441 54.1557L196.443 54.1511Z" fill="white"/>
<path d="M218.101 54.1511C214.117 54.1511 210.996 52.9562 208.824 50.5983C206.637 48.2267 205.526 44.9493 205.526 40.857C205.526 37.9551 206.143 35.2193 207.361 32.7248C208.572 30.244 210.27 28.2457 212.414 26.789C214.543 25.3437 216.985 24.6109 219.676 24.6109C222.048 24.6109 223.888 25.2868 225.301 26.6775C226.71 28.0658 227.396 29.914 227.396 32.3265C227.396 35.1829 226.399 37.5682 224.347 39.6188C222.28 41.6855 218.668 43.356 213.609 44.5896L212.763 44.7968L213.166 45.5706C214.338 47.817 216.33 48.955 219.087 48.955C221.019 48.955 222.642 48.493 223.915 47.5803C224.682 47.0295 225.37 46.3763 226.018 45.6912C226.437 45.2474 226.838 44.7899 227.229 44.3211C227.819 43.6132 228.372 42.4957 229.458 42.63C230.86 42.803 231.225 44.3871 230.91 45.5456C230.075 48.6091 227.68 51.1923 224.907 52.6535C223.025 53.6459 220.737 54.1489 218.105 54.1489L218.101 54.1511ZM218.558 29.6773C216.69 29.6773 215.112 30.7402 213.869 32.8341C212.694 34.8142 212.1 37.2268 212.1 40.0058V41.0004L212.94 40.8001C215.61 40.1674 217.757 39.1932 219.321 37.9073C220.967 36.5531 221.802 34.9394 221.802 33.1163C221.802 32.1149 221.511 31.2864 220.935 30.6559C220.341 30.0073 219.542 29.6795 218.561 29.6795L218.558 29.6773Z" fill="white"/>
<path d="M43.2978 24.2354H36.3365V53.812H43.2978V24.2354Z" fill="white"/>
<path d="M39.8172 10.2402C38.6289 10.2402 37.5976 10.6772 36.7485 11.5375C35.9062 12.3933 35.4783 13.4266 35.4783 14.6056C35.4783 15.7845 35.9085 16.8201 36.7554 17.6668C37.6022 18.5135 38.6311 18.9413 39.8172 18.9413C41.0032 18.9413 42.0299 18.5135 42.8858 17.6713C43.7463 16.8247 44.1811 15.7914 44.1811 14.6056C44.1811 13.4198 43.7463 12.3864 42.8904 11.5307C42.0344 10.6749 40.9986 10.2402 39.8149 10.2402H39.8172Z" fill="white"/>
<path d="M78.3755 24.2354H69.8411L63.2713 33.4304L56.4921 24.2354H48.0397L58.937 38.4513L47.1223 53.812H55.5496L63.0664 43.5882L70.7448 53.812H79.2291L67.353 38.4536L78.3755 24.2354Z" fill="white"/>
<path d="M93.4546 54.4061C89.077 54.4061 85.528 52.9472 82.9079 50.0726C80.3036 47.2162 78.9833 43.4039 78.9833 38.7426C78.9833 34.3841 80.381 30.706 83.1355 27.8109C85.8991 24.9045 89.3524 23.4319 93.3954 23.4319C97.4384 23.4319 100.953 24.7861 103.562 27.4559C106.166 30.1211 107.489 33.6557 107.489 37.9597V40.3153H85.1706L85.2458 40.8434C85.5576 43.067 86.3476 44.8468 87.5928 46.1373C89.0724 47.6691 91.0074 48.4133 93.5138 48.4133C95.4214 48.4133 97.0559 48.0378 98.3694 47.2958C98.7951 47.0546 99.107 46.8247 99.3028 46.6699C100.409 45.8119 101.263 44.6989 101.848 43.3561L107.059 46.0941C106.257 47.8011 104.55 50.571 101.329 52.4646C98.0257 54.4061 94.8227 54.4061 93.4546 54.4061ZM93.3977 29.3655C91.1964 29.3655 89.3911 29.9845 87.875 31.2545C86.7027 32.2378 85.9287 33.4486 85.5075 34.9531L85.3436 35.5425H101.265L101.128 34.9713C100.751 33.3917 100.027 32.1558 98.9112 31.1885C97.4953 29.9618 95.6901 29.3655 93.3977 29.3655Z" fill="white"/>
<path d="M22.3045 7.05155C19.2837 5.70415 15.6369 5.03046 11.3617 5.03046H0V53.8121H6.97045V39.0385H11.3617C15.6369 39.0385 19.2837 38.3535 22.3045 36.9833C25.3254 35.6131 27.6473 33.6626 29.275 31.1294C30.9004 28.5985 31.7153 25.5669 31.7153 22.0345C31.7153 18.5021 30.9026 15.4614 29.275 12.9054C27.6473 10.3518 25.3254 8.39894 22.3045 7.05155ZM21.2938 30.1166C18.9946 32.0216 15.6141 32.973 11.1523 32.973H6.97045V11.0915H11.1523C15.6141 11.0915 18.9946 12.0451 21.2938 13.9478C23.593 15.8529 24.7449 18.5477 24.7449 22.0322C24.7449 25.5168 23.5953 28.2116 21.2938 30.1166Z" fill="white"/>
</svg>
