<svg width="67" height="68" viewBox="0 0 67 68" fill="none" xmlns="http://www.w3.org/2000/svg">
<path d="M52.7658 42.1952C53.7856 43.1535 54.808 44.1091 55.8873 45.1212C56.7799 44.1548 57.7727 43.3257 59.2198 43.4765C60.0205 43.5599 60.7237 43.8722 61.2755 44.4644C62.0086 45.2504 62.3981 46.2302 62.0816 47.2288C61.7922 48.144 61.1701 48.9516 60.621 49.9341C61.1078 50.4078 61.7489 51.0189 62.3738 51.6434C63.0554 52.3244 63.0662 52.8547 62.4035 53.5169C60.2396 55.6784 58.0702 57.8372 55.8981 59.9906C55.2516 60.6313 54.6998 60.642 54.0696 59.9987C53.626 59.5492 53.2311 59.0512 52.8118 58.5747C52.7415 58.6205 52.6738 58.6689 52.6035 58.7147C52.5927 58.93 52.5711 59.1454 52.5711 59.358C52.5711 61.7726 52.571 64.1871 52.5683 66.6016C52.5683 67.5788 52.2248 67.9314 51.2592 67.9314C39.425 67.9341 27.5936 67.9341 15.7595 67.9314C14.7371 67.9314 14.4449 67.5788 14.4449 66.3971C14.4449 54.0283 14.4503 41.6622 14.426 29.2934C14.426 28.7362 14.261 28.1144 13.9824 27.6326C10.2496 21.1588 6.48428 14.7039 2.72712 8.24633C2.15367 7.26114 1.57752 6.28132 1.01489 5.29075C0.306195 4.03906 0.457676 2.95427 1.46662 1.94216C2.27269 1.13462 3.21671 0.558578 4.32303 0.251714C5.8946 -0.181664 6.91978 0.222104 7.73667 1.62453C10.5011 6.36746 13.2574 11.1158 16.0192 15.8614C16.1571 16.0956 16.3005 16.3271 16.452 16.5801C16.5196 16.5317 16.5818 16.5074 16.6143 16.4617C18.3373 13.9395 20.0631 11.4173 21.7645 8.88159C21.9268 8.63664 21.9944 8.2894 22.0025 7.98792C22.0296 6.782 22.0025 5.57338 22.016 4.36746C22.0458 1.83179 23.7445 0.111741 26.2817 0.100974C31.0424 0.082131 35.8031 0.0794392 40.5638 0.100974C43.0145 0.111741 44.7403 1.8291 44.8052 4.27056C44.8349 5.43072 44.7808 6.59626 44.8295 7.75373C44.8457 8.1575 44.9729 8.61241 45.2001 8.9435C47.4695 12.2517 49.7633 15.5465 52.0706 18.8278C52.4304 19.3419 52.5765 19.856 52.5765 20.4751C52.5629 27.4684 52.5683 34.459 52.5683 41.4523C52.5683 41.7241 52.5683 41.996 52.5683 42.2706C52.6333 42.2436 52.6982 42.2167 52.7631 42.1898L52.7658 42.1952ZM43.8503 10.7632C41.7161 13.8722 39.6333 16.8924 37.5776 19.9341C37.3936 20.2086 37.3449 20.6178 37.3422 20.965C37.3314 35.6568 37.3314 50.3513 37.3314 65.0431V65.778H50.4558C50.4558 62.712 50.4639 59.7053 50.4396 56.7012C50.4396 56.4724 50.2313 56.2086 50.05 56.0283C48.4758 54.4401 46.8826 52.8654 45.2975 51.2854C44.5103 50.4994 44.5049 50.0418 45.2785 49.2692C46.8474 47.7053 48.4109 46.136 49.9932 44.5882C50.3287 44.2598 50.4666 43.926 50.4639 43.4549C50.4504 36.0983 50.445 28.7389 50.4693 21.3823C50.4693 20.5909 50.3043 19.9395 49.8093 19.3123C49.1899 18.5263 48.657 17.6703 48.0836 16.8493C46.6905 14.8493 45.2975 12.8493 43.8449 10.7658L43.8503 10.7632ZM35.2026 21.0727H19.0623C20.2957 23.1938 21.4886 25.2315 22.6679 27.28C22.8221 27.5465 22.9709 27.8533 22.9952 28.1521C23.1684 30.1925 23.3009 32.2356 23.4632 34.2786C23.5065 34.8116 23.4632 35.2934 22.933 35.5707C22.4164 35.8399 21.9728 35.6434 21.54 35.3284C20.0982 34.2813 18.6484 33.2504 17.1986 32.214C17.0227 32.0875 16.8334 31.9825 16.6008 31.8345V65.7807H35.2026V21.0727ZM41.781 10.0095C41.6025 9.97715 41.5565 9.961 41.5133 9.961C35.7003 9.961 29.8901 9.95293 24.0772 9.97446C23.8257 9.97446 23.4902 10.1925 23.3388 10.4078C21.5481 12.9946 19.7845 15.5976 18.0181 18.2006C17.8991 18.3755 17.8045 18.5667 17.6719 18.8008C17.8721 18.8224 17.9613 18.8412 18.0506 18.8412C23.7932 18.8412 29.5385 18.8493 35.2811 18.8251C35.5326 18.8251 35.868 18.607 36.0195 18.389C37.7534 15.9018 39.4602 13.3984 41.1751 10.8977C41.3645 10.6232 41.5538 10.3459 41.7837 10.0095H41.781ZM42.6629 7.7968C42.6629 6.5855 42.6764 5.43072 42.6602 4.27325C42.6439 3.08079 41.8541 2.21672 40.6504 2.20865C35.8248 2.18173 30.9992 2.18711 26.1708 2.20595C25.2025 2.20865 24.3423 2.77661 24.2584 3.65683C24.1313 5.01887 24.226 6.39976 24.226 7.7968H42.6629ZM17.488 29.3769C18.5077 28.7928 19.4409 28.2544 20.3877 27.7134C16.0949 20.2867 11.8536 12.9435 7.58248 5.55454C6.57084 6.13328 5.61058 6.68509 4.61787 7.25575C8.91602 14.642 13.1817 21.9772 17.4907 29.3796L17.488 29.3769ZM55.7953 48.1521C54.946 49.0189 54.1318 49.8776 53.2879 50.7039C52.7144 51.2665 51.9597 51.2046 51.5892 50.5909C51.2727 50.066 51.3998 49.5895 51.8218 49.175C52.663 48.3486 53.507 47.5222 54.3184 46.7255C53.7207 46.1117 53.1824 45.5572 52.6197 44.9785C50.8669 46.7578 49.1304 48.5236 47.429 50.2517C49.9391 52.7443 52.4764 55.2638 54.9135 57.6864C56.6204 55.9825 58.384 54.2221 60.1395 52.4724C58.7762 51.1185 57.3372 49.6864 55.7953 48.1521ZM3.55212 5.41188C4.53672 4.8466 5.48075 4.30555 6.48428 3.72682C6.27329 3.35804 6.06502 3.03772 5.90272 2.69317C5.68632 2.24095 5.35362 2.06329 4.91001 2.30555C4.23919 2.67163 3.57917 3.06463 2.95163 3.5007C2.81909 3.59223 2.75417 3.961 2.8245 4.13058C3.00843 4.56396 3.28434 4.95696 3.55212 5.41188ZM58.9601 48.1952C59.4362 47.6864 60.2314 47.3257 59.9637 46.4455C59.8663 46.1225 59.4903 45.7457 59.1657 45.6514C58.292 45.4011 57.9079 46.1467 57.3994 46.6663C57.9295 47.1858 58.43 47.6757 58.9601 48.1952ZM19.0974 30.957C19.8061 31.4603 20.4364 31.9072 21.1748 32.4294C21.0991 31.5276 21.0369 30.7712 20.9665 29.9314C20.3201 30.2867 19.7682 30.5882 19.0974 30.957Z" fill="white"/>
<path d="M55.6357 21.0323C55.6357 14.8358 55.6357 8.63933 55.6357 2.44552C55.6357 1.11577 55.9198 0.830444 57.2371 0.830444C59.9826 0.830444 62.7308 0.830444 65.4763 0.830444C66.5691 0.830444 66.937 1.18576 66.937 2.2544C66.937 14.8062 66.937 27.358 66.937 39.9072C66.937 40.992 66.5826 41.3473 65.4979 41.35C62.7281 41.3553 59.9582 41.3527 57.1884 41.35C55.9414 41.35 55.6384 41.0539 55.6357 39.8237C55.6357 33.5599 55.6357 27.2961 55.6357 21.0323ZM57.7943 12.2867C58.6572 12.2867 59.4767 12.2867 60.2936 12.2867C61.2458 12.2867 61.7435 12.6582 61.7354 13.3527C61.7273 14.0391 61.235 14.3917 60.2666 14.3944C59.447 14.3971 58.6301 14.3944 57.8159 14.3944V16.1037C58.3975 16.1037 58.9222 16.0875 59.447 16.1064C60.1232 16.1306 60.556 16.5532 60.556 17.1562C60.556 17.7645 60.1368 18.1736 59.447 18.2006C58.906 18.2221 58.3623 18.206 57.8024 18.206V20.031C58.7086 20.031 59.5714 20.0229 60.437 20.031C61.2674 20.0391 61.7516 20.4455 61.7381 21.0996C61.7273 21.7537 61.2458 22.1279 60.3991 22.1333C59.539 22.1387 58.6761 22.1333 57.8051 22.1333V23.9341C58.3515 23.9341 58.8519 23.9233 59.3523 23.9368C60.0962 23.9583 60.5371 24.3513 60.5533 24.9731C60.5696 25.6245 60.107 26.0471 59.3388 26.066C58.8249 26.0794 58.3082 26.066 57.8105 26.066V27.743C58.7735 27.743 59.6877 27.716 60.602 27.751C61.4757 27.7833 61.9761 28.537 61.6353 29.2504C61.3973 29.751 60.9618 29.8883 60.4451 29.8856C59.5633 29.8802 58.6815 29.8856 57.8132 29.8856V31.6837C58.3704 31.6837 58.8709 31.6757 59.374 31.6837C60.1016 31.6999 60.5533 32.109 60.556 32.7309C60.556 33.3607 60.1286 33.7618 59.3848 33.7887C58.8654 33.8076 58.3434 33.7914 57.8159 33.7914V35.5034C58.8059 35.5034 59.7418 35.4872 60.6778 35.5088C61.3026 35.5222 61.73 35.9637 61.7408 36.5343C61.7516 37.105 61.3378 37.5411 60.7129 37.5922C60.4181 37.6165 60.1178 37.6057 59.8203 37.6057C59.144 37.6057 58.4705 37.6057 57.7943 37.6057V39.1696H64.7487V3.01349H57.797V4.49397C58.0513 4.50743 58.2731 4.52627 58.4949 4.52627C59.1819 4.53166 59.869 4.51281 60.5533 4.53435C61.2837 4.55857 61.7354 4.98118 61.7381 5.5976C61.7381 6.21672 61.2836 6.63664 60.5641 6.66894C60.2909 6.6824 60.015 6.67163 59.7418 6.67163C59.0899 6.67163 58.4381 6.67163 57.8186 6.67163V8.34861C58.3758 8.34861 58.879 8.33246 59.3821 8.35131C60.1124 8.37822 60.556 8.79007 60.556 9.41456C60.556 10.0364 60.1124 10.459 59.3875 10.4859C58.8681 10.5047 58.3488 10.4886 57.797 10.4886V12.284L57.7943 12.2867Z" fill="white"/>
<path d="M1.9968 61.2773C2.34573 55.14 2.69467 49.0027 3.04361 42.8654C3.05984 42.5936 3.05984 42.319 3.08959 42.0471C3.23566 40.712 3.16533 39.5438 2.20778 38.3513C1.07982 36.9489 1.13933 35.1777 2.02385 33.5734C3.32763 31.2073 4.38526 28.7578 5.0074 26.1198C5.08584 25.786 5.51052 25.3796 5.84593 25.2988C6.14888 25.2261 6.72503 25.4495 6.88192 25.716C8.513 28.5074 10.1414 31.3123 11.0502 34.4401C11.5615 36.2005 11.0259 37.7483 9.86277 39.1319C9.64367 39.3903 9.48137 39.8022 9.4976 40.1333C9.72211 44.5451 9.9872 48.9543 10.2361 53.3634C10.3956 56.1602 10.566 58.9543 10.6932 61.751C10.7879 63.8856 9.36235 65.6999 7.31742 66.1333C5.21838 66.5801 3.095 65.5787 2.34303 63.6757C2.05089 62.9354 2.01573 62.0929 1.86426 61.2988C1.90754 61.2907 1.95352 61.2827 1.9968 61.2719V61.2773ZM5.31306 40.7228C5.29683 40.9462 5.28059 41.1211 5.26978 41.2988C5.0101 45.7537 4.75043 50.2059 4.49617 54.6608C4.36092 57.0242 4.22567 59.3876 4.10124 61.751C4.03632 62.9704 4.79912 63.9287 5.9406 64.0848C7.18758 64.2571 8.2966 63.5491 8.53193 62.3863C8.60767 62.0148 8.57792 61.6164 8.55628 61.2315C8.19922 54.8896 7.83947 48.5505 7.4743 42.2086C7.44455 41.6972 7.38504 41.1884 7.34447 40.7201H5.31576L5.31306 40.7228ZM6.38151 29.1211C6.17593 29.6595 6.06232 30.031 5.89732 30.3782C5.2265 31.7968 4.54485 33.21 3.8632 34.6232C3.33574 35.716 3.54944 37 4.40149 37.8399C5.2806 38.7093 6.35987 38.887 7.4175 38.3405C8.52652 37.7645 9.32178 36.4294 9.07834 35.3634C8.58063 33.1723 7.46619 31.2396 6.38151 29.1185V29.1211Z" fill="white"/>
<path d="M44.3805 61.7807C43.2742 61.7107 42.2084 61.175 41.5268 60.0283C40.8722 58.9274 40.9236 57.7834 41.6269 56.7417C42.2463 55.8211 42.9604 54.957 43.6907 54.1199C44.1587 53.5842 44.8025 53.56 45.2488 54.0903C46.0657 55.062 46.9421 56.0283 47.529 57.1347C48.63 59.21 46.9556 61.7592 44.3778 61.7834L44.3805 61.7807ZM44.4968 56.3056C44.0857 56.9005 43.7259 57.3904 43.4013 57.9018C43.0443 58.4617 43.212 58.9436 43.6989 59.3366C44.2074 59.7457 44.8133 59.7726 45.265 59.385C45.7276 58.9893 45.9277 58.5048 45.5815 57.9368C45.265 57.4173 44.908 56.9193 44.4968 56.3029V56.3056Z" fill="white"/>
<path d="M25.8922 62.206C24.7697 62.206 23.6498 62.2168 22.5273 62.2033C21.8294 62.1952 21.3777 61.8372 21.3804 61.2047C21.3885 59.6084 20.7204 58.2464 19.9657 56.914C19.5951 56.2598 19.1867 55.6273 18.7404 55.0216C18.3157 54.4456 18.3022 53.9395 18.716 53.3419C20.8205 50.3056 22.8978 47.2531 24.9888 44.2087C25.5135 43.4442 26.3791 43.4469 26.9012 44.2195C28.9596 47.2585 31.0019 50.3083 33.0711 53.3393C33.4796 53.9368 33.4606 54.4402 33.0414 55.0189C31.981 56.4833 31.0424 58.0176 30.5772 59.7861C30.469 60.1979 30.4527 60.6394 30.423 61.0674C30.3716 61.813 30.0118 62.1926 29.2545 62.2033C28.1319 62.2195 27.0121 62.2087 25.8895 62.2087L25.8922 62.206ZM27.004 48.2087C27.004 48.6421 27.004 48.8574 27.004 49.0728C27.004 50.1414 27.0202 51.2127 26.9931 52.2814C26.9769 52.8978 26.5171 53.3043 25.9301 53.2962C25.3675 53.2881 24.959 52.9086 24.9049 52.3137C24.8806 52.0418 24.8914 51.7672 24.8914 51.4954C24.8914 50.4617 24.8914 49.4281 24.8914 48.3568C24.7643 48.4079 24.7075 48.4133 24.6885 48.4429C23.4443 50.241 22.1946 52.0364 20.9746 53.8507C20.8746 53.9987 20.8989 54.3352 21.0017 54.4967C22.1161 56.2275 23.0845 58.0176 23.4686 60.0795H28.3213C28.7027 58.0122 29.6791 56.2249 30.7855 54.4886C30.8991 54.311 30.8693 53.9207 30.7449 53.7323C29.8144 52.3002 28.846 50.8924 27.8885 49.4765C27.6396 49.1078 27.3826 48.7444 27.0067 48.2033L27.004 48.2087Z" fill="white"/>
<path d="M31.037 41.3365C32.3679 42.8143 33.082 44.3567 33.1685 46.1521C33.2145 47.0673 32.8656 47.541 32.1704 47.568C31.4969 47.5949 31.1425 47.1965 31.0478 46.3136C30.7828 43.7887 29.3059 42.0175 27.0094 41.4711C23.9528 40.7443 20.8827 42.9704 20.6501 46.0821C20.6338 46.2867 20.6311 46.4939 20.5878 46.6931C20.4607 47.2907 20.0847 47.5949 19.4653 47.5626C18.8864 47.533 18.4834 47.0969 18.4915 46.4563C18.5104 44.9112 18.9757 43.5034 19.8873 42.249C20.0847 41.9798 20.2957 41.7214 20.596 41.3365C19.9332 41.3365 19.395 41.3499 18.8567 41.3338C18.0722 41.3069 17.6259 40.8923 17.6449 40.2382C17.6638 39.6164 18.1101 39.2153 18.854 39.2153C23.547 39.21 28.2374 39.21 32.9305 39.2153C33.6689 39.2153 34.118 39.6218 34.1369 40.2436C34.1558 40.8923 33.7014 41.3096 32.9197 41.3338C32.3516 41.3526 31.7836 41.3365 31.037 41.3365Z" fill="white"/>
</svg>
