<svg width="565" height="139" viewBox="0 0 565 139" fill="none" xmlns="http://www.w3.org/2000/svg">
<g filter="url(#filter0_d_137_369)">
<path d="M56.0305 120.343C51.0449 120.343 46.1217 119.593 41.398 118.111C36.6681 116.625 32.1771 114.435 28.054 111.6C21.1753 106.83 15.8468 100.883 12.2183 93.925C8.58772 86.9672 6.74854 79.2094 6.74854 70.8634C6.74854 63.5711 7.97882 56.8586 10.4082 50.9067C12.8314 44.9672 16.5887 39.4933 21.5763 34.6345C26.3832 29.996 31.7844 26.4777 37.6261 24.1792C43.4741 21.8807 49.958 20.7149 56.8992 20.7149C62.3648 20.7149 67.7327 21.5545 72.8533 23.2108C77.5313 24.7258 82.2301 27.0388 86.8208 30.0895L82.1989 36.5714C79.8111 34.8174 77.2923 33.3294 74.7403 32.1594C69.2519 29.6469 63.115 28.373 56.5002 28.373C51.1447 28.373 45.8433 29.4723 40.7413 31.6399C35.6373 33.8136 31.1568 36.881 27.4202 40.7548C23.5485 44.7656 20.6017 49.3169 18.6648 54.2796C16.73 59.2298 15.7491 64.764 15.7491 70.7325C15.7491 75.4084 16.3331 79.785 17.4823 83.7419C18.6357 87.7195 20.398 91.427 22.7173 94.7625C26.7656 100.519 31.8239 105.014 37.7529 108.129C43.6799 111.245 50.17 112.822 57.0384 112.822C63.487 112.822 69.5657 111.465 75.1061 108.786C77.5874 107.589 80.0106 106.099 82.3111 104.36C82.4358 104.266 82.5626 104.245 82.6478 104.245C82.8473 104.245 83.0281 104.347 83.132 104.517L86.6545 110.332C86.8104 110.592 86.7397 110.924 86.4904 111.091C82.2509 113.94 77.6768 116.168 72.8928 117.712C67.4854 119.457 61.8141 120.343 56.0367 120.343H56.0305Z" fill="white"/>
<path d="M126.016 66.5013C125.065 66.3351 124.075 66.252 123.051 66.252C119.316 66.252 116.149 67.1851 113.552 69.0533C110.954 70.9195 108.502 74.0327 106.193 78.3885V67.954H98.5596V118.198H107.072V93.7089C107.072 87.119 108.206 82.1874 110.476 78.9101C112.745 75.6349 116.149 73.9953 120.69 73.9953C121.496 73.9953 122.338 74.0784 123.217 74.2426C124.096 74.4067 125.029 74.6561 126.019 74.9845L128.874 67.2432C127.922 66.9128 126.97 66.6655 126.019 66.5013H126.016Z" fill="white"/>
<path d="M172.871 67.956V77.3993C170.966 73.6648 168.468 70.8551 165.375 68.9702C162.283 67.0853 158.63 66.1418 154.421 66.1418C147.247 66.1418 141.518 68.5857 137.235 73.4715C132.952 78.3594 130.809 84.941 130.809 93.2142C130.809 101.487 133.014 107.942 137.426 112.901C141.838 117.864 147.649 120.341 154.86 120.341C158.74 120.341 162.246 119.381 165.375 117.458C168.507 115.536 171.078 112.747 173.092 109.083V118.198H181.438V67.954H172.874L172.871 67.956ZM168.723 106.972C165.814 110.174 161.795 111.777 156.67 111.777C151.545 111.777 147.198 110.131 144.286 106.837C141.377 103.541 139.92 98.8544 139.92 92.7778C139.92 87.067 141.366 82.6176 144.257 79.4338C147.15 76.25 151.177 74.6582 156.337 74.6582C161.498 74.6582 165.353 76.3872 168.447 79.8474C171.539 83.3075 173.088 87.8733 173.088 93.5488C173.088 99.2243 171.633 103.771 168.721 106.974L168.723 106.972Z" fill="white"/>
<path d="M207.534 30.6756C208.485 29.065 210.227 28.2587 212.75 28.2587C213.922 28.2587 215.065 28.4041 216.181 28.6972C217.299 28.9902 218.405 29.4495 219.504 30.0688V21.1742C218.367 20.771 217.189 20.478 215.963 20.2951C214.735 20.1122 213.444 20.0208 212.091 20.0208C206.636 20.0208 202.858 21.4963 200.753 24.4431C198.647 27.39 197.596 33.0364 197.596 41.3824V67.9561H187.93V75.0406H197.596V118.2H206.326V75.0406H222.912V67.9561H206.108V42.5358C206.108 36.2389 206.582 32.2862 207.534 30.6756Z" fill="white"/>
<path d="M237.956 67.9561V35.6736H229.172V67.9561H219.947V75.0406H229.172V118.2H237.956V75.0406H247.181V67.9561H237.956Z" fill="white"/>
<path d="M266.097 45.9107C264.871 44.6658 263.398 44.0444 261.677 44.0444C259.956 44.0444 258.427 44.6575 257.201 45.8836C255.974 47.1098 255.361 48.5853 255.361 50.3039C255.361 52.0226 255.974 53.5999 257.201 54.8073C258.427 56.0148 259.919 56.6195 261.677 56.6195C263.435 56.6195 264.917 56.0148 266.124 54.8073C267.332 53.5999 267.936 52.1348 267.936 50.4141C267.936 48.6933 267.321 47.1555 266.095 45.9127L266.097 45.9107ZM257.396 67.956V118.2H266.072V67.956H257.396Z" fill="white"/>
<path d="M410.705 95.999C410.424 95.5521 410.214 95.5168 409.969 95.5168C409.597 95.5168 409.021 95.6166 408.296 96.4624C407.392 97.541 406.538 98.5447 405.729 99.4758C403.19 102.4 401.11 104.586 399.42 106.12C396.872 108.433 394.642 109.557 392.595 109.557C391.047 109.557 389.711 108.936 388.732 107.764C387.832 106.683 387.375 105.291 387.375 103.622C387.375 99.881 388.283 93.5238 390.147 84.2094C391.594 76.5971 391.897 73.7396 391.897 72.688C391.897 72.4989 391.837 72.1248 391.693 71.6697C390.91 69.2091 388.258 68.0225 386.97 67.4676C384.345 66.335 381.444 66.0129 377.844 66.3662C375.12 66.6343 369.309 67.0478 363.476 71.173C358.885 74.4212 355.153 78.7833 352.378 84.1409C351.801 85.2568 351.283 86.3895 350.826 87.5387C349.643 90.5001 348.858 93.5654 348.475 96.7139C348.295 98.206 348.201 99.7168 348.201 101.242C348.201 106.527 349.527 110.823 352.146 114.006C354.702 117.117 358.048 118.63 362.374 118.63C367.946 118.63 372.485 115.671 376.252 109.586L378.443 106.047L379.85 109.966C380.829 112.697 382.281 114.865 384.168 116.407C385.997 117.903 387.936 118.63 390.095 118.63C393.042 118.63 396.195 117.365 399.47 114.875C401.791 113.109 404.05 111.051 406.224 108.728C407.332 107.547 408.414 106.298 409.472 104.983L409.518 104.929C410.694 103.566 411.291 101.525 411.291 98.8627C411.291 97.6054 411.087 96.6162 410.705 95.999ZM377.071 97.7259C376.298 101.419 375.012 104.453 373.247 106.747C371.269 109.32 369.052 110.623 366.66 110.623C364.268 110.623 362.378 109.757 361.013 108.117C359.698 106.544 359.06 104.332 359.06 101.357C359.06 98.9604 359.292 96.612 359.758 94.3281C360.201 92.146 360.853 90.018 361.716 87.9689C361.894 87.5428 362.081 87.121 362.277 86.7095C363.995 83.0374 366.248 79.9928 368.981 77.6445C372.144 74.9262 375.671 73.5027 379.461 73.4112L381.974 73.351L377.073 97.7218L377.071 97.7259Z" fill="white"/>
<path d="M441.614 118.628C438.489 118.628 436.367 117.535 434.941 115.191C433.358 112.589 432.556 108.778 432.556 103.861C431.477 106.604 429.497 110.39 425.843 113.709C424.322 115.091 420.38 118.67 415.793 118.628C415.282 118.624 414.164 118.61 412.859 118.096C411.273 117.475 409.897 116.303 408.702 114.561C406.687 111.627 405.664 107.865 405.664 103.383C405.664 97.5638 406.057 92.1668 406.828 87.3392C407.599 82.5095 408.896 77.3099 410.679 71.8838C411.329 69.9323 412.204 68.5441 413.278 67.7669C414.016 67.2349 415.587 66.601 418.885 66.601C420.76 66.601 421.236 66.9751 421.24 66.9772C421.304 67.0312 421.518 67.2058 421.518 67.9248C421.512 68.1119 421.402 69.1218 420.272 73.8539C419.476 76.7986 418.827 79.5148 418.345 81.9276C416.716 90.471 415.926 96.0426 415.926 98.9791C415.926 101.061 416.205 102.502 416.801 103.509C417.555 104.796 418.846 105.507 420.434 105.507C422.335 105.507 424.264 104.116 426.502 101.134C428.406 98.5967 430.353 94.9141 432.458 89.8766C434.505 84.9804 436.517 78.8914 438.435 71.7778C438.952 69.8326 439.698 68.4693 440.654 67.7149C441.594 66.9751 443.159 66.5989 445.301 66.5989C447.444 66.5989 447.999 66.9211 448.063 66.9605C448.059 66.9605 448.171 67.1351 448.171 67.6858C448.171 68.939 447.664 72.7088 445.245 83.5486C442.969 93.9457 441.866 100.234 441.866 102.784C441.866 104.736 442.325 106.328 443.229 107.512C444.243 108.844 445.661 109.551 447.323 109.551C449.439 109.551 451.725 108.431 454.31 106.126C456.586 104.1 459.512 100.937 463.261 96.4561C463.986 95.6103 464.564 95.5106 464.934 95.5106C465.179 95.5106 465.389 95.5459 465.672 95.9948C466.056 96.6079 466.258 97.5991 466.258 98.8564C466.258 101.519 465.661 103.559 464.485 104.921L464.445 104.968C461.17 109.004 457.61 112.356 453.863 114.929C450.297 117.379 446.176 118.622 441.614 118.622V118.628Z" fill="white"/>
<path d="M508.2 93.2475C507.859 92.8235 507.088 92.2437 505.131 92.3248C504.906 92.6448 504.688 92.9503 504.474 93.2454C503.495 94.6087 502.651 95.6997 502.047 96.4687C496.824 103.081 493.329 105.592 492.323 106.352C489.517 108.476 486.228 109.557 482.543 109.557C479.902 109.557 477.719 108.634 476.067 106.822C474.515 105.128 473.457 102.518 472.832 98.844L472.688 98.0065L473.193 97.3207C482.021 85.2901 489.11 72.9769 494.26 60.7261C499.366 48.5812 501.955 37.7933 501.955 28.666C501.955 22.4938 500.956 17.7431 498.983 14.551C497.175 11.627 494.796 10.2076 491.708 10.2076C485.702 10.2076 480.577 14.2268 476.036 22.4917C471.279 31.1577 467.626 41.6941 465.178 53.8078C462.717 65.9942 461.47 76.9878 461.47 86.4872C461.47 90.496 461.747 94.2076 462.297 97.6096C462.746 100.382 463.376 102.942 464.186 105.293C464.789 107.038 465.491 108.668 466.292 110.174C469.311 115.862 473.81 118.628 480.045 118.628C484.692 118.628 488.898 117.381 492.547 114.925C496.369 112.35 499.966 109.002 503.233 104.973L503.273 104.927C504.258 103.776 505.122 102.651 505.852 101.579C508.425 97.8049 509.354 94.6773 508.198 93.2475H508.2ZM471.971 82.4077C472.129 73.3801 473.1 63.8267 474.856 54.0094C476.612 44.1941 478.68 35.844 481.005 29.1918C483.752 21.3258 486.171 17.9696 489.087 17.9696C494.426 17.9696 494.426 26.2885 494.426 29.0193C494.426 36.9101 492.705 45.7237 489.312 55.2168C485.951 64.6185 481.369 74.1282 475.691 83.4842L471.836 89.8372L471.967 82.4077H471.971Z" fill="white"/>
<path d="M542.746 66.0068C542.652 65.9319 542.274 65.7719 541.439 65.7719H522.814L526.784 62.2598C531.713 57.8977 535.456 53.1075 537.906 48.0201C540.339 42.9639 541.576 37.4526 541.576 31.6378C541.576 27.6124 540.724 24.2582 539.045 21.6667C537.501 19.2893 535.541 18.1795 532.877 18.1795C528.905 18.1795 525.246 20.0686 521.684 23.9527C517.947 28.0301 514.697 33.6225 512.024 40.5698C509.31 47.619 507.267 55.5265 505.948 64.072L505.684 65.774H497.182C495.561 65.774 493.834 66.1335 493.834 70.4291C493.834 71.7529 494.081 72.738 494.53 73.2077C494.64 73.322 495.314 73.8935 497.895 73.8935H504.682L504.539 76.034C504.306 79.544 504.185 83.0603 504.185 86.4893C504.185 88.848 504.283 91.1029 504.478 93.2475C504.751 96.236 505.208 99.0186 505.856 101.581C506.667 104.804 507.774 107.685 509.171 110.205C512.305 115.875 517.143 118.628 523.951 118.628C528.749 118.628 532.925 117.105 536.711 113.971L536.736 113.95C537.667 113.206 538.347 112.298 538.814 111.176C539.302 110 539.55 108.78 539.55 107.545C539.55 106.39 539.334 105.419 538.912 104.655C538.7 104.274 538.509 104.079 538.347 104.079C537.906 104.079 537.415 104.445 537.062 104.763C535.489 106.159 533.72 107.311 531.8 108.183C529.774 109.106 528.022 109.555 526.447 109.555C523.446 109.555 521.025 108.655 519.258 106.885C517.561 105.189 516.405 102.587 515.73 98.9272C515.115 95.6084 514.803 90.9823 514.803 85.1759C514.803 82.9107 514.882 79.7622 515.042 75.8137L515.119 73.8893H531.563C535.647 73.8893 538.689 73.297 540.599 72.1291C542.237 71.1295 543 69.7184 543 67.6859C543 66.4681 542.781 66.0649 542.744 66.0047L542.746 66.0068ZM519.551 63.4963L515.534 66.969L516.247 61.7091C517.124 55.2501 518.238 49.2753 519.562 43.9448C520.9 38.5478 522.351 34.248 523.874 31.1661C525.154 28.5684 526.971 25.5862 529.66 25.5862C534.286 25.5862 534.286 32.3797 534.286 34.6117C534.286 39.0091 533.041 43.9178 530.589 49.2005C528.138 54.4729 524.425 59.2818 519.551 63.4963Z" fill="white"/>
<path d="M303.434 119.227C296.533 119.227 291.474 115.187 287.973 106.878C284.211 97.9524 282.303 85.6205 282.303 70.2254C282.303 56.9271 283.259 44.8342 285.142 34.2874C285.936 29.7009 286.938 28.0279 287.461 27.4377C288.197 26.6127 289.778 26.1742 292.031 26.1742C296.651 26.1742 297.038 28.136 297.038 30.1456C297.038 30.3389 297.011 30.8771 296.834 32.3048C294.523 46.1808 293.353 58.9388 293.353 70.2233C293.353 82.1853 294.384 91.4602 296.414 97.7924C298.746 105.064 302.543 108.751 307.694 108.751C312.532 108.751 317.437 105.737 322.689 99.5422C327.502 93.8605 331.965 86.6513 335.958 78.1183L336.932 76.0339L334.979 74.8181C330.721 72.1664 327.47 68.6917 325.322 64.4937C323.142 60.2397 322.036 55.2334 322.036 49.6098C322.036 43.9863 322.909 39.1254 324.63 35.2995C326.29 31.6045 328.559 28.8239 331.371 27.0387C334.195 25.2432 337.39 24.3329 340.864 24.3329C344.994 24.3329 348.161 25.7544 350.544 28.6763C353.024 31.7167 354.279 36.0476 354.279 41.5486C354.279 50.0296 352.396 59.4562 348.68 69.5624L347.604 72.4927L350.682 73.0143C354.873 73.7271 359.709 74.0866 365.052 74.0866C366.239 74.0866 366.9 74.3131 367.122 74.5251C367.322 74.7142 367.525 74.9969 367.525 75.639C367.525 77.0563 367.12 78.27 366.285 79.3486C365.586 80.2484 364.406 80.7119 362.673 80.7638C361.937 80.7825 361.191 80.7929 360.466 80.7929C355.463 80.7929 350.923 80.3399 346.968 79.4462L344.946 78.989L344.054 80.8594C338.757 91.9735 332.29 101.317 324.829 108.628C317.651 115.665 310.454 119.231 303.438 119.231L303.434 119.227ZM338.1 32.2736C335.974 32.2736 332.976 33.1402 330.75 37.2634C329.222 40.0897 328.48 43.8636 328.48 48.8035C328.48 57.1578 331.273 63.4754 336.779 67.5819L339.615 69.6975L340.779 66.3558C343.855 57.5235 345.415 50.067 345.415 44.1962C345.415 40.4845 344.892 37.7517 343.815 35.8398C342.516 33.5393 340.486 32.2736 338.1 32.2736Z" fill="white"/>
</g>
<defs>
<filter id="filter0_d_137_369" x="0.948535" y="0.40758" width="563.851" height="137.735" filterUnits="userSpaceOnUse" color-interpolation-filters="sRGB">
<feFlood flood-opacity="0" result="BackgroundImageFix"/>
<feColorMatrix in="SourceAlpha" type="matrix" values="0 0 0 0 0 0 0 0 0 0 0 0 0 0 0 0 0 0 127 0" result="hardAlpha"/>
<feOffset dx="8" dy="4"/>
<feGaussianBlur stdDeviation="6.9"/>
<feComposite in2="hardAlpha" operator="out"/>
<feColorMatrix type="matrix" values="0 0 0 0 0 0 0 0 0 0 0 0 0 0 0 0 0 0 0.78 0"/>
<feBlend mode="normal" in2="BackgroundImageFix" result="effect1_dropShadow_137_369"/>
<feBlend mode="normal" in="SourceGraphic" in2="effect1_dropShadow_137_369" result="shape"/>
</filter>
</defs>
</svg>
