<svg width="21" height="20" viewBox="0 0 21 20" fill="none" xmlns="http://www.w3.org/2000/svg">
<path d="M5.49803 0.442139C8.82088 0.442139 12.1437 0.442139 15.4666 0.442139C15.6935 0.473827 15.9224 0.49653 16.1474 0.538624C18.3927 0.957673 20.0433 2.93042 20.0546 5.25553C20.0707 8.42299 20.0632 11.5909 20.0561 14.7584C20.0537 15.9408 19.6665 16.9936 18.8882 17.8871C17.9025 19.0194 16.641 19.5581 15.1479 19.5595C12.0936 19.5628 9.03884 19.5623 5.98454 19.5576C5.65594 19.5571 5.32262 19.5444 5.00017 19.4881C3.2177 19.1773 1.96903 18.1761 1.28489 16.5051C1.1109 16.0803 1.05369 15.6078 0.943054 15.1571C0.943054 11.721 0.943054 8.28489 0.943054 4.84878C0.965749 4.72722 0.98797 4.6052 1.01161 4.48365C1.39836 2.4986 2.56051 1.20835 4.49427 0.626596C4.81814 0.529165 5.16281 0.501733 5.49803 0.442139ZM9.42275 9.57609C10.1258 9.36656 10.3901 8.8567 10.418 8.18178C10.4568 7.24862 10.0048 6.48477 9.20668 6.22086C8.88849 6.11586 8.53814 6.0714 8.20103 6.0662C7.063 6.04775 5.92497 6.0591 4.78693 6.05957C4.72169 6.05957 4.65644 6.06667 4.59119 6.07045V13.934C4.63753 13.9397 4.67346 13.9473 4.70892 13.9473C5.90322 13.9477 7.09751 13.9714 8.29087 13.9392C9.05775 13.9184 9.73527 13.6346 10.2208 13.0013C10.6265 12.4721 10.7111 11.8525 10.6634 11.2144C10.5896 10.2222 10.2828 9.83007 9.42228 9.57609H9.42275ZM16.3914 11.3691C16.4264 10.7595 16.3914 10.1909 16.2037 9.64089C15.9555 8.91724 15.4964 8.39083 14.7536 8.14915C14.2765 7.99401 13.7853 7.98739 13.2945 8.05975C12.4596 8.18225 11.8222 8.60603 11.4232 9.35569C10.9821 10.1843 10.8676 11.064 11.0837 11.9778C11.2454 12.6622 11.5759 13.2525 12.2085 13.6006C13.2217 14.1577 14.2742 14.144 15.311 13.6767C16.0056 13.3636 16.3772 12.6967 16.3205 11.9892H15.0491C14.9947 12.3945 14.7385 12.6182 14.3612 12.6991C14.1446 12.7454 13.9167 12.7696 13.6964 12.7582C12.9811 12.7218 12.4823 12.1022 12.5792 11.3696H16.3914V11.3691ZM12.1726 7.26422H15.3347V6.53112H12.1726V7.26422Z" fill="white"/>
<path d="M6.25403 12.4224V10.3049H6.45733C7.01713 10.3049 7.57693 10.3049 8.13625 10.3049C8.66532 10.3049 8.9334 10.5012 9.0568 11.013C9.13103 11.3194 9.11826 11.633 9.00337 11.9305C8.89037 12.2233 8.66012 12.4073 8.35327 12.4163C7.65919 12.4361 6.9637 12.4224 6.25403 12.4224Z" fill="white"/>
<path d="M6.255 9.0959V7.43673C6.31552 7.43295 6.36942 7.42633 6.42332 7.42633C7.03229 7.42585 7.64079 7.42538 8.24976 7.42633C8.56039 7.42633 8.75944 7.55497 8.80435 7.86193C8.84312 8.12632 8.83839 8.40726 8.79442 8.67118C8.74336 8.97672 8.55897 9.08975 8.20626 9.09401C7.6909 9.10016 7.17508 9.0959 6.65972 9.09638C6.53065 9.09638 6.40157 9.09638 6.25548 9.09638L6.255 9.0959Z" fill="white"/>
<path d="M12.5607 10.2918C12.6369 9.69867 13.0988 9.08003 13.8879 9.10888C14.529 9.13253 14.9413 9.5828 14.9517 10.2918H12.5607Z" fill="white"/>
</svg>
