<svg width="19" height="20" viewBox="0 0 19 20" fill="none" xmlns="http://www.w3.org/2000/svg">
<path d="M0 17.3759C0 12.4559 0 7.53582 0 2.61627C0.0122184 2.56732 0.0281963 2.51886 0.0366551 2.46892C0.207242 1.4765 0.715715 0.741221 1.57711 0.30262C1.86001 0.158727 2.18192 0.0984009 2.48597 0C7.16185 0 11.8377 0 16.5131 0C16.5418 0.0108785 16.5695 0.0271919 16.5996 0.0326311C18.0475 0.28877 18.9986 1.46316 18.9991 3.0079C19.0005 7.66736 19.0005 12.3263 18.9972 16.9858C18.9972 17.2117 18.9803 17.4427 18.9347 17.6632C18.6481 19.0487 17.5461 19.9848 16.1926 19.9912C14.7579 19.9976 13.3232 19.9927 11.8885 19.9927H11.7376V12.9222H14.5469C14.733 11.7468 14.9168 10.5882 15.1038 9.40742H11.74V7.02404H15.0916V3.51523C15.0253 3.51523 14.9708 3.51523 14.9163 3.51523C13.8773 3.51523 12.8382 3.51326 11.7992 3.51523C9.85083 3.52018 8.3912 5.05949 8.38651 7.11206C8.3851 7.80828 8.38651 8.50451 8.38651 9.20073C8.38651 9.26897 8.38651 9.33671 8.38651 9.4188H6.1731V12.9291H8.37523V19.9788C8.34703 19.9843 8.32964 19.9912 8.31178 19.9912C6.42546 19.9907 4.53866 20.0189 2.65327 19.9769C1.58698 19.9531 0.789965 19.3701 0.304989 18.3693C0.156959 18.0632 0.0991568 17.7087 0 17.3759Z" fill="white"/>
</svg>
