<?xml version="1.0" encoding="UTF-8"?>
<svg id="Layer_1" xmlns="http://www.w3.org/2000/svg" viewBox="0 0 64 64">
  <defs>
    <style>
      .cls-1 {
        fill: #fff;
      }

      .cls-2 {
        fill: #50c878;
      }
    </style>
  </defs>
  <path class="cls-2" d="M34.53,53.47c-2.26.53-4.65.8-7.19.8-3.85,0-7.43-.64-10.72-1.91-.63-.24-1.24-.51-1.84-.79-.14-1.26-.16-2.52-.17-3.84-.03-2.34-.06-4.88-.81-7.86.34.41.71.81,1.09,1.18,1.61,1.59,3.51,2.82,5.7,3.68,2.19.87,4.61,1.3,7.26,1.3.69,0,1.37-.03,2.04-.1l4.64,7.54Z"/>
  <path class="cls-1" d="M41.91,42.37c-1.57,3.23-2.66,6.6-3.46,9.84-.29.12-.59.23-.89.34-1.5-2.41-2.99-4.83-4.49-7.25-1.74-2.8-3.47-5.61-5.21-8.41,3.35-.18,6.19-2.27,7.48-5.19l5.47,8.88,1.09,1.78Z"/>
  <path class="cls-1" d="M38.45,52.21c-.11.43-.21.86-.31,1.28l-.31-.51c-.09-.14-.18-.29-.27-.43.3-.11.59-.22.89-.34Z"/>
  <path class="cls-2" d="M64,25.74l-15.65,27.1-5.13,8.89-3.58-5.82c.31-1.56.68-3.16,1.12-4.77h0c.78-2.88,1.81-5.79,3.25-8.58.53-1.03,1.12-2.04,1.77-3.02,3.9-5.9,10.01-10.52,18.23-13.8Z"/>
  <path class="cls-1" d="M12.71,50.47c-1.71-1-3.28-2.18-4.69-3.54-2.43-2.34-4.32-5.09-5.67-8.27-.26-.6-.49-1.21-.69-1.83-.45-1.34-.78-2.74-1-4.18-.22-1.42-.33-2.88-.33-4.39,0-1.78.15-3.5.46-5.15.87,1.58,2.09,2.89,3.41,4.31,1.51,1.62,3.18,3.4,4.74,5.99.45.74.88,1.54,1.3,2.42.16.34.31.67.45,1,1.87,4.35,1.91,7.69,1.95,10.92.01.91.02,1.82.07,2.73Z"/>
  <path class="cls-2" d="M43.95,9.14l-2.65,4.6c-.48.83-1.58,1.06-2.34.47-1.17-.91-2.42-1.66-3.74-2.23-2.26-.99-4.72-1.48-7.37-1.48-.69,0-1.36.03-2.01.09-1.8.16-3.48.54-5.05,1.14-.07.02-.14.05-.2.08-2.19.87-4.09,2.09-5.7,3.68-.51.5-.98,1.03-1.41,1.58-.95,1.21-1.73,2.56-2.34,4.05-.89,2.17-1.34,4.55-1.34,7.15,0,1.11.08,2.18.24,3.21-1.5-2.29-3.06-3.96-4.4-5.39-1.98-2.12-3.5-3.75-4-6.32.21-.64.45-1.28.71-1.9,1.35-3.18,3.25-5.93,5.7-8.27.17-.16.35-.32.52-.48,2.23-2.01,4.79-3.6,7.67-4.77.13-.06.27-.11.4-.16,2.13-.83,4.39-1.39,6.78-1.68,1.29-.16,2.61-.23,3.98-.23,4.14,0,7.92.71,11.34,2.13,1.73.72,3.32,1.61,4.77,2.68.65.48.83,1.37.42,2.07Z"/>
  <circle class="cls-1" cx="27.39" cy="28.23" r="6.7"/>
</svg>