<?xml version="1.0" encoding="UTF-8"?>
<svg id="Layer_1" xmlns="http://www.w3.org/2000/svg" viewBox="0 0 32 32">
  <defs>
    <style>
      .cls-1 {
        fill: #fff;
      }

      .cls-2 {
        fill: #50c878;
      }
    </style>
  </defs>
  <path class="cls-2" d="M17.26,26.73c-1.13.27-2.33.4-3.59.4-1.93,0-3.71-.32-5.36-.96-.32-.12-.62-.25-.92-.39-.07-.63-.08-1.26-.09-1.92-.01-1.17-.03-2.44-.4-3.93.17.21.35.4.54.59.81.79,1.76,1.41,2.85,1.84,1.1.43,2.31.65,3.63.65.35,0,.69-.02,1.02-.05l2.32,3.77Z"/>
  <path class="cls-1" d="M20.95,21.19c-.79,1.61-1.33,3.3-1.73,4.92-.15.06-.29.12-.44.17-.75-1.21-1.5-2.42-2.24-3.62-.87-1.4-1.74-2.8-2.61-4.21,1.67-.09,3.1-1.13,3.74-2.59l2.73,4.44.55.89Z"/>
  <path class="cls-1" d="M19.23,26.11c-.05.22-.1.43-.15.64l-.16-.25c-.04-.07-.09-.14-.13-.22.15-.05.3-.11.44-.17Z"/>
  <path class="cls-2" d="M32,12.87l-7.82,13.55-2.57,4.45-1.79-2.91c.16-.78.34-1.58.56-2.39h0c.39-1.44.91-2.9,1.63-4.29.27-.51.56-1.02.88-1.51,1.95-2.95,5-5.26,9.11-6.9Z"/>
  <path class="cls-1" d="M6.36,25.23c-.86-.5-1.64-1.09-2.35-1.77-1.22-1.17-2.16-2.55-2.83-4.13-.13-.3-.24-.61-.35-.92-.22-.67-.39-1.37-.5-2.09-.11-.71-.16-1.44-.16-2.2,0-.89.08-1.75.23-2.57.43.79,1.05,1.45,1.71,2.15.76.81,1.59,1.7,2.37,2.99.22.37.44.77.65,1.21.08.17.16.33.23.5.93,2.18.95,3.84.97,5.46,0,.46.01.91.04,1.36Z"/>
  <path class="cls-2" d="M21.97,4.57l-1.33,2.3c-.24.41-.79.53-1.17.24-.59-.46-1.21-.83-1.87-1.12-1.13-.49-2.36-.74-3.68-.74-.34,0-.68.01-1,.04-.9.08-1.74.27-2.52.57-.03.01-.07.03-.1.04-1.1.43-2.05,1.05-2.85,1.84-.25.25-.49.51-.71.79-.48.61-.87,1.28-1.17,2.03-.45,1.08-.67,2.28-.67,3.57,0,.55.04,1.09.12,1.6-.75-1.14-1.53-1.98-2.2-2.69-.99-1.06-1.75-1.88-2-3.16.11-.32.23-.64.36-.95.67-1.59,1.62-2.97,2.85-4.13.09-.08.17-.16.26-.24,1.12-1,2.39-1.8,3.84-2.39.07-.03.13-.05.2-.08,1.06-.41,2.2-.69,3.39-.84.64-.08,1.31-.12,1.99-.12,2.07,0,3.96.36,5.67,1.06.86.36,1.66.81,2.39,1.34.32.24.41.69.21,1.04Z"/>
  <circle class="cls-1" cx="13.7" cy="14.12" r="3.35"/>
</svg>