<svg width="20" height="20" viewBox="0 0 20 20" fill="none" xmlns="http://www.w3.org/2000/svg">
<path d="M14.4862 19.5711H4.62967C4.58807 19.5607 4.54693 19.5461 4.50485 19.5399C2.39332 19.2405 0.971608 18.0851 0.253895 16.0806C0.123401 15.7169 0.0822675 15.3211 0 14.9403C0 11.6537 0 8.36701 0 5.08036C0.0113472 5.02692 0.0278953 4.97442 0.0340417 4.92003C0.320087 2.39863 2.44817 0.465143 4.98806 0.453319C8.03668 0.43913 11.0858 0.437711 14.1344 0.453319C16.8653 0.467508 19.0955 2.69613 19.1111 5.42941C19.1286 8.48526 19.1253 11.5416 19.1111 14.5974C19.1012 16.7366 17.6998 18.6408 15.6634 19.3063C15.2828 19.4307 14.8791 19.4846 14.4857 19.5711H14.4862ZM15.7556 10.012C15.7556 9.07836 15.7575 8.14472 15.7556 7.21108C15.7509 5.29698 14.272 3.81423 12.3605 3.81092C10.4938 3.80761 8.62721 3.80855 6.76106 3.81281C6.54452 3.81328 6.3242 3.82794 6.11238 3.87004C4.47129 4.19402 3.36304 5.5486 3.36162 7.22574C3.35973 9.08025 3.35973 10.9352 3.36162 12.7902C3.36351 14.7275 4.84007 16.2074 6.77572 16.2098C8.62958 16.2121 10.4839 16.2121 12.3378 16.2098C14.2758 16.2074 15.7528 14.7308 15.7561 12.7945C15.758 11.867 15.7561 10.9395 15.7561 10.0125L15.7556 10.012Z" fill="white"/>
<path d="M4.48027 10.0088C4.48027 9.08176 4.47933 8.15474 4.48027 7.22725C4.48216 5.91051 5.46275 4.93194 6.78329 4.931C8.63667 4.92958 10.4905 4.92958 12.3439 4.931C13.6522 4.93241 14.6337 5.91288 14.6346 7.22016C14.6365 9.08081 14.6365 10.941 14.6346 12.8017C14.6332 14.1066 13.6498 15.0875 12.3415 15.0889C10.4815 15.0908 8.62201 15.0913 6.76201 15.0889C5.46748 15.087 4.48311 14.1018 4.48027 12.8087C4.47838 11.8756 4.48027 10.9419 4.48027 10.0088ZM12.3581 10.0168C12.3609 8.47258 11.1066 7.21164 9.56478 7.20928C8.02061 7.20692 6.76059 8.46123 6.75776 10.0031C6.75539 11.5469 8.01068 12.8092 9.5506 12.8116C11.0943 12.8139 12.3548 11.5592 12.3576 10.0173L12.3581 10.0168ZM12.7737 6.23828C12.4716 6.23544 12.2148 6.48611 12.2096 6.78834C12.2044 7.09104 12.4522 7.34975 12.7548 7.35779C13.064 7.36583 13.3283 7.10807 13.3283 6.79827C13.3283 6.49557 13.0763 6.24112 12.7737 6.23828Z" fill="white"/>
<path d="M11.2371 10.003C11.2399 10.9333 10.4844 11.691 9.5553 11.69C8.63476 11.6891 7.88111 10.9366 7.87827 10.0167C7.87544 9.08683 8.63145 8.32866 9.5605 8.33008C10.4825 8.3315 11.2347 9.08163 11.2371 10.0034V10.003Z" fill="white"/>
</svg>
