<svg width="395" height="102" viewBox="0 0 395 102" fill="none" xmlns="http://www.w3.org/2000/svg">
<g filter="url(#filter0_d_182_1668)">
<path d="M269.212 74.3605C264.584 74.1625 261.481 70.9101 259.633 66.8383C257.037 61.121 256.325 53.2187 256.291 46.2223C256.264 40.2136 256.78 32.061 257.761 26.4369C258.192 23.9652 258.433 23.1823 259.211 22.1216C260.256 20.6991 261.281 21.077 262.362 21.0269C264.634 20.9199 265.788 21.7484 265.982 23.9629C266.002 24.2065 265.895 24.8392 265.868 25.3467C264.75 31.4464 264.035 40.3115 264.01 45.8968C263.985 51.778 264.399 57.0401 265.727 61.0573C268.452 69.3123 274.696 67.207 279.472 62.0337C281.944 59.3571 284.71 54.1678 286.404 50.4534C286.451 50.3464 286.606 49.9959 286.645 49.9003C286.513 49.7979 286.267 49.6795 286.144 49.5976C283.715 47.9634 281.771 46.2132 280.385 43.5912C278.998 40.9692 278.45 37.8147 278.402 34.9447C278.354 32.0746 278.896 28.9633 279.913 26.6304C280.931 24.2975 282.158 22.8409 283.993 21.6323C285.828 20.4237 287.653 19.923 289.709 20.0095C292.222 20.1142 294.039 20.5535 295.707 22.7566C297.376 24.9598 297.938 27.1015 297.918 30.404C297.888 35.2997 296.393 40.9351 295.031 45.8831C294.986 46.047 294.897 46.4681 294.84 46.6365C295.097 46.6456 295.418 46.7048 295.673 46.6911C298.628 46.5432 301.59 45.6783 304.315 44.8157C305.059 44.5813 305.605 44.5153 306.147 44.7497C306.689 44.9841 306.848 45.3005 306.992 45.7762C307.269 46.7048 307.338 47.4718 306.942 48.4368C306.545 49.4041 305.564 49.9321 304.517 50.2963C304.155 50.4215 303.597 50.6058 303.142 50.7379C299.992 51.6483 296.884 52.1581 293.581 51.9874C293.39 51.9783 293.178 51.9237 292.98 51.9214C292.935 51.9965 292.782 52.3311 292.73 52.4335C289.996 57.8231 286.085 64.2095 281.896 68.0924C278.595 71.1513 274.498 74.3127 269.786 74.3696C269.59 74.3719 269.399 74.3696 269.21 74.3605H269.212ZM288.268 25.9772C286.408 26.0546 285.707 26.6668 284.751 28.4057C283.877 29.9966 283.501 32.2476 283.56 34.4644C283.66 38.238 284.762 41.7158 287.901 44.2262C288.102 44.3855 288.416 44.6108 288.632 44.7542C288.705 44.579 288.855 44.0555 288.91 43.8962C290.176 40.2978 291.257 35.3339 291.441 31.9631C291.553 29.9192 291.2 28.6765 290.747 27.6546C290.116 26.2344 289.233 25.9339 288.27 25.9749L288.268 25.9772Z" fill="#50C878"/>
<path d="M307.206 74.1511C304.585 74.1511 302.744 73.2634 301.578 71.4335C300.365 69.5354 299.75 66.9521 299.75 63.7611C299.75 61.8288 300.001 59.3047 300.497 56.2571C300.991 53.2073 301.637 50.319 302.414 47.672C302.769 46.4043 303.222 45.5463 303.761 45.1138C304.29 44.6882 305.207 44.472 306.484 44.472C309.147 44.472 309.147 45.5622 309.147 46.0288C309.147 47.0712 308.733 49.5975 307.916 53.5373C306.846 58.4603 306.327 61.7218 306.327 63.5017C306.327 64.9446 306.523 66.0371 306.923 66.8428C307.39 67.7806 308.214 68.2767 309.307 68.2767C310.281 68.2767 311.399 67.6781 312.724 66.4468C313.919 65.3361 315.528 63.5631 317.509 61.1733C317.896 60.7204 318.306 60.4973 318.756 60.4973C319.089 60.4973 319.319 60.6384 319.523 60.9662C319.781 61.3804 319.913 61.9904 319.913 62.7779C319.913 64.3574 319.548 65.5819 318.831 66.4172C314.645 71.5564 310.739 74.1579 307.208 74.1579L307.206 74.1511ZM307.732 38.9163C306.081 38.9163 304.845 38.5475 304.062 37.8192C303.281 37.0954 302.901 36.0895 302.901 34.7443C302.901 33.3992 303.413 32.3249 304.467 31.4259C305.553 30.4973 306.878 30.0467 308.519 30.0467C309.974 30.0467 311.158 30.3949 312.036 31.0822C312.876 31.74 313.284 32.6572 313.284 33.8908C313.284 35.4522 312.799 36.6494 311.802 37.5507C310.784 38.4702 309.452 38.9163 307.732 38.9163Z" fill="#50C878"/>
<path d="M338.443 74.1511C336.399 74.1511 334.912 73.5935 333.901 72.4464C332.882 71.2925 332.365 69.5559 332.365 67.2867C332.365 66.1077 332.67 63.9455 333.271 60.8547C333.854 58.0325 334.136 56.1183 334.136 55.0168C334.136 53.4099 333.061 53.2847 332.731 53.2847C331.896 53.2847 330.983 54.0517 329.777 55.7747C328.727 57.27 327.646 59.2615 326.562 61.6968C325.481 64.1253 324.595 66.7245 323.931 69.4239C323.364 71.841 322.79 72.8675 322.408 73.3022C321.911 73.8666 321.081 74.1534 319.936 74.1534C318.551 74.1534 317.639 73.457 317.06 71.9662C316.416 70.3047 316.088 67.5621 316.088 63.8135C316.088 58.2214 316.894 52.8386 318.485 47.8132C318.836 46.6866 319.378 45.8945 320.145 45.3893C320.923 44.8772 322.066 44.6154 323.544 44.6154C324.55 44.6154 324.912 44.7725 325.021 44.8407C325.19 44.9454 325.224 45.2618 325.224 45.5076C325.224 45.9446 325.057 47.0894 324.263 50.0551C323.824 51.8144 323.466 53.3689 323.202 54.6913C322.936 56.025 322.71 57.6842 322.535 59.6188C325.517 54.9417 328.761 48.9057 333.699 46.0311C335.313 45.0911 336.799 44.6154 338.113 44.6154C340.59 44.6154 341.696 45.7193 341.696 48.1978C341.696 49.8434 341.216 52.9092 340.266 57.3064C339.417 61.1938 339.005 63.7088 339.005 64.997C339.005 67.8739 340.626 68.3041 341.591 68.3041C342.65 68.3041 343.818 67.7214 345.163 66.5242C346.385 65.4363 348.031 63.6565 350.055 61.2371C350.442 60.7864 350.852 60.5634 351.303 60.5634C351.635 60.5634 351.865 60.7022 352.07 61.03C352.327 61.4419 352.459 62.0496 352.459 62.8326C352.459 64.4053 352.095 65.6229 351.378 66.4537C349.531 68.7274 347.537 70.6028 345.438 72.0458C343.399 73.4456 341.045 74.1557 338.441 74.1557L338.443 74.1511Z" fill="#50C878"/>
<path d="M360.101 74.1511C356.117 74.1511 352.996 72.9562 350.824 70.5983C348.637 68.2267 347.526 64.9493 347.526 60.857C347.526 57.9551 348.143 55.2193 349.361 52.7248C350.572 50.244 352.27 48.2457 354.414 46.789C356.543 45.3437 358.985 44.6109 361.676 44.6109C364.048 44.6109 365.888 45.2868 367.301 46.6775C368.71 48.0658 369.396 49.914 369.396 52.3265C369.396 55.1829 368.399 57.5682 366.347 59.6188C364.28 61.6855 360.668 63.356 355.609 64.5896L354.763 64.7968L355.166 65.5706C356.338 67.817 358.33 68.955 361.087 68.955C363.019 68.955 364.642 68.493 365.915 67.5803C366.682 67.0295 367.37 66.3763 368.018 65.6912C368.437 65.2474 368.838 64.7899 369.229 64.3211C369.819 63.6132 370.372 62.4957 371.458 62.63C372.86 62.803 373.225 64.3871 372.91 65.5456C372.075 68.6091 369.68 71.1923 366.907 72.6535C365.025 73.6459 362.737 74.1489 360.105 74.1489L360.101 74.1511ZM360.558 49.6773C358.69 49.6773 357.112 50.7402 355.869 52.8341C354.694 54.8142 354.1 57.2268 354.1 60.0058V61.0004L354.94 60.8001C357.61 60.1674 359.757 59.1932 361.321 57.9073C362.967 56.5531 363.802 54.9394 363.802 53.1163C363.802 52.1149 363.511 51.2864 362.935 50.6559C362.341 50.0073 361.542 49.6795 360.561 49.6795L360.558 49.6773Z" fill="#50C878"/>
<path d="M185.298 44.2354H178.336V73.812H185.298V44.2354Z" fill="white"/>
<path d="M181.817 30.2402C180.629 30.2402 179.598 30.6772 178.749 31.5375C177.906 32.3933 177.478 33.4266 177.478 34.6056C177.478 35.7845 177.909 36.8201 178.755 37.6668C179.602 38.5135 180.631 38.9413 181.817 38.9413C183.003 38.9413 184.03 38.5135 184.886 37.6713C185.746 36.8247 186.181 35.7914 186.181 34.6056C186.181 33.4198 185.746 32.3864 184.89 31.5307C184.034 30.6749 182.999 30.2402 181.815 30.2402H181.817Z" fill="white"/>
<path d="M220.375 44.2354H211.841L205.271 53.4304L198.492 44.2354H190.04L200.937 58.4513L189.122 73.812H197.55L205.066 63.5882L212.745 73.812H221.229L209.353 58.4536L220.375 44.2354Z" fill="white"/>
<path d="M235.455 74.4061C231.077 74.4061 227.528 72.9472 224.908 70.0726C222.304 67.2162 220.983 63.4039 220.983 58.7426C220.983 54.3841 222.381 50.706 225.136 47.8109C227.899 44.9045 231.352 43.4319 235.395 43.4319C239.438 43.4319 242.953 44.7861 245.562 47.4559C248.166 50.1211 249.489 53.6557 249.489 57.9597V60.3153H227.171L227.246 60.8434C227.558 63.067 228.348 64.8468 229.593 66.1373C231.072 67.6691 233.007 68.4133 235.514 68.4133C237.421 68.4133 239.056 68.0378 240.369 67.2958C240.795 67.0546 241.107 66.8247 241.303 66.6699C242.409 65.8119 243.263 64.6989 243.848 63.3561L249.059 66.0941C248.257 67.8011 246.55 70.571 243.329 72.4646C240.026 74.4061 236.823 74.4061 235.455 74.4061ZM235.398 49.3655C233.196 49.3655 231.391 49.9845 229.875 51.2545C228.703 52.2378 227.929 53.4486 227.508 54.9531L227.344 55.5425H243.265L243.128 54.9713C242.751 53.3917 242.027 52.1558 240.911 51.1885C239.495 49.9618 237.69 49.3655 235.398 49.3655Z" fill="white"/>
<path d="M164.305 27.0515C161.284 25.7042 157.637 25.0305 153.362 25.0305H142V73.8121H148.97V59.0385H153.362C157.637 59.0385 161.284 58.3535 164.305 56.9833C167.325 55.6131 169.647 53.6626 171.275 51.1294C172.9 48.5985 173.715 45.5669 173.715 42.0345C173.715 38.5021 172.903 35.4614 171.275 32.9054C169.647 30.3518 167.325 28.3989 164.305 27.0515ZM163.294 50.1166C160.995 52.0216 157.614 52.973 153.152 52.973H148.97V31.0915H153.152C157.614 31.0915 160.995 32.0451 163.294 33.9478C165.593 35.8529 166.745 38.5477 166.745 42.0322C166.745 45.5168 165.595 48.2116 163.294 50.1166Z" fill="white"/>
</g>
<path d="M40.2286 12.9067C39.8919 8.99651 37.8872 7.53812 33.9296 7.72746C32.0477 7.81614 30.2651 7.14506 28.447 9.66039C28.1623 10.0547 27.9165 10.4273 27.7063 10.8096C32.7093 11.5286 36.8452 13.12 40.003 15.5275C40.0148 15.4676 40.0231 15.4113 40.0349 15.3502C40.0786 14.4538 40.2688 13.3405 40.2286 12.9067Z" fill="#50C878"/>
<path d="M111.602 51.4193C111.353 50.5792 111.079 50.0172 110.133 49.6074C109.19 49.1975 108.239 49.3102 106.944 49.7284C102.202 51.2479 97.0482 52.7746 91.9069 53.0358C91.4627 53.0598 90.9051 52.9555 90.4574 52.94C90.5566 52.6464 90.7114 51.8986 90.7905 51.6134C93.1592 42.8738 95.7581 32.9239 95.8136 24.2803C95.8491 18.4539 94.8674 14.6719 91.9636 10.7821C89.0599 6.88862 85.8985 6.11689 81.5252 5.93234C77.948 5.78015 74.7714 6.66334 71.5782 8.79759C68.385 10.9271 66.2503 13.4987 64.4794 17.6222C62.7086 21.741 61.7659 27.2342 61.8486 32.302C61.9313 37.3698 62.8905 42.935 65.2993 47.5678C67.7116 52.197 71.095 55.2875 75.3219 58.172C75.5357 58.317 75.9634 58.5219 76.1937 58.7064C76.1264 58.8754 75.8571 59.4937 75.7744 59.6795C72.8269 66.2416 68.014 75.3994 63.7116 80.1293C55.4007 89.2631 44.5335 92.9768 39.7927 78.4049C38.4176 74.1819 37.606 69.174 37.1866 63.6244C37.1666 63.3752 37.1512 63.1223 37.1311 62.8695C36.8854 59.3212 36.7909 55.556 36.8062 51.6374V51.5774C36.8062 51.2635 36.8098 50.9423 36.8145 50.6176C36.9256 41.0535 38.0738 26.7525 39.8494 16.4119C39.9014 16.1147 39.9569 15.8175 40.0077 15.5275C36.85 13.12 32.7152 11.5286 27.711 10.8096C27.5728 11.0553 27.4499 11.3033 27.3342 11.5646C26.7671 12.8384 26.4186 14.4178 25.9283 17.2783C24.2213 27.2078 23.3223 41.6024 23.3695 52.2102C23.3731 52.753 23.3778 53.2995 23.3849 53.8459C23.3884 54.1275 23.3932 54.4079 23.3967 54.6943C23.4558 58.0533 23.6105 61.5058 23.9035 64.9414C23.9236 65.1943 23.9425 65.4483 23.9673 65.7012C24.7163 73.9674 26.2686 82.0922 29.1842 88.61C32.401 95.7989 37.7998 101.541 45.8542 101.891C46.1826 101.907 46.5193 101.912 46.856 101.907C55.0605 101.806 62.1912 96.2243 67.9349 90.8246C75.2274 83.9688 82.0296 72.6935 86.7881 63.1775C86.8791 62.9929 87.1449 62.4021 87.224 62.2691C87.569 62.2775 87.9411 62.3734 88.2695 62.3901C94.018 62.6873 99.425 61.791 104.908 60.184C105.7 59.9515 106.67 59.6256 107.3 59.4039C109.122 58.7568 110.83 57.8292 111.519 56.1204C112.207 54.4127 112.089 53.0586 111.606 51.4193H111.602ZM84.5294 27.0389C84.2128 32.9863 82.3309 41.7546 80.1241 48.107C80.0296 48.3886 79.7673 49.309 79.6409 49.6217C79.2641 49.3689 78.7183 48.971 78.3698 48.6894C72.9072 44.2567 70.9899 38.1164 70.815 31.4548C70.7123 27.5374 71.3655 23.5624 72.8871 20.7535C74.5552 17.6833 75.7755 16.6024 79.0113 16.4658C80.6864 16.3975 82.2198 16.9236 83.3208 19.4317C84.1088 21.2365 84.7231 23.4306 84.5294 27.0389Z" fill="#50C878"/>
<path d="M59.5166 32.5249C59.5166 39.2356 57.9796 45.0704 54.9412 49.8686C51.9063 54.6632 47.5057 58.4116 41.8565 61.012C40.739 61.5309 38.5605 62.3698 37.1264 62.8683C36.8807 59.32 36.7861 55.5548 36.8015 51.6362V51.5762C38.0218 50.8608 39.9108 49.6433 40.739 48.9483C45.338 45.0824 47.6711 39.5616 47.6711 32.5249C47.6711 25.4882 45.3415 19.9758 40.739 16.1051C40.6078 15.9925 40.4661 15.8798 40.3231 15.772C40.2156 15.6881 40.1093 15.603 40.0018 15.5263C36.844 13.1188 32.7093 11.5274 27.7051 10.8084C27.6177 10.7928 27.5267 10.7809 27.4357 10.7677C25.3636 10.4825 23.0978 10.3339 20.6938 10.3339H11.8442V54.7135H20.6938C21.2561 54.7135 22.6265 54.7099 23.392 54.6932C23.451 58.0521 23.6058 61.5046 23.8988 64.9402C23.0506 64.9522 21.6483 64.9558 21.0978 64.9558H11.8442V93.8324H0V0.0915833H21.099C29.1806 0.0915833 36.1648 1.39778 41.8612 3.97304C47.5057 6.53271 51.9075 10.2775 54.9424 15.1117C57.9808 19.9542 59.5177 25.8129 59.5177 32.5237L59.5166 32.5249Z" fill="white"/>
<path d="M0 93.8349V71.9698L11.8442 93.8349H0Z" fill="white"/>
<path d="M23.392 54.6944C23.451 58.0546 23.6058 61.5058 23.8988 64.9415C23.0517 64.9535 21.6495 64.9583 21.0978 64.9583H0V54.7148H20.6938C21.2573 54.7148 22.6276 54.7112 23.392 54.6944Z" fill="url(#paint0_linear_182_1668)"/>
<path d="M59.2567 37.153C58.7026 41.9476 57.259 46.2089 54.9412 49.8687C51.9063 54.6621 47.5058 58.4117 41.8565 61.0121C40.739 61.5298 38.5606 62.3699 37.1264 62.8684C36.8807 59.3201 36.7862 55.5548 36.8015 51.6362V51.5763C38.0219 50.8609 39.9108 49.6434 40.739 48.9483C45.0675 45.3102 47.39 40.2052 47.6475 33.7509L59.2567 37.153Z" fill="url(#paint1_linear_182_1668)"/>
<path d="M27.7063 10.8097C27.5669 11.0541 27.444 11.3034 27.3294 11.5646C26.7635 12.8385 26.415 14.4179 25.9236 17.2783C25.0482 22.3701 24.3843 28.6351 23.9531 34.9624H37.6048C38.1329 28.5308 38.8996 21.91 39.8435 16.4107C39.8955 16.1136 39.951 15.8164 40.0018 15.5264C36.8452 13.1201 32.7093 11.5287 27.7063 10.8097Z" fill="url(#paint2_linear_182_1668)"/>
<defs>
<filter id="filter0_d_182_1668" x="137" y="11" width="257.015" height="80.4061" filterUnits="userSpaceOnUse" color-interpolation-filters="sRGB">
<feFlood flood-opacity="0" result="BackgroundImageFix"/>
<feColorMatrix in="SourceAlpha" type="matrix" values="0 0 0 0 0 0 0 0 0 0 0 0 0 0 0 0 0 0 127 0" result="hardAlpha"/>
<feOffset dx="8" dy="4"/>
<feGaussianBlur stdDeviation="6.5"/>
<feComposite in2="hardAlpha" operator="out"/>
<feColorMatrix type="matrix" values="0 0 0 0 0 0 0 0 0 0 0 0 0 0 0 0 0 0 0.78 0"/>
<feBlend mode="normal" in2="BackgroundImageFix" result="effect1_dropShadow_182_1668"/>
<feBlend mode="normal" in="SourceGraphic" in2="effect1_dropShadow_182_1668" result="shape"/>
</filter>
<linearGradient id="paint0_linear_182_1668" x1="13.2571" y1="59.7766" x2="34.4007" y2="58.9684" gradientUnits="userSpaceOnUse">
<stop stop-color="white"/>
<stop offset="0.21" stop-color="#FCFCFC"/>
<stop offset="0.35" stop-color="#F3F3F3"/>
<stop offset="0.46" stop-color="#E5E5E5"/>
<stop offset="0.56" stop-color="#D0D0D0"/>
<stop offset="0.66" stop-color="#B5B5B5"/>
<stop offset="0.75" stop-color="#939393"/>
<stop offset="0.83" stop-color="#6C6C6C"/>
<stop offset="0.91" stop-color="#3E3E3E"/>
<stop offset="0.98" stop-color="#0C0C0C"/>
<stop offset="1"/>
</linearGradient>
<linearGradient id="paint1_linear_182_1668" x1="47.1939" y1="48.2497" x2="27.1451" y2="48.4896" gradientUnits="userSpaceOnUse">
<stop stop-color="white"/>
<stop offset="0.09" stop-color="#F5F5F5"/>
<stop offset="0.23" stop-color="#DADADA"/>
<stop offset="0.42" stop-color="#AFAFAF"/>
<stop offset="0.64" stop-color="#727272"/>
<stop offset="0.88" stop-color="#272727"/>
<stop offset="1"/>
</linearGradient>
<linearGradient id="paint2_linear_182_1668" x1="31.7347" y1="25.9568" x2="35.6051" y2="9.95862" gradientUnits="userSpaceOnUse">
<stop stop-color="#50C878"/>
<stop offset="0.28" stop-color="#45AD67"/>
<stop offset="0.89" stop-color="#29683D"/>
<stop offset="1" stop-color="#245B35"/>
</linearGradient>
</defs>
</svg>
