<svg width="251" height="54" viewBox="0 0 251 54" fill="none" xmlns="http://www.w3.org/2000/svg">
<g clip-path="url(#clip0_130_33)">
<path d="M24.0142 53.9377C21.5846 53.9377 19.1861 53.5722 16.8838 52.8498C14.5787 52.1264 12.3911 51.0589 10.3815 49.6764C7.03023 47.3518 4.43339 44.4536 2.6649 41.0634C0.896401 37.6751 0 33.8941 0 29.8273C0 26.2737 0.599869 23.0022 1.78308 20.103C2.96337 17.2086 4.79506 14.5408 7.22565 12.1734C9.56777 9.91296 12.1996 8.19891 15.0463 7.07793C17.8959 5.95791 21.0557 5.38915 24.4371 5.38915C27.1001 5.38915 29.7154 5.79846 32.2111 6.60542C34.49 7.34335 36.7806 8.47114 39.0168 9.95671L36.7641 13.1155C35.6013 12.2609 34.3734 11.5356 33.1289 10.9659C30.4543 9.74088 27.4637 9.12059 24.2407 9.12059C21.6313 9.12059 19.0471 9.65629 16.562 10.7131C14.075 11.7728 11.8914 13.2672 10.0704 15.1553C8.1833 17.1094 6.74828 19.3271 5.80327 21.7451C4.86118 24.1572 4.38284 26.8542 4.38284 29.7621C4.38284 32.041 4.66673 34.1731 5.22771 36.1011C5.79063 38.0388 6.64814 39.8461 7.77788 41.4717C9.75055 44.2766 12.2152 46.468 15.1046 47.9857C17.9932 49.5034 21.1549 50.2724 24.5023 50.2724C27.6445 50.2724 30.6069 49.6113 33.3059 48.3056C34.5144 47.7222 35.6956 46.996 36.8166 46.1482C36.8769 46.1025 36.9391 46.0928 36.9799 46.0928C37.0772 46.0928 37.1656 46.1423 37.2162 46.225L38.9332 49.059C39.01 49.1854 38.975 49.3478 38.8534 49.4295C36.7874 50.8178 34.5581 51.9038 32.2277 52.6553C29.5929 53.506 26.8288 53.9367 24.0132 53.9367L24.0142 53.9377Z" fill="white"/>
<path d="M58.1173 27.702C57.6536 27.6213 57.1713 27.5804 56.6726 27.5804C54.8525 27.5804 53.3096 28.0354 52.0428 28.9454C50.7769 29.8555 49.5821 31.3712 48.4572 33.4945V28.4107H44.7374V52.8935H48.885V40.9603C48.885 37.749 49.4372 35.3457 50.5436 33.7493C51.65 32.1528 53.3086 31.3546 55.5205 31.3546C55.9132 31.3546 56.3235 31.3945 56.7513 31.4752C57.1801 31.5549 57.6351 31.6765 58.1163 31.8369L59.5076 28.0646C59.0438 27.9032 58.5801 27.7836 58.1163 27.7029L58.1173 27.702Z" fill="white"/>
<path d="M80.9483 28.4107V33.0123C80.0198 31.1923 78.8026 29.8243 77.2956 28.9056C75.7887 27.9868 74.0085 27.5269 71.9571 27.5269C68.4609 27.5269 65.6687 28.7179 63.5822 31.0989C61.4948 33.4809 60.4516 36.6883 60.4516 40.7192C60.4516 44.7501 61.5269 47.8953 63.6765 50.3113C65.8262 52.7292 68.6573 53.9367 72.1719 53.9367C74.0629 53.9367 75.7711 53.4691 77.2966 52.5319C78.822 51.5956 80.0752 50.2354 81.0562 48.4514V52.8935H85.1231V28.4107H80.9493H80.9483ZM78.928 47.4218C77.5105 48.9832 75.5524 49.7629 73.0547 49.7629C70.5571 49.7629 68.4395 48.9608 67.021 47.3557C65.6035 45.7496 64.8938 43.4667 64.8938 40.5053C64.8938 37.7218 65.5987 35.5547 67.0074 34.003C68.4172 32.4513 70.3791 31.6755 72.8943 31.6755C75.4095 31.6755 77.2878 32.5184 78.7948 34.2043C80.3018 35.8901 81.0562 38.1146 81.0562 40.8806C81.0562 43.6466 80.3475 45.8614 78.929 47.4228L78.928 47.4218Z" fill="white"/>
<path d="M97.838 10.2455C98.3017 9.46088 99.1505 9.06809 100.38 9.06809C100.951 9.06809 101.509 9.13907 102.053 9.28198C102.597 9.4249 103.137 9.64852 103.672 9.95088V5.61666C103.119 5.42027 102.544 5.27832 101.947 5.1879C101.348 5.09943 100.72 5.05373 100.06 5.05373C97.4014 5.05373 95.56 5.77222 94.5343 7.20821C93.5086 8.6442 92.9962 11.3956 92.9962 15.4625V28.4117H88.2867V31.8641H92.9962V52.8955H97.2507V31.8641H105.333V28.4117H97.1438V16.0254C97.1438 12.957 97.3752 11.031 97.8389 10.2464L97.838 10.2455Z" fill="white"/>
<path d="M112.663 28.4107V12.6799H108.382V28.4107H103.886V31.8631H108.382V52.8945H112.663V31.8631H117.158V28.4107H112.663Z" fill="white"/>
<path d="M126.376 17.6685C125.778 17.0618 125.061 16.7585 124.222 16.7585C123.384 16.7585 122.639 17.057 122.042 17.6549C121.444 18.2528 121.145 18.9713 121.145 19.8084C121.145 20.6455 121.444 21.4145 122.042 22.0027C122.64 22.5909 123.367 22.8865 124.222 22.8865C125.078 22.8865 125.801 22.5919 126.39 22.0027C126.978 21.4145 127.273 20.7009 127.273 19.8619C127.273 19.0228 126.974 18.2742 126.376 17.6685ZM122.135 28.4107V52.8935H126.363V28.4107H122.135Z" fill="white"/>
<path d="M162.796 37.0918C162.711 36.9858 162.576 36.8779 162.225 36.8779C162.04 36.8779 161.956 36.8896 161.932 36.8935L161.888 36.9071L160.268 37.2075C159.214 37.4243 158.242 37.6042 157.357 37.7442C156.17 37.9308 155.14 38.0495 154.275 38.0942L152.726 38.1749L153.321 36.7428C154.195 34.632 154.638 32.7488 154.638 31.1456C154.638 29.8905 154.368 28.9464 153.837 28.3417C153.324 27.7583 152.691 27.4851 151.848 27.4851C150.783 27.4851 149.859 27.7992 149.023 28.4418C148.147 29.1156 147.445 30.0081 146.935 31.097C146.42 32.1976 146.158 33.3448 146.158 34.5076C146.158 35.8891 146.414 37.084 146.918 38.0592L147.161 38.5297L146.901 38.9906C146.408 39.8967 145.68 41.1635 144.707 42.619C142.503 45.9129 140.924 48.2764 140.108 48.0042C138.153 47.3518 138.934 31.0144 139.041 29.4063C139.058 29.1545 139.134 28.3543 138.634 27.8945C138.342 27.6271 137.799 27.4851 137.063 27.4851C135.99 27.4851 135.173 27.6767 134.699 28.0383C134.293 28.3495 134.071 28.9902 134.041 29.943V31.9565C134.041 35.9689 134.274 40.7202 134.733 46.0772C134.948 48.5506 135.461 50.3541 136.258 51.4381C136.975 52.4181 137.941 52.8945 139.208 52.8945C140.474 52.8945 141.502 52.5562 142.461 51.862C143.488 51.1182 144.758 49.6745 146.233 47.5715C147.568 45.6659 148.805 43.7905 149.914 41.9958L150.309 41.3512L151.033 41.5738C152.44 42.0074 153.963 42.2271 155.558 42.2271C155.777 42.2271 155.995 42.2233 156.212 42.2155C157.872 42.1591 159.456 41.8869 160.93 41.4066C161.223 41.3094 161.481 41.1927 161.709 41.0546L162.936 37.3426C162.898 37.2464 162.851 37.1618 162.796 37.0918ZM151.127 33.6443C150.746 34.5397 149.898 35.6091 149.459 35.5012C148.944 35.3748 148.917 33.6219 149.791 32.289C150.096 31.8252 150.758 31.0348 151.144 31.1359C151.597 31.2555 151.579 32.5835 151.127 33.6443Z" fill="white"/>
<path d="M186.535 41.8674C186.398 41.6496 186.296 41.6321 186.176 41.6321C185.995 41.6321 185.714 41.6808 185.361 42.093C184.92 42.619 184.504 43.108 184.11 43.5611C182.873 44.9854 181.86 46.051 181.036 46.7986C179.794 47.9254 178.708 48.4738 177.711 48.4738C176.957 48.4738 176.305 48.1714 175.829 47.5997C175.39 47.0728 175.168 46.3942 175.168 45.5814C175.168 43.7584 175.61 40.6609 176.518 36.1225C177.223 32.4134 177.371 31.0212 177.371 30.5078C177.371 30.4155 177.342 30.2337 177.272 30.012C176.889 28.8132 175.597 28.2347 174.969 27.9645C173.691 27.4122 172.277 27.2557 170.522 27.4278C169.195 27.5581 166.363 27.7603 163.521 29.7699C161.284 31.3527 159.465 33.478 158.114 36.0885C157.832 36.6319 157.58 37.1842 157.357 37.7442C156.781 39.187 156.399 40.6813 156.212 42.2155C156.123 42.9427 156.079 43.6787 156.079 44.4225C156.079 46.9979 156.725 49.0911 158.001 50.6418C159.246 52.1576 160.877 52.8945 162.985 52.8945C165.7 52.8945 167.912 51.4527 169.748 48.4874L170.816 46.7626L171.501 48.6721C171.979 50.0031 172.686 51.0589 173.605 51.8105C174.497 52.5396 175.441 52.8945 176.494 52.8945C177.93 52.8945 179.466 52.2781 181.061 51.0648C182.192 50.2043 183.294 49.201 184.352 48.0693C184.892 47.4937 185.42 46.8851 185.935 46.2444L185.957 46.2182C186.53 45.5541 186.821 44.5595 186.821 43.2626C186.821 42.6501 186.722 42.1678 186.535 41.8674ZM170.146 42.7094C169.77 44.509 169.143 45.9878 168.282 47.1058C167.318 48.36 166.238 48.9949 165.072 48.9949C163.906 48.9949 162.986 48.5729 162.32 47.7738C161.68 47.0067 161.369 45.9294 161.369 44.4798C161.369 43.3122 161.482 42.1678 161.709 41.0546C161.925 39.991 162.243 38.9546 162.663 37.9561C162.75 37.7481 162.841 37.5429 162.936 37.3426C163.773 35.5537 164.871 34.0701 166.203 32.9258C167.744 31.6016 169.463 30.9074 171.31 30.8627L172.534 30.8335L170.146 42.7094Z" fill="white"/>
<path d="M201.597 52.8945C200.073 52.8945 199.04 52.3627 198.346 51.2193C197.575 49.9516 197.184 48.0946 197.184 45.698C196.659 47.0348 195.693 48.8801 193.913 50.497C193.172 51.1698 191.251 52.914 189.016 52.8945C188.767 52.8926 188.223 52.8848 187.587 52.6359C186.814 52.3326 186.144 51.7619 185.562 50.9131C184.579 49.4829 184.081 47.6503 184.081 45.4666C184.081 42.6316 184.272 40.0017 184.649 37.6499C185.025 35.2961 185.656 32.7624 186.525 30.1189C186.842 29.1681 187.268 28.4914 187.792 28.1132C188.151 27.8546 188.917 27.5444 190.524 27.5444C191.437 27.5444 191.669 27.7263 191.671 27.7282C191.703 27.7545 191.806 27.84 191.806 28.19C191.804 28.2804 191.75 28.7734 191.199 31.0795C190.811 32.5145 190.495 33.8387 190.26 35.0132C189.466 39.1763 189.081 41.8908 189.081 43.3219C189.081 44.3369 189.216 45.0379 189.507 45.5298C189.875 46.1569 190.504 46.503 191.278 46.503C192.204 46.503 193.144 45.8264 194.234 44.3729C195.162 43.1362 196.111 41.3424 197.137 38.8875C198.135 36.5017 199.115 33.5344 200.049 30.0684C200.302 29.1214 200.665 28.4564 201.13 28.0889C201.588 27.7282 202.35 27.5454 203.395 27.5454C204.439 27.5454 204.709 27.7019 204.74 27.7214C204.738 27.7214 204.793 27.807 204.793 28.0743C204.793 28.6849 204.546 30.5214 203.366 35.8046C202.258 40.8709 201.719 43.9354 201.719 45.1779C201.719 46.1287 201.943 46.9046 202.383 47.4821C202.878 48.1315 203.569 48.4757 204.378 48.4757C205.41 48.4757 206.523 47.9303 207.783 46.8073C208.892 45.8196 210.318 44.2786 212.145 42.0959C212.499 41.6837 212.779 41.6351 212.959 41.6351C213.079 41.6351 213.182 41.6526 213.318 41.8713C213.505 42.1708 213.604 42.653 213.604 43.2655C213.604 44.5625 213.313 45.5571 212.741 46.2201L212.721 46.2434C211.126 48.2103 209.39 49.8436 207.564 51.0968C205.826 52.2907 203.818 52.8965 201.596 52.8965L201.597 52.8945Z" fill="white"/>
<path d="M234.042 40.5267C233.876 40.3196 233.501 40.0377 232.547 40.0775C232.438 40.2331 232.331 40.3828 232.227 40.5257C231.75 41.1898 231.338 41.7216 231.044 42.0959C228.5 45.3179 226.796 46.541 226.306 46.9123C224.939 47.9478 223.336 48.4738 221.54 48.4738C220.253 48.4738 219.19 48.0246 218.384 47.1408C217.628 46.3154 217.113 45.0437 216.807 43.2529L216.737 42.8445L216.983 42.5101C221.286 36.6475 224.739 30.6478 227.248 24.6783C229.736 18.7603 230.998 13.5034 230.998 9.05643C230.998 6.04833 230.511 3.73441 229.551 2.17883C228.67 0.75451 227.51 0.0622787 226.005 0.0622787C223.078 0.0622787 220.581 2.02036 218.369 6.04833C216.051 10.2707 214.271 15.4051 213.078 21.3085C211.879 27.2469 211.272 32.604 211.272 37.2328C211.272 39.186 211.407 40.9944 211.675 42.652C211.894 44.0024 212.201 45.2508 212.596 46.3961C212.889 47.2468 213.232 48.0411 213.621 48.7752C215.092 51.547 217.285 52.8945 220.323 52.8945C222.587 52.8945 224.637 52.2869 226.415 51.09C228.277 49.8359 230.03 48.2044 231.622 46.2405L231.642 46.2182C232.122 45.6572 232.543 45.1089 232.899 44.5868C234.153 42.7473 234.605 41.2238 234.042 40.5267ZM216.388 35.2446C216.465 30.8452 216.939 26.1901 217.794 21.4067C218.65 16.6243 219.657 12.5555 220.791 9.3131C222.129 5.48055 223.308 3.84525 224.729 3.84525C227.331 3.84525 227.331 7.89849 227.331 9.22948C227.331 13.0747 226.493 17.369 224.839 21.9949C223.202 26.5761 220.969 31.2098 218.203 35.7696L216.324 38.8652L216.388 35.2446Z" fill="white"/>
<path d="M250.876 27.2528C250.83 27.2158 250.646 27.1381 250.239 27.1381H241.163L243.097 25.4269C245.499 23.3016 247.323 20.9673 248.516 18.4881C249.702 16.0244 250.304 13.3391 250.304 10.5051C250.304 8.54309 249.889 6.90876 249.07 5.64582C248.318 4.48692 247.363 3.94636 246.065 3.94636C244.13 3.94636 242.346 4.86706 240.611 6.76001C238.79 8.74726 237.206 11.4715 235.904 14.8568C234.582 18.2917 233.586 22.1447 232.943 26.3087L232.814 27.1381H228.672C227.882 27.1381 227.04 27.3131 227.04 29.4063C227.04 30.0509 227.161 30.5312 227.38 30.7606C227.433 30.816 227.762 31.0951 229.019 31.0951H232.326L232.256 32.1383C232.143 33.8484 232.084 35.5625 232.084 37.2328C232.084 38.382 232.132 39.4806 232.227 40.5257C232.359 41.9821 232.583 43.3374 232.899 44.5868C233.294 46.1569 233.833 47.5608 234.514 48.7897C236.041 51.5519 238.398 52.8945 241.716 52.8945C244.054 52.8945 246.088 52.1517 247.934 50.6253L247.946 50.6156C248.4 50.2529 248.731 49.8106 248.959 49.2642C249.197 48.6915 249.318 48.0965 249.318 47.4947C249.318 46.9318 249.213 46.4583 249.007 46.0859C248.904 45.9003 248.811 45.8059 248.732 45.8059C248.517 45.8059 248.278 45.9839 248.106 46.1394C247.34 46.82 246.477 47.381 245.542 47.8058C244.554 48.255 243.7 48.4738 242.933 48.4738C241.471 48.4738 240.292 48.0353 239.43 47.1729C238.603 46.3465 238.04 45.0787 237.711 43.2956C237.411 41.6788 237.259 39.4242 237.259 36.595C237.259 35.4915 237.298 33.9573 237.376 32.0333L237.414 31.0951H245.427C247.417 31.0951 248.899 30.8063 249.83 30.2375C250.629 29.7505 251 29.0631 251 28.0724C251 27.4793 250.894 27.2829 250.876 27.2528ZM239.573 26.0297L237.616 27.7214L237.963 25.1586C238.391 22.0115 238.934 19.0996 239.578 16.5028C240.231 13.8729 240.937 11.7777 241.679 10.2756C242.303 9.00976 243.188 7.55627 244.499 7.55627C246.753 7.55627 246.753 10.8667 246.753 11.9547C246.753 14.0975 246.147 16.4892 244.952 19.0636C243.758 21.6323 241.948 23.9763 239.573 26.0297Z" fill="white"/>
</g>
<defs>
<clipPath id="clip0_130_33">
<rect width="251" height="53.8754" fill="white" transform="translate(0 0.0622787)"/>
</clipPath>
</defs>
</svg>
