<svg width="251" height="52" viewBox="0 0 251 52" fill="none" xmlns="http://www.w3.org/2000/svg">
<path d="M23.0671 51.5503C20.7336 51.5503 18.4292 51.1992 16.2182 50.5056C14.0043 49.8101 11.9022 48.7849 9.97234 47.4581C6.75263 45.2257 4.25857 42.4418 2.5602 39.1851C0.860858 35.9284 0 32.2973 0 28.3908C0 24.9775 0.575851 21.8357 1.71296 19.0498C2.84716 16.2697 4.60583 13.7076 6.94037 11.4334C9.19027 9.26226 11.7184 7.61545 14.4527 6.53962C17.1899 5.46379 20.2248 4.91809 23.4737 4.91809C26.032 4.91809 28.5445 5.31107 30.9413 6.08633C33.1309 6.79544 35.3302 7.87808 37.4789 9.30604L35.3156 12.34C34.198 11.519 33.019 10.8225 31.8245 10.2749C29.2556 9.09885 26.3831 8.50257 23.2869 8.50257C20.7802 8.50257 18.2988 9.01714 15.9108 10.0317C13.5218 11.0492 11.4246 12.4849 9.67566 14.298C7.86348 16.1754 6.48416 18.3057 5.57758 20.6285C4.67198 22.9455 4.21286 25.5359 4.21286 28.3295C4.21286 30.5182 4.48619 32.5667 5.02411 34.4188C5.56397 36.2806 6.38883 38.0159 7.47439 39.5771C9.36925 42.2716 11.7369 44.3756 14.512 45.8337C17.2862 47.2918 20.324 48.0301 23.5389 48.0301C26.5572 48.0301 29.4024 47.3949 31.9957 46.141C33.1571 45.5808 34.2913 44.8833 35.3681 44.0691C35.4265 44.0254 35.4858 44.0156 35.5257 44.0156C35.6191 44.0156 35.7037 44.0633 35.7524 44.1431L37.4011 46.8647C37.4741 46.9863 37.441 47.142 37.3243 47.2198C35.3399 48.5534 33.199 49.5961 30.9598 50.3189C28.4287 51.136 25.7742 51.5503 23.07 51.5503H23.0671Z" fill="white"/>
<path d="M55.8255 26.3491C55.3799 26.2713 54.9169 26.2323 54.4374 26.2323C52.6894 26.2323 51.207 26.6691 49.9911 27.5436C48.7752 28.4171 47.6274 29.8742 46.5467 31.913V27.029H42.9739V50.5465H46.9581V39.0839C46.9581 35.9994 47.4892 33.6912 48.5514 32.1572C49.6137 30.6242 51.207 29.8567 53.3324 29.8567C53.7098 29.8567 54.1037 29.8956 54.5152 29.9725C54.9267 30.0493 55.3634 30.166 55.8264 30.3197L57.1629 26.6963C56.7174 26.5417 56.2719 26.4259 55.8264 26.3491H55.8255Z" fill="white"/>
<path d="M77.7564 27.03V31.45C76.8644 29.7021 75.6952 28.3869 74.2478 27.5047C72.8004 26.6224 71.0904 26.1808 69.1206 26.1808C65.7628 26.1808 63.081 27.3247 61.0762 29.6116C59.0714 31.8994 58.0685 34.98 58.0685 38.8524C58.0685 42.7248 59.1006 45.7461 61.1657 48.067C63.2308 50.3899 65.9505 51.5494 69.3258 51.5494C71.1419 51.5494 72.7829 51.1 74.2478 50.2002C75.7137 49.3004 76.917 47.995 77.8595 46.2801V50.5465H81.766V27.029H77.7574L77.7564 27.03ZM75.8149 45.2919C74.4531 46.7908 72.5718 47.5408 70.1731 47.5408C67.7744 47.5408 65.7394 46.7704 64.3766 45.2286C63.0148 43.6859 62.333 41.4924 62.333 38.6482C62.333 35.9751 63.01 33.8925 64.363 32.4023C65.7171 30.9121 67.6022 30.167 70.0175 30.167C72.4327 30.167 74.2371 30.9763 75.6855 32.5959C77.1329 34.2155 77.8576 36.3525 77.8576 39.0091C77.8576 41.6656 77.1767 43.7939 75.8139 45.2928L75.8149 45.2919Z" fill="white"/>
<path d="M93.9804 9.58034C94.4259 8.82648 95.2411 8.44907 96.422 8.44907C96.9706 8.44907 97.5056 8.51716 98.0279 8.65431C98.5513 8.79147 99.0687 9.00644 99.5833 9.29631V5.13306C99.0512 4.94435 98.4997 4.8072 97.9258 4.7216C97.3509 4.636 96.7469 4.5932 96.1136 4.5932C93.5602 4.5932 91.7918 5.28383 90.8065 6.66315C89.8211 8.04247 89.3289 10.6854 89.3289 14.5918V27.03H84.8048V30.346H89.3289V50.5475H93.4153V30.346H101.179V27.03H93.3132V15.1317C93.3132 12.1843 93.5349 10.3342 93.9804 9.58034Z" fill="white"/>
<path d="M108.22 27.03V11.9197H104.108V27.03H99.7905V30.346H104.108V50.5475H108.22V30.346H112.538V27.03H108.22Z" fill="white"/>
<path d="M121.392 16.7114C120.818 16.1287 120.128 15.8379 119.323 15.8379C118.517 15.8379 117.801 16.1248 117.228 16.6987C116.654 17.2726 116.367 17.9633 116.367 18.7677C116.367 19.5721 116.654 20.3104 117.228 20.8756C117.801 21.4407 118.5 21.7238 119.323 21.7238C120.146 21.7238 120.839 21.4407 121.404 20.8756C121.97 20.3104 122.253 19.6247 122.253 18.8193C122.253 18.0138 121.965 17.294 121.391 16.7123L121.392 16.7114ZM117.319 27.03V50.5475H121.38V27.03H117.319Z" fill="white"/>
<path d="M189.078 40.1559C188.946 39.9467 188.848 39.9302 188.733 39.9302C188.559 39.9302 188.29 39.9769 187.95 40.3728C187.527 40.8776 187.127 41.3475 186.749 41.7832C185.56 43.1519 184.586 44.1752 183.796 44.893C182.603 45.9757 181.559 46.5019 180.601 46.5019C179.877 46.5019 179.251 46.2111 178.793 45.6625C178.372 45.1566 178.158 44.5049 178.158 43.7238C178.158 41.9729 178.583 38.9974 179.455 34.6376C180.132 31.0746 180.274 29.7371 180.274 29.2449C180.274 29.1563 180.246 28.9813 180.179 28.7682C179.812 27.6165 178.571 27.0611 177.968 26.8014C176.74 26.2713 175.382 26.1205 173.697 26.2858C172.422 26.4113 169.702 26.6049 166.971 28.5357C164.823 30.0561 163.076 32.0979 161.777 34.6055C161.507 35.1279 161.265 35.658 161.051 36.1959C160.497 37.5821 160.129 39.0168 159.95 40.4905C159.866 41.1889 159.822 41.8961 159.822 42.6101C159.822 45.0837 160.443 47.0943 161.668 48.5845C162.865 50.0407 164.431 50.7488 166.456 50.7488C169.064 50.7488 171.188 49.3637 172.952 46.5155L173.977 44.859L174.636 46.6935C175.094 47.9717 175.774 48.9862 176.657 49.708C177.513 50.4084 178.42 50.7488 179.431 50.7488C180.81 50.7488 182.286 50.1564 183.819 48.9911C184.906 48.1643 185.963 47.2013 186.98 46.1138C187.499 45.5613 188.006 44.9767 188.501 44.361L188.522 44.3357C189.073 43.6976 189.352 42.7423 189.352 41.4963C189.352 40.9078 189.257 40.4448 189.078 40.1559ZM173.335 40.9642C172.973 42.6927 172.371 44.1129 171.545 45.1868C170.619 46.391 169.581 47.0009 168.462 47.0009C167.342 47.0009 166.458 46.5953 165.819 45.8278C165.203 45.0915 164.904 44.0565 164.904 42.6636C164.904 41.542 165.013 40.4428 165.231 39.3738C165.438 38.3525 165.744 37.3564 166.148 36.3973C166.231 36.1979 166.319 36.0004 166.41 35.8078C167.215 34.089 168.269 32.664 169.548 31.5648C171.029 30.2925 172.679 29.6262 174.454 29.5834L175.63 29.5552L173.336 40.9623L173.335 40.9642Z" fill="#50C878"/>
<path d="M203.546 50.7478C202.083 50.7478 201.09 50.2362 200.422 49.139C199.681 47.9211 199.306 46.1371 199.306 43.8357C198.801 45.1197 197.874 46.892 196.164 48.4454C195.452 49.0923 193.607 50.7673 191.46 50.7478C191.22 50.7459 190.697 50.7391 190.086 50.4988C189.344 50.208 188.7 49.6594 188.141 48.8442C187.197 47.4707 186.719 45.7101 186.719 43.612C186.719 40.8883 186.903 38.3622 187.263 36.1026C187.624 33.8419 188.231 31.4082 189.066 28.8684C189.37 27.955 189.78 27.3053 190.283 26.9415C190.628 26.6924 191.363 26.3958 192.907 26.3958C193.785 26.3958 194.007 26.5709 194.009 26.5718C194.039 26.5971 194.14 26.6788 194.14 27.0154C194.137 27.1029 194.085 27.5757 193.556 29.7906C193.183 31.1689 192.88 32.4403 192.654 33.5696C191.892 37.5684 191.522 40.1763 191.522 41.5508C191.522 42.5254 191.652 43.1995 191.932 43.6713C192.285 44.2734 192.889 44.6061 193.632 44.6061C194.522 44.6061 195.425 43.9553 196.472 42.5595C197.363 41.3718 198.275 39.6481 199.26 37.2902C200.218 34.9985 201.16 32.1484 202.058 28.8188C202.3 27.9083 202.649 27.2702 203.096 26.9171C203.536 26.5709 204.269 26.3948 205.271 26.3948C206.274 26.3948 206.534 26.5456 206.564 26.564C206.562 26.564 206.615 26.6458 206.615 26.9035C206.615 27.4901 206.377 29.2546 205.245 34.3283C204.18 39.1948 203.664 42.1383 203.664 43.3318C203.664 44.2452 203.878 44.9903 204.302 45.5448C204.776 46.1683 205.44 46.499 206.218 46.499C207.208 46.499 208.278 45.9747 209.488 44.8959C210.553 43.9475 211.923 42.4671 213.678 40.3699C214.017 39.974 214.288 39.9273 214.461 39.9273C214.576 39.9273 214.674 39.9438 214.806 40.1539C214.986 40.4409 215.08 40.9049 215.08 41.4934C215.08 42.7394 214.801 43.6946 214.251 44.3318L214.232 44.3541C212.699 46.2432 211.033 47.8122 209.279 49.0164C207.61 50.1632 205.681 50.7449 203.546 50.7449V50.7478Z" fill="#50C878"/>
<path d="M234.712 38.868C234.552 38.6696 234.191 38.3982 233.275 38.4361C233.17 38.5859 233.068 38.7289 232.968 38.867C232.51 39.5051 232.115 40.0158 231.832 40.3757C229.387 43.4709 227.751 44.646 227.28 45.002C225.967 45.9961 224.427 46.5019 222.703 46.5019C221.466 46.5019 220.445 46.07 219.672 45.2218C218.945 44.429 218.45 43.2073 218.157 41.4875L218.09 41.0955L218.326 40.7745C222.458 35.1434 225.776 29.3801 228.187 23.6459C230.577 17.9613 231.789 12.9119 231.789 8.63971C231.789 5.75073 231.321 3.52709 230.398 2.03299C229.552 0.664369 228.438 0 226.992 0C224.181 0 221.782 1.88124 219.657 5.74976C217.43 9.806 215.72 14.7377 214.575 20.4077C213.423 26.1117 212.839 31.2574 212.839 35.7037C212.839 37.5801 212.969 39.3174 213.226 40.9097C213.436 42.2073 213.731 43.4057 214.111 44.5059C214.393 45.323 214.721 46.0856 215.096 46.7908C216.509 49.4531 218.615 50.7478 221.533 50.7478C223.708 50.7478 225.677 50.1642 227.385 49.0145C229.174 47.8092 230.858 46.2422 232.387 44.3561L232.405 44.3347C232.867 43.7958 233.271 43.2696 233.613 42.7676C234.817 41.0012 235.252 39.5372 234.711 38.868H234.712ZM217.754 33.7943C217.828 29.5688 218.283 25.0972 219.104 20.502C219.926 15.9079 220.894 11.9995 221.983 8.88581C223.269 5.20406 224.401 3.63311 225.766 3.63311C228.265 3.63311 228.265 7.52692 228.265 8.80507C228.265 12.4985 227.459 16.6238 225.871 21.0672C224.298 25.4678 222.153 29.919 219.496 34.2981L217.691 37.2718L217.752 33.7943H217.754Z" fill="#50C878"/>
<path d="M250.881 26.1176C250.838 26.0825 250.661 26.0076 250.269 26.0076H241.552L243.41 24.3637C245.717 22.322 247.469 20.0799 248.616 17.6987C249.755 15.332 250.334 12.7524 250.334 10.0307C250.334 8.14653 249.935 6.57656 249.149 5.36358C248.426 4.25079 247.509 3.73135 246.262 3.73135C244.403 3.73135 242.69 4.61556 241.023 6.43357C239.274 8.34205 237.753 10.9596 236.502 14.2115C235.231 17.5109 234.275 21.2121 233.657 25.212L233.534 26.0086H229.554C228.796 26.0086 227.987 26.1769 227.987 28.1875C227.987 28.8071 228.103 29.2682 228.313 29.488C228.365 29.5415 228.68 29.809 229.888 29.809H233.065L232.998 30.8109C232.889 32.4539 232.833 34.0997 232.833 35.7047C232.833 36.8087 232.878 37.8641 232.97 38.868C233.097 40.2668 233.311 41.5692 233.615 42.7686C233.994 44.2773 234.512 45.6255 235.166 46.8054C236.633 49.459 238.897 50.7478 242.084 50.7478C244.33 50.7478 246.284 50.0348 248.057 48.568L248.068 48.5582C248.504 48.21 248.822 47.7849 249.041 47.2597C249.27 46.7091 249.385 46.1381 249.385 45.5603C249.385 45.0195 249.284 44.5652 249.087 44.2073C248.987 44.0292 248.898 43.9378 248.822 43.9378C248.616 43.9378 248.386 44.109 248.221 44.2578C247.485 44.9115 246.657 45.4504 245.758 45.8589C244.81 46.2908 243.99 46.5009 243.252 46.5009C241.848 46.5009 240.714 46.0797 239.888 45.251C239.093 44.4572 238.552 43.2394 238.236 41.5264C237.948 39.973 237.802 37.8077 237.802 35.0899C237.802 34.0297 237.839 32.556 237.914 30.7078L237.95 29.8071H245.647C247.559 29.8071 248.983 29.5299 249.877 28.9832C250.643 28.5153 251 27.8548 251 26.9035C251 26.3335 250.898 26.1448 250.88 26.1166L250.881 26.1176ZM240.025 24.9425L238.145 26.5679L238.478 24.106C238.889 21.0828 239.41 18.2862 240.03 15.7912C240.656 13.265 241.335 11.2524 242.048 9.80989C242.647 8.59399 243.497 7.19813 244.756 7.19813C246.921 7.19813 246.921 10.378 246.921 11.4227C246.921 13.4809 246.339 15.7785 245.191 18.2512C244.044 20.719 242.306 22.9698 240.025 24.9425Z" fill="#50C878"/>
<path d="M138.868 51.028C135.637 51.028 133.27 49.137 131.631 45.2481C129.87 41.0703 128.977 35.2981 128.977 28.0922C128.977 21.8678 129.424 16.2075 130.306 11.2709C130.677 9.12414 131.146 8.3411 131.391 8.06485C131.736 7.67868 132.476 7.47343 133.53 7.47343C135.693 7.47343 135.874 8.39168 135.874 9.3323C135.874 9.42277 135.861 9.6747 135.778 10.343C134.697 16.8378 134.149 22.8094 134.149 28.0912C134.149 33.6902 134.631 38.0315 135.582 40.9954C136.673 44.3989 138.45 46.1245 140.862 46.1245C143.126 46.1245 145.422 44.7141 147.88 41.8144C150.133 39.155 152.222 35.7806 154.091 31.7866L154.547 30.811L153.633 30.2419C151.639 29.0007 150.118 27.3743 149.112 25.4094C148.092 23.4183 147.574 21.075 147.574 18.4428C147.574 15.8106 147.983 13.5354 148.788 11.7447C149.566 10.0152 150.628 8.71365 151.944 7.87809C153.266 7.03765 154.761 6.6116 156.387 6.6116C158.32 6.6116 159.803 7.27694 160.918 8.64459C162.079 10.0677 162.666 12.0948 162.666 14.6696C162.666 18.6393 161.785 23.0516 160.046 27.7819L159.542 29.1534L160.982 29.3976C162.944 29.7312 165.208 29.8995 167.709 29.8995C168.264 29.8995 168.574 30.0055 168.678 30.1048C168.771 30.1933 168.866 30.3256 168.866 30.6261C168.866 31.2895 168.677 31.8576 168.286 32.3625C167.959 32.7836 167.406 33.0006 166.595 33.0249C166.251 33.0336 165.901 33.0385 165.562 33.0385C163.221 33.0385 161.095 32.8264 159.244 32.4082L158.298 32.1942L157.88 33.0696C155.401 38.2717 152.374 42.6451 148.882 46.0671C145.522 49.3608 142.153 51.0299 138.87 51.0299L138.868 51.028ZM155.094 10.3284C154.099 10.3284 152.695 10.734 151.653 12.6639C150.938 13.9868 150.591 15.7532 150.591 18.0654C150.591 21.9757 151.898 24.9328 154.475 26.8549L155.803 27.8451L156.347 26.281C157.787 22.1469 158.518 18.6568 158.518 15.9089C158.518 14.1716 158.272 12.8925 157.769 11.9976C157.161 10.9208 156.21 10.3284 155.094 10.3284Z" fill="#50C878"/>
</svg>
