<svg width="543" height="47" viewBox="0 0 543 47" fill="none" xmlns="http://www.w3.org/2000/svg">
<path d="M24.752 46.64C21.3387 46.64 18.16 46.0853 15.216 44.976C12.3147 43.824 9.776 42.224 7.6 40.176C5.46667 38.0853 3.80267 35.632 2.608 32.816C1.41333 30 0.816 26.928 0.816 23.6C0.816 20.272 1.41333 17.2 2.608 14.384C3.80267 11.568 5.488 9.136 7.664 7.088C9.84 4.99733 12.3787 3.39733 15.28 2.288C18.1813 1.136 21.36 0.559998 24.816 0.559998C28.4853 0.559998 31.8347 1.2 34.864 2.48C37.8933 3.71733 40.4533 5.57333 42.544 8.048L37.168 13.104C35.5467 11.3547 33.7333 10.0533 31.728 9.2C29.7227 8.304 27.5467 7.856 25.2 7.856C22.8533 7.856 20.6987 8.24 18.736 9.008C16.816 9.776 15.1307 10.864 13.68 12.272C12.272 13.68 11.1627 15.344 10.352 17.264C9.584 19.184 9.2 21.296 9.2 23.6C9.2 25.904 9.584 28.016 10.352 29.936C11.1627 31.856 12.272 33.52 13.68 34.928C15.1307 36.336 16.816 37.424 18.736 38.192C20.6987 38.96 22.8533 39.344 25.2 39.344C27.5467 39.344 29.7227 38.9173 31.728 38.064C33.7333 37.168 35.5467 35.824 37.168 34.032L42.544 39.152C40.4533 41.584 37.8933 43.44 34.864 44.72C31.8347 46 28.464 46.64 24.752 46.64ZM59.476 46V1.2H77.908C81.876 1.2 85.268 1.84 88.084 3.12C90.9427 4.4 93.14 6.23466 94.676 8.624C96.212 11.0133 96.98 13.8507 96.98 17.136C96.98 20.4213 96.212 23.2587 94.676 25.648C93.14 27.9947 90.9427 29.808 88.084 31.088C85.268 32.3253 81.876 32.944 77.908 32.944H64.084L67.796 29.168V46H59.476ZM88.788 46L77.46 29.744H86.356L97.748 46H88.788ZM67.796 30.064L64.084 26.096H77.524C81.1933 26.096 83.9453 25.3067 85.78 23.728C87.6573 22.1493 88.596 19.952 88.596 17.136C88.596 14.2773 87.6573 12.08 85.78 10.544C83.9453 9.008 81.1933 8.24 77.524 8.24H64.084L67.796 4.144V30.064ZM108.912 46L129.072 1.2H137.264L157.488 46H148.785L131.44 5.616H134.768L117.488 46H108.912ZM118.192 35.632L120.432 29.104H144.625L146.864 35.632H118.192ZM179.762 21.808H202.098V28.848H179.762V21.808ZM180.466 46H172.146V1.2H204.85V8.176H180.466V46ZM231.256 46V8.24H216.408V1.2H254.424V8.24H239.576V46H231.256ZM269.628 46V1.2H277.948V46H269.628Z" fill="white"/>
<path d="M311.962 46L292.378 1.2H301.402L318.874 41.712H313.69L331.354 1.2H339.674L320.154 46H311.962ZM345.588 46L365.748 1.2H373.94L394.164 46H385.46L368.116 5.616H371.444L354.164 46H345.588ZM354.868 35.632L357.108 29.104H381.3L383.54 35.632H354.868ZM427.147 46.64C421.003 46.64 416.182 44.912 412.683 41.456C409.227 38 407.499 33.008 407.499 26.48V1.2H415.819V26.16C415.819 30.768 416.801 34.1173 418.763 36.208C420.769 38.2987 423.585 39.344 427.211 39.344C430.838 39.344 433.633 38.2987 435.595 36.208C437.558 34.1173 438.539 30.768 438.539 26.16V1.2H446.731V26.48C446.731 33.008 444.982 38 441.483 41.456C438.027 44.912 433.249 46.64 427.147 46.64ZM467.344 46V1.2H475.664V38.96H499.088V46H467.344ZM519.517 46V8.24H504.669V1.2H542.685V8.24H527.837V46H519.517Z" fill="#50C878"/>
</svg>
