<svg width="251" height="54" viewBox="0 0 251 54" fill="none" xmlns="http://www.w3.org/2000/svg">
<path d="M24.0142 53.1632C21.5846 53.1632 19.1861 52.8025 16.8838 52.0897C14.5787 51.3759 12.3911 50.3225 10.3815 48.9582C7.03023 46.6643 4.43339 43.8044 2.6649 40.4591C0.896401 37.1156 0 33.3846 0 29.3715C0 25.8649 0.599869 22.6366 1.78308 19.7757C2.96337 16.9197 4.79506 14.2871 7.22565 11.951C9.56777 9.72046 12.1996 8.02907 15.0463 6.92291C17.8959 5.8177 21.0557 5.25646 24.4371 5.25646C27.1001 5.25646 29.7154 5.66036 32.2111 6.45665C34.49 7.18482 36.7806 8.2977 39.0168 9.76363L36.7641 12.8807C35.6013 12.0374 34.3734 11.3217 33.1289 10.7595C30.4543 9.55065 27.4637 8.93857 24.2407 8.93857C21.6313 8.93857 19.0471 9.46719 16.562 10.51C14.075 11.5558 11.8914 13.0303 10.0704 14.8935C8.1833 16.8218 6.74828 19.0102 5.80327 21.3961C4.86118 23.7764 4.38284 26.4377 4.38284 29.3072C4.38284 31.556 4.66673 33.6599 5.22771 35.5624C5.79063 37.4744 6.64814 39.2579 7.77788 40.862C9.75055 43.6298 12.2152 45.7923 15.1046 47.2899C17.9932 48.7875 21.1549 49.5463 24.5023 49.5463C27.6445 49.5463 30.6069 48.8939 33.3059 47.6055C34.5143 47.0299 35.6956 46.3132 36.8166 45.4766C36.8769 45.4315 36.9391 45.4219 36.9799 45.4219C37.0772 45.4219 37.1656 45.4709 37.2162 45.5524L38.9332 48.349C39.01 48.4737 38.975 48.634 38.8534 48.7145C36.7874 50.0845 34.5581 51.1562 32.2276 51.8978C29.5929 52.7372 26.8288 53.1622 24.0132 53.1622L24.0142 53.1632Z" fill="white"/>
<path d="M58.1173 27.2743C57.6536 27.1946 57.1713 27.1544 56.6726 27.1544C54.8525 27.1544 53.3096 27.6033 52.0428 28.5013C50.7769 29.3993 49.5821 30.895 48.4572 32.9903V27.9737H44.7374V52.1328H48.885V40.3574C48.885 37.1885 49.4372 34.8169 50.5436 33.2416C51.65 31.6663 53.3086 30.8787 55.5205 30.8787C55.9132 30.8787 56.3235 30.918 56.7513 30.9976C57.1801 31.0763 57.6351 31.1962 58.1163 31.3545L59.5076 27.6321C59.0438 27.4729 58.5801 27.3549 58.1163 27.2752L58.1173 27.2743Z" fill="white"/>
<path d="M80.9483 27.9737V32.5144C80.0198 30.7184 78.8026 29.3686 77.2956 28.462C75.7887 27.5554 74.0085 27.1016 71.9571 27.1016C68.4609 27.1016 65.6687 28.2768 63.5822 30.6263C61.4948 32.9768 60.4516 36.1418 60.4516 40.1194C60.4516 44.097 61.5269 47.2006 63.6765 49.5847C65.8262 51.9707 68.6573 53.1622 72.1719 53.1622C74.0629 53.1622 75.7711 52.7008 77.2966 51.7759C78.822 50.852 80.0752 49.5099 81.0562 47.7494V52.1328H85.1231V27.9737H80.9493H80.9483ZM78.928 46.7334C77.5105 48.2742 75.5524 49.0436 73.0547 49.0436C70.5571 49.0436 68.4395 48.2521 67.021 46.6682C65.6035 45.0833 64.8938 42.8306 64.8938 39.9084C64.8938 37.1617 65.5987 35.0232 67.0074 33.492C68.4172 31.9608 70.3791 31.1953 72.8943 31.1953C75.4095 31.1953 77.2878 32.027 78.7948 33.6906C80.3018 35.3542 81.0562 37.5492 81.0562 40.2787C81.0562 43.0081 80.3475 45.1936 78.929 46.7344L78.928 46.7334Z" fill="white"/>
<path d="M97.838 10.0486C98.3017 9.27435 99.1505 8.88676 100.38 8.88676C100.951 8.88676 101.509 8.95679 102.053 9.09782C102.597 9.23885 103.137 9.45951 103.672 9.75788V5.48095C103.119 5.28716 102.544 5.14709 101.947 5.05787C101.348 4.97056 100.72 4.92547 100.06 4.92547C97.4014 4.92547 95.56 5.63445 94.5343 7.05146C93.5086 8.46847 92.9962 11.1835 92.9962 15.1966V27.9746H88.2867V31.3814H92.9962V52.1347H97.2507V31.3814H105.333V27.9746H97.1438V15.7521C97.1438 12.7243 97.3752 10.8238 97.8389 10.0495L97.838 10.0486Z" fill="white"/>
<path d="M112.663 27.9737V12.4509H108.382V27.9737H103.886V31.3804H108.382V52.1338H112.663V31.3804H117.158V27.9737H112.663Z" fill="white"/>
<path d="M126.376 17.3735C125.778 16.7748 125.061 16.4755 124.222 16.4755C123.384 16.4755 122.639 16.77 122.042 17.36C121.444 17.95 121.145 18.659 121.145 19.4851C121.145 20.3111 121.444 21.07 122.042 21.6504C122.64 22.2308 123.367 22.5225 124.222 22.5225C125.078 22.5225 125.801 22.2318 126.39 21.6504C126.978 21.07 127.273 20.3658 127.273 19.5378C127.273 18.7099 126.974 17.9711 126.376 17.3735ZM122.135 27.9737V52.1328H126.363V27.9737H122.135Z" fill="white"/>
<path d="M162.796 36.54C162.711 36.4354 162.576 36.3289 162.225 36.3289C162.04 36.3289 161.956 36.3404 161.932 36.3443L161.888 36.3577L160.268 36.6541C159.214 36.8681 158.242 37.0456 157.357 37.1837C156.17 37.3679 155.14 37.485 154.275 37.5291L152.726 37.6087L153.321 36.1956C154.195 34.1127 154.638 32.2544 154.638 30.6724C154.638 29.4338 154.368 28.5023 153.837 27.9055C153.324 27.3299 152.691 27.0603 151.848 27.0603C150.783 27.0603 149.859 27.3702 149.023 28.0044C148.147 28.6692 147.445 29.5499 146.935 30.6244C146.42 31.7105 146.158 32.8425 146.158 33.9899C146.158 35.3532 146.414 36.5323 146.918 37.4946L147.161 37.9589L146.901 38.4137C146.408 39.3078 145.68 40.5579 144.707 41.9941C142.503 45.2445 140.924 47.5767 140.108 47.3081C138.153 46.6643 138.934 30.5429 139.041 28.9561C139.058 28.7076 139.134 27.918 138.634 27.4642C138.342 27.2004 137.799 27.0603 137.063 27.0603C135.99 27.0603 135.173 27.2493 134.699 27.6062C134.293 27.9132 134.071 28.5455 134.041 29.4856V31.4725C134.041 35.4319 134.274 40.1204 134.733 45.4066C134.948 47.8473 135.461 49.6269 136.258 50.6966C136.975 51.6637 137.941 52.1338 139.208 52.1338C140.474 52.1338 141.502 51.7999 142.461 51.1149C143.488 50.381 144.758 48.9563 146.233 46.8812C147.568 45.0008 148.805 43.1501 149.914 41.3791L150.309 40.743L151.033 40.9627C152.44 41.3906 153.963 41.6074 155.558 41.6074C155.777 41.6074 155.995 41.6036 156.212 41.5959C157.872 41.5403 159.456 41.2717 160.93 40.7977C161.223 40.7018 161.481 40.5867 161.709 40.4504L162.936 36.7875C162.898 36.6925 162.851 36.6091 162.796 36.54ZM151.127 33.138C150.746 34.0216 149.898 35.0769 149.459 34.9704C148.944 34.8457 148.917 33.1159 149.791 31.8006C150.096 31.343 150.758 30.563 151.144 30.6628C151.597 30.7808 151.579 32.0913 151.127 33.138Z" fill="#50C878"/>
<path d="M186.535 41.2525C186.398 41.0376 186.296 41.0203 186.176 41.0203C185.995 41.0203 185.714 41.0683 185.361 41.475C184.92 41.9941 184.504 42.4766 184.11 42.9237C182.873 44.3292 181.86 45.3807 181.036 46.1184C179.794 47.2304 178.708 47.7715 177.711 47.7715C176.957 47.7715 176.305 47.4731 175.829 46.909C175.39 46.389 175.168 45.7193 175.168 44.9173C175.168 43.1185 175.61 40.0619 176.518 35.5835C177.223 31.9234 177.371 30.5496 177.371 30.043C177.371 29.9519 177.342 29.7725 177.272 29.5538C176.889 28.3708 175.597 27.8 174.969 27.5333C173.691 26.9884 172.277 26.8339 170.522 27.0037C169.195 27.1323 166.363 27.3318 163.521 29.3149C161.284 30.8767 159.465 32.974 158.114 35.5499C157.832 36.0862 157.58 36.6311 157.357 37.1837C156.781 38.6074 156.399 40.082 156.212 41.5959C156.123 42.3135 156.079 43.0398 156.079 43.7737C156.079 46.3151 156.725 48.3807 158.001 49.9109C159.246 51.4066 160.877 52.1338 162.986 52.1338C165.7 52.1338 167.912 50.711 169.748 47.7849L170.816 46.083L171.501 47.9672C171.979 49.2806 172.686 50.3225 173.605 51.0641C174.497 51.7836 175.441 52.1338 176.494 52.1338C177.93 52.1338 179.466 51.5255 181.061 50.3282C182.192 49.4792 183.294 48.4891 184.352 47.3724C184.892 46.8044 185.42 46.2038 185.935 45.5716L185.957 45.5457C186.53 44.8904 186.821 43.909 186.821 42.6292C186.821 42.0248 186.722 41.5489 186.535 41.2525ZM170.146 42.0833C169.77 43.8591 169.143 45.3183 168.282 46.4216C167.318 47.6592 166.238 48.2857 165.072 48.2857C163.906 48.2857 162.986 47.8693 162.321 47.0807C161.68 46.3238 161.369 45.2608 161.369 43.8303C161.369 42.6781 161.482 41.5489 161.709 40.4504C161.925 39.4009 162.243 38.3782 162.663 37.3929C162.75 37.1876 162.841 36.9851 162.936 36.7875C163.773 35.0222 164.871 33.5582 166.203 32.429C167.744 31.1223 169.463 30.4373 171.31 30.3932L172.534 30.3644L170.146 42.0833Z" fill="#50C878"/>
<path d="M201.597 52.1338C200.073 52.1338 199.04 51.609 198.346 50.4808C197.575 49.2297 197.184 47.3973 197.184 45.0324C196.659 46.3516 195.693 48.1725 193.913 49.7679C193.172 50.4318 191.251 52.153 189.016 52.1338C188.767 52.1319 188.223 52.1242 187.587 51.8786C186.814 51.5793 186.144 51.0161 185.562 50.1786C184.579 48.7673 184.081 46.9589 184.081 44.8041C184.081 42.0065 184.272 39.4114 184.649 37.0907C185.025 34.768 185.656 32.2679 186.525 29.6593C186.842 28.721 187.268 28.0533 187.792 27.6801C188.151 27.4249 188.917 27.1189 190.524 27.1189C191.437 27.1189 191.669 27.2983 191.671 27.3002C191.703 27.3261 191.806 27.4105 191.806 27.7559C191.804 27.8451 191.75 28.3315 191.199 30.6072C190.811 32.0232 190.495 33.3299 190.26 34.4888C189.466 38.5969 189.081 41.2755 189.081 42.6877C189.081 43.6893 189.216 44.381 189.507 44.8665C189.875 45.4853 190.504 45.8268 191.278 45.8268C192.204 45.8268 193.144 45.1591 194.234 43.7248C195.162 42.5045 196.111 40.7344 197.137 38.312C198.135 35.9576 199.115 33.0296 200.049 29.6094C200.302 28.675 200.665 28.0187 201.13 27.6561C201.588 27.3002 202.35 27.1198 203.395 27.1198C204.439 27.1198 204.709 27.2743 204.74 27.2935C204.738 27.2935 204.793 27.3779 204.793 27.6417C204.793 28.2442 204.546 30.0565 203.366 35.2698C202.258 40.2691 201.719 43.2931 201.719 44.5192C201.719 45.4574 201.943 46.223 202.383 46.7929C202.878 47.4338 203.569 47.7734 204.378 47.7734C205.41 47.7734 206.523 47.2352 207.783 46.1271C208.892 45.1524 210.318 43.6317 212.145 41.4779C212.499 41.0711 212.779 41.0232 212.959 41.0232C213.079 41.0232 213.182 41.0404 213.318 41.2563C213.505 41.5518 213.604 42.0276 213.604 42.6321C213.604 43.9119 213.313 44.8933 212.741 45.5476L212.721 45.5706C211.126 47.5115 209.39 49.1232 207.564 50.3599C205.826 51.538 203.818 52.1357 201.596 52.1357L201.597 52.1338Z" fill="#50C878"/>
<path d="M234.042 39.9295C233.876 39.7251 233.501 39.4469 232.547 39.4862C232.438 39.6397 232.331 39.7875 232.227 39.9285C231.75 40.5838 231.338 41.1086 231.044 41.4779C228.5 44.6573 226.796 45.8642 226.306 46.2307C224.939 47.2524 223.336 47.7715 221.54 47.7715C220.253 47.7715 219.19 47.3282 218.384 46.4562C217.628 45.6416 217.113 44.3868 216.807 42.6196L216.737 42.2166L216.983 41.8866C221.286 36.1015 224.739 30.1812 227.248 24.2906C229.736 18.4508 230.998 13.2635 230.998 8.87524C230.998 5.90692 230.511 3.62359 229.551 2.08857C228.67 0.68308 227.51 0 226.005 0C223.078 0 220.581 1.9322 218.369 5.90691C216.051 10.0735 214.271 15.14 213.078 20.9654C211.879 26.8253 211.272 32.1115 211.272 36.6791C211.272 38.6065 211.407 40.3909 211.675 42.0267C211.894 43.3593 212.201 44.5911 212.596 45.7213C212.889 46.5607 213.232 47.3445 213.621 48.0689C215.092 50.8041 217.285 52.1338 220.323 52.1338C222.587 52.1338 224.637 51.5342 226.415 50.3532C228.277 49.1156 230.03 47.5057 231.622 45.5678L231.642 45.5457C232.122 44.9921 232.543 44.451 232.899 43.9359C234.153 42.1207 234.605 40.6174 234.042 39.9295ZM216.388 34.7172C216.465 30.376 216.939 25.7824 217.794 21.0623C218.65 16.3431 219.657 12.3281 220.791 9.12852C222.129 5.34664 223.308 3.73296 224.729 3.73296C227.331 3.73296 227.331 7.73262 227.331 9.04601C227.331 12.8404 226.493 17.078 224.839 21.6427C223.202 26.1633 220.969 30.7357 218.203 35.2352L216.324 38.2899L216.388 34.7172Z" fill="#50C878"/>
<path d="M250.876 26.831C250.83 26.7946 250.646 26.7178 250.239 26.7178H241.163L243.097 25.0293C245.499 22.9321 247.323 20.6286 248.516 18.1822C249.702 15.7511 250.304 13.1013 250.304 10.3047C250.304 8.36869 249.889 6.75597 249.07 5.50973C248.318 4.36615 247.363 3.83273 246.065 3.83273C244.13 3.83273 242.346 4.74127 240.611 6.60918C238.79 8.57016 237.206 11.2583 235.904 14.5989C234.582 17.9884 233.586 21.7904 232.943 25.8995L232.814 26.7178H228.672C227.882 26.7178 227.04 26.8905 227.04 28.9561C227.04 29.5921 227.161 30.0661 227.38 30.2925C227.433 30.3472 227.762 30.6225 229.019 30.6225H232.326L232.256 31.6519C232.143 33.3395 232.084 35.0309 232.084 36.6791C232.084 37.8131 232.132 38.8972 232.227 39.9285C232.359 41.3657 232.583 42.703 232.899 43.9359C233.294 45.4853 233.833 46.8706 234.514 48.0833C236.041 50.8089 238.398 52.1338 241.716 52.1338C244.054 52.1338 246.088 51.4008 247.934 49.8946L247.946 49.885C248.4 49.5271 248.731 49.0906 248.959 48.5514C249.197 47.9864 249.318 47.3992 249.318 46.8054C249.318 46.2499 249.213 45.7827 249.007 45.4152C248.904 45.232 248.811 45.1389 248.732 45.1389C248.517 45.1389 248.278 45.3145 248.106 45.468C247.34 46.1396 246.477 46.6931 245.542 47.1124C244.554 47.5556 243.7 47.7715 242.933 47.7715C241.471 47.7715 240.292 47.3388 239.43 46.4878C238.603 45.6723 238.04 44.4213 237.711 42.6618C237.411 41.0663 237.259 38.8415 237.259 36.0497C237.259 34.9608 237.298 33.4469 237.376 31.5483L237.414 30.6225H245.427C247.417 30.6225 248.899 30.3376 249.83 29.7763C250.629 29.2957 251 28.6174 251 27.6398C251 27.0546 250.894 26.8608 250.876 26.831ZM239.573 25.6241L237.616 27.2935L237.963 24.7645C238.391 21.659 238.934 18.7857 239.578 16.2232C240.231 13.628 240.937 11.5606 241.679 10.0783C242.303 8.82919 243.188 7.39492 244.499 7.39492C246.753 7.39492 246.753 10.6616 246.753 11.7352C246.753 13.8496 246.147 16.2097 244.952 18.7502C243.758 21.2848 241.948 23.5979 239.573 25.6241Z" fill="#50C878"/>
</svg>
