<svg width="17" height="155" viewBox="0 0 17 155" fill="none" xmlns="http://www.w3.org/2000/svg">
<path d="M9 107V153M9 153L1.5 142.5M9 153L16 142.5" stroke="white" stroke-width="2" stroke-linecap="round"/>
<path d="M6.90909 89.6847C6.44129 89.7401 6.07813 89.9647 5.8196 90.3587C5.56108 90.7526 5.43182 91.2358 5.43182 91.8082C5.43182 92.2268 5.49953 92.593 5.63494 92.907C5.77036 93.2178 5.95656 93.4609 6.19354 93.6364C6.43052 93.8087 6.69981 93.8949 7.00142 93.8949C7.25379 93.8949 7.47076 93.8349 7.65234 93.7148C7.83085 93.5917 7.98011 93.4348 8.10014 93.244C8.21709 93.0531 8.31404 92.8531 8.39098 92.6438C8.46484 92.4345 8.52486 92.2422 8.57102 92.0668L8.82955 91.1065C8.89418 90.8603 8.98343 90.5864 9.0973 90.2848C9.21117 89.9801 9.3666 89.6893 9.56357 89.4123C9.75746 89.1322 10.0067 88.9014 10.3114 88.7198C10.6161 88.5382 10.9901 88.4474 11.4332 88.4474C11.9441 88.4474 12.4058 88.5813 12.8182 88.8491C13.2306 89.1138 13.5584 89.5015 13.8015 90.0124C14.0446 90.5202 14.1662 91.1373 14.1662 91.8636C14.1662 92.5407 14.0569 93.127 13.8384 93.6225C13.6199 94.1149 13.3152 94.5027 12.9244 94.7859C12.5335 95.0659 12.0795 95.2244 11.5625 95.2614L11.5625 94.0795C11.9195 94.0488 12.215 93.9287 12.4489 93.7195C12.6797 93.5071 12.852 93.2393 12.9659 92.9162C13.0767 92.59 13.1321 92.2391 13.1321 91.8636C13.1321 91.4266 13.0613 91.0342 12.9197 90.6864C12.7751 90.3387 12.575 90.0632 12.3196 89.8601C12.0611 89.657 11.7595 89.5554 11.4148 89.5554C11.1009 89.5554 10.8454 89.6431 10.6484 89.8185C10.4515 89.994 10.2914 90.2248 10.1683 90.511C10.0452 90.7972 9.9375 91.1065 9.84517 91.4389L9.51278 92.6023C9.30043 93.3409 8.99728 93.9257 8.60334 94.3565C8.2094 94.7874 7.69389 95.0028 7.05682 95.0028C6.52746 95.0028 6.06581 94.8597 5.67188 94.5735C5.27486 94.2842 4.96709 93.8964 4.74858 93.4102C4.52699 92.9208 4.41619 92.3745 4.41619 91.7713C4.41619 91.1619 4.52545 90.6203 4.74396 90.1463C4.9594 89.6723 5.25485 89.2969 5.63033 89.0199C6.0058 88.7398 6.43205 88.5921 6.90909 88.5767L6.90909 89.6847ZM7.5 78.9571L7.5 80.102C7.17069 80.1697 6.88139 80.2882 6.6321 80.4575C6.38281 80.6237 6.17353 80.8268 6.00426 81.0668C5.83191 81.3038 5.70265 81.567 5.61648 81.8563C5.5303 82.1456 5.48722 82.4472 5.48722 82.7611C5.48722 83.3335 5.63187 83.8521 5.92116 84.3169C6.21046 84.7785 6.63672 85.1463 7.19993 85.4202C7.76314 85.691 8.45407 85.8264 9.27273 85.8264C10.0914 85.8264 10.7823 85.691 11.3455 85.4202C11.9087 85.1463 12.335 84.7785 12.6243 84.3169C12.9136 83.8521 13.0582 83.3335 13.0582 82.7611C13.0582 82.4472 13.0152 82.1456 12.929 81.8563C12.8428 81.567 12.7151 81.3038 12.5458 81.0668C12.3735 80.8268 12.1626 80.6237 11.9134 80.4575C11.661 80.2882 11.3717 80.1697 11.0455 80.102L11.0455 78.9571C11.5286 79.0433 11.9611 79.2003 12.3427 79.428C12.7243 79.6557 13.049 79.9389 13.3168 80.2774C13.5814 80.616 13.783 80.9961 13.9215 81.4177C14.06 81.8363 14.1293 82.2841 14.1293 82.7611C14.1293 83.5674 13.9323 84.2845 13.5384 84.9124C13.1444 85.5402 12.5843 86.0342 11.858 86.3943C11.1316 86.7544 10.2699 86.9344 9.27273 86.9344C8.27557 86.9344 7.41383 86.7544 6.6875 86.3943C5.96117 86.0342 5.40104 85.5402 5.0071 84.9124C4.61316 84.2845 4.41619 83.5674 4.41619 82.7611C4.41619 82.2841 4.48544 81.8363 4.62393 81.4177C4.76243 80.9961 4.96555 80.616 5.23331 80.2774C5.49799 79.9389 5.82114 79.6557 6.20277 79.428C6.58132 79.2003 7.01373 79.0433 7.5 78.9571ZM14 77.1071L4.54545 77.1071L4.54545 73.9125C4.54545 73.1738 4.67164 72.5675 4.92401 72.0936C5.1733 71.6196 5.51645 71.2688 5.95348 71.041C6.39051 70.8133 6.88755 70.6994 7.4446 70.6994C8.00166 70.6994 8.49562 70.8133 8.92649 71.041C9.35736 71.2688 9.6959 71.6181 9.94212 72.089C10.1853 72.5598 10.3068 73.1615 10.3068 73.894L10.3068 76.4792L9.27273 76.4792L9.27273 73.9309C9.27273 73.4262 9.19886 73.0199 9.05114 72.7122C8.90341 72.4013 8.69413 72.1767 8.4233 72.0382C8.14938 71.8966 7.82315 71.8258 7.4446 71.8258C7.06605 71.8258 6.7352 71.8966 6.45206 72.0382C6.16892 72.1797 5.9504 72.406 5.79652 72.7168C5.63956 73.0276 5.56108 73.4385 5.56108 73.9494L5.56108 75.9622L14 75.9622L14 77.1071ZM9.75284 72.6568L14 70.3301L14 71.6596L9.75284 73.9494L9.75284 72.6568ZM9.27273 60.8144C10.2699 60.8144 11.1316 60.9944 11.858 61.3545C12.5843 61.7146 13.1444 62.2085 13.5384 62.8364C13.9323 63.4642 14.1293 64.1813 14.1293 64.9877C14.1293 65.794 13.9323 66.5111 13.5384 67.1389C13.1444 67.7668 12.5843 68.2607 11.858 68.6208C11.1316 68.9809 10.2699 69.161 9.27273 69.161C8.27557 69.161 7.41383 68.9809 6.6875 68.6208C5.96117 68.2607 5.40104 67.7668 5.0071 67.1389C4.61316 66.5111 4.41619 65.794 4.41619 64.9877C4.41619 64.1813 4.61316 63.4642 5.0071 62.8364C5.40104 62.2085 5.96117 61.7146 6.6875 61.3545C7.41383 60.9944 8.27557 60.8144 9.27273 60.8144ZM9.27273 61.9223C8.45407 61.9223 7.76314 62.0593 7.19993 62.3332C6.63672 62.604 6.21046 62.9718 5.92117 63.4365C5.63187 63.8982 5.48722 64.4152 5.48722 64.9877C5.48722 65.5601 5.63187 66.0787 5.92116 66.5434C6.21046 67.0051 6.63672 67.3728 7.19993 67.6468C7.76314 67.9176 8.45407 68.053 9.27273 68.053C10.0914 68.053 10.7823 67.9176 11.3455 67.6468C11.9087 67.3728 12.335 67.0051 12.6243 66.5434C12.9136 66.0787 13.0582 65.5601 13.0582 64.9877C13.0582 64.4152 12.9136 63.8982 12.6243 63.4365C12.335 62.9718 11.9087 62.604 11.3455 62.3332C10.7823 62.0593 10.0914 61.9223 9.27273 61.9223ZM14 58.8893L4.54545 58.8893L4.54545 57.7444L12.9844 57.7444L12.9844 53.3495L14 53.3495L14 58.8893ZM14 51.5768L4.54545 51.5768L4.54545 50.4319L12.9844 50.4319L12.9844 46.037L14 46.037L14 51.5768ZM14 37.6904L14 40.608L4.54545 40.608L4.54545 37.5612C4.54545 36.644 4.73473 35.8592 5.11328 35.2068C5.48876 34.5543 6.02888 34.0542 6.73367 33.7064C7.43537 33.3586 8.27557 33.1847 9.25426 33.1847C10.2391 33.1847 11.087 33.3602 11.7979 33.711C12.5058 34.0619 13.0505 34.5728 13.4322 35.2437C13.8107 35.9146 14 36.7302 14 37.6904ZM12.9844 39.4632L12.9844 37.7643C12.9844 36.9826 12.8336 36.3347 12.532 35.8208C12.2304 35.3068 11.801 34.9236 11.244 34.6713C10.6869 34.4189 10.0237 34.2927 9.25426 34.2927C8.491 34.2927 7.83393 34.4173 7.28303 34.6666C6.72905 34.9159 6.30433 35.2883 6.00888 35.7838C5.71035 36.2793 5.56108 36.8964 5.56108 37.635L5.56108 39.4632L12.9844 39.4632ZM9.27273 23.287C10.2699 23.287 11.1316 23.4671 11.858 23.8271C12.5843 24.1872 13.1444 24.6812 13.5384 25.309C13.9323 25.9369 14.1293 26.654 14.1293 27.4603C14.1293 28.2667 13.9323 28.9838 13.5384 29.6116C13.1444 30.2394 12.5843 30.7334 11.858 31.0935C11.1316 31.4536 10.2699 31.6336 9.27273 31.6336C8.27557 31.6336 7.41383 31.4536 6.6875 31.0935C5.96118 30.7334 5.40104 30.2394 5.0071 29.6116C4.61316 28.9838 4.41619 28.2667 4.41619 27.4603C4.41619 26.654 4.61316 25.9369 5.0071 25.309C5.40104 24.6812 5.96118 24.1872 6.6875 23.8271C7.41383 23.4671 8.27557 23.287 9.27273 23.287ZM9.27273 24.395C8.45407 24.395 7.76314 24.5319 7.19993 24.8058C6.63672 25.0767 6.21046 25.4445 5.92117 25.9092C5.63187 26.3708 5.48722 26.8879 5.48722 27.4603C5.48722 28.0328 5.63187 28.5513 5.92117 29.0161C6.21046 29.4777 6.63672 29.8455 7.19993 30.1194C7.76314 30.3902 8.45407 30.5257 9.27273 30.5257C10.0914 30.5257 10.7823 30.3902 11.3455 30.1194C11.9087 29.8455 12.335 29.4777 12.6243 29.0161C12.9136 28.5513 13.0582 28.0328 13.0582 27.4603C13.0582 26.8879 12.9136 26.3708 12.6243 25.9092C12.335 25.4445 11.9087 25.0767 11.3455 24.8058C10.7823 24.5319 10.0914 24.395 9.27273 24.395ZM14 19.6446L4.54546 22.2298L4.54546 21.0665L12.2457 19.0906L12.2457 18.9983L4.54546 16.9855L4.54546 15.6929L12.2457 13.6801L12.2457 13.5878L4.54546 11.6119L4.54546 10.4486L14 13.0338L14 14.2156L6.46591 16.3023L6.46591 16.3762L14 18.4628L14 19.6446ZM4.54546 1.52495L14 1.52495L14 2.6329L6.57671 7.78489L6.57671 7.87722L14 7.87722L14 9.02211L4.54546 9.02211L4.54546 7.91415L11.9872 2.7437L11.9872 2.65137L4.54546 2.65137L4.54546 1.52495Z" fill="white"/>
</svg>
