<svg width="65" height="71" viewBox="0 0 65 71" fill="none" xmlns="http://www.w3.org/2000/svg">
<path d="M13.6036 70.0054C12.7272 69.5074 12.4459 68.9987 12.6379 68.2665C12.8002 67.6501 13.3277 67.2786 14.1013 67.2732C15.47 67.2652 16.836 67.2732 18.2263 67.2732C18.2723 66.6999 18.2669 66.175 18.3643 65.6689C18.7267 63.7605 20.1982 62.4361 22.1593 62.3069C23.2548 62.2342 24.3557 62.2961 25.4539 62.2611C25.646 62.2558 25.9056 62.1023 26.0057 61.9381C26.1437 61.7174 26.1599 61.4213 26.2248 61.1548C26.6657 59.2975 27.1039 57.4401 27.5665 55.4859C27.2284 55.4859 26.9606 55.4859 26.6955 55.4859C19.9439 55.4859 13.1897 55.4913 6.43819 55.4859C3.48169 55.4832 1.29069 53.8735 0.649615 51.2275C0.527893 50.7241 0.48191 50.1911 0.48191 49.6716C0.473795 38.0996 0.468383 26.5276 0.479203 14.9556C0.479203 12.0539 2.16979 9.86275 4.85309 9.27594C5.40489 9.15481 5.98917 9.14942 6.55721 9.14942C18.5293 9.14135 30.5013 9.13865 42.4707 9.1575C43.0441 9.1575 43.3714 8.98522 43.6852 8.51147C45.0242 6.47109 46.3496 4.42264 47.7859 2.45225C49.1627 0.562611 51.1238 -0.231467 53.4392 0.115774C55.8628 0.479165 57.5075 1.88697 58.2919 4.21268C58.7707 5.62587 58.6625 7.03906 58.0809 8.41456C57.9943 8.61914 57.8997 8.81833 57.7644 9.11443C58.1485 9.13327 58.4569 9.14673 58.7652 9.16019C61.573 9.2867 63.7802 11.3675 64.0453 14.14C64.0751 14.4576 64.0913 14.7753 64.0913 15.0956C64.0913 26.5761 64.0967 38.0566 64.0913 49.537C64.0913 52.4926 62.49 54.673 59.8283 55.3055C59.2143 55.4509 58.5597 55.4859 57.924 55.4859C51.2617 55.4994 44.6022 55.494 37.9399 55.494H37.0148C37.1474 56.0969 37.2583 56.6407 37.3881 57.179C37.7398 58.6622 38.1293 60.1373 38.443 61.6286C38.5567 62.1696 38.7893 62.323 39.3167 62.2961C40.1147 62.2531 40.9181 62.2827 41.7187 62.2854C44.5643 62.2934 46.2549 63.9489 46.2847 66.7645C46.2847 66.9018 46.2847 67.0364 46.2847 67.284C47.0475 67.284 47.7913 67.284 48.5352 67.284C49.1086 67.284 49.6794 67.284 50.2528 67.284C51.2049 67.2867 51.7459 67.6097 51.9218 68.2773C52.1138 69.0068 51.8325 69.5182 50.9561 70.0162H13.5982L13.6036 70.0054ZM41.3941 11.8735C41.01 11.8735 40.7855 11.8735 40.5583 11.8735C29.1813 11.8735 17.807 11.8735 6.43007 11.8735C4.29858 11.8735 3.2166 12.9448 3.2166 15.0633C3.2139 23.3782 3.2166 31.6905 3.2166 40.0054C3.2166 40.2477 3.2166 40.4926 3.2166 40.8049C4.53932 40.8049 5.77277 40.7833 7.00622 40.8103C7.94484 40.8318 8.54534 41.424 8.51829 42.2261C8.49124 43.0148 7.91237 43.5128 6.98187 43.5317C6.47875 43.5424 5.97565 43.5317 5.47253 43.5344C4.7476 43.5344 4.02268 43.5344 3.2707 43.5344C3.24906 43.8008 3.22202 43.9785 3.22202 44.1535C3.21931 45.9973 3.2112 47.8439 3.22202 49.6878C3.23554 51.607 4.37162 52.743 6.31647 52.743C23.62 52.7483 40.9262 52.7483 58.2297 52.743C60.207 52.743 61.335 51.607 61.3458 49.6393C61.3566 47.9085 61.3458 46.1777 61.3458 44.4469C61.3458 43.8367 61.0365 43.5317 60.418 43.5317C46.5687 43.5317 32.7221 43.5317 18.8728 43.5317C18.5753 43.5317 18.275 43.5424 17.9802 43.5101C17.2931 43.4374 16.8008 42.9125 16.7657 42.2477C16.7305 41.5855 17.166 40.9987 17.8449 40.8668C18.1776 40.8022 18.5266 40.8022 18.8674 40.8022C32.7167 40.7995 46.5633 40.8022 60.4126 40.8022C60.6993 40.8022 60.9887 40.8022 61.3431 40.8022C61.3431 40.4765 61.3431 40.2531 61.3431 40.0296C61.3431 31.7147 61.3431 23.4025 61.3431 15.0875C61.3431 14.8372 61.3349 14.5868 61.3052 14.3392C61.1267 12.926 60.0663 11.9381 58.6354 11.8843C57.8807 11.8547 57.1234 11.9112 56.3714 11.8627C55.7682 11.8251 55.3706 12.0216 54.981 12.498C51.1535 17.179 47.3071 21.8439 43.4472 26.5007C43.101 26.9206 42.9197 27.2786 43.1037 27.8412C43.2632 28.3311 43.293 28.8695 43.3282 29.389C43.5608 32.9987 41.0722 36.035 37.4855 36.3984C36.1979 36.5303 34.8833 36.4146 33.5823 36.3957C31.8349 36.3715 30.2444 36.7376 28.8973 37.9597C28.0669 38.7107 26.9443 38.3338 26.6441 37.2544C26.0544 35.1414 25.6865 32.9879 25.7244 30.786C25.8218 25.144 29.0623 21.7201 34.621 21.3352C34.8617 21.319 35.1619 21.1171 35.3053 20.9125C36.1817 19.6636 37.0229 18.3876 37.875 17.1198C39.0165 15.4213 40.158 13.7228 41.3968 11.8762L41.3941 11.8735ZM41.7755 16.2315C43.1767 17.2625 44.5102 18.245 45.8789 19.2544C46.3442 18.6891 46.7634 18.1831 47.1827 17.6743C49.7659 14.5438 52.3437 11.4078 54.9324 8.28266C55.733 7.31631 56.0522 6.25036 55.6735 5.04444C55.2759 3.77661 54.367 3.01483 53.066 2.81026C51.7297 2.6003 50.6261 3.10097 49.8633 4.21537C48.3594 6.41456 46.8824 8.63529 45.3947 10.8479C44.1991 12.6245 43.0063 14.4011 41.7755 16.2342V16.2315ZM28.8216 34.463C29.9982 34.21 31.1154 33.852 32.2568 33.7551C33.6174 33.6393 34.9942 33.7658 36.3656 33.7551C37.4341 33.7497 38.4512 33.5747 39.2924 32.8129C40.8261 31.4213 40.8045 29.4159 40.2689 27.9031C40.2067 27.7308 40.0227 27.5855 39.8631 27.4671C38.4539 26.4173 37.0419 25.3755 35.6218 24.3392C35.4622 24.2234 35.2701 24.1104 35.0808 24.0862C32.7248 23.7928 30.0253 25.3513 29.1272 27.5343C28.1778 29.8466 28.405 32.2046 28.8216 34.463ZM43.4986 67.249C43.6419 65.5236 43.1794 65.0095 41.5456 65.0095C35.3242 65.0095 29.1056 65.0095 22.8842 65.0095C21.3586 65.0095 20.8068 65.7039 21.1125 67.2463H43.4959L43.4986 67.249ZM28.7864 62.2154H35.7733C35.2296 59.9408 34.7021 57.7362 34.1692 55.5155H30.3877C29.8576 57.7335 29.3301 59.9354 28.7837 62.2154H28.7864ZM41.1426 25.0014C42.1515 23.7766 43.1199 22.603 44.1315 21.3755C42.8277 20.4146 41.5564 19.4751 40.2445 18.5088C39.3438 19.8466 38.4971 21.1064 37.6262 22.4011C38.7947 23.2652 39.9281 24.1023 41.1426 24.9987V25.0014Z" fill="black"/>
<path d="M12.6162 43.5263C11.8643 43.5128 11.2719 42.9126 11.2746 42.1669C11.28 41.4348 11.8967 40.8237 12.6379 40.8211C13.4061 40.8184 14.0363 41.4644 14.0093 42.2262C13.985 42.9718 13.3736 43.5398 12.6135 43.5263H12.6162Z" fill="black"/>
</svg>
